<svg width="22" height="22" viewBox="0 0 22 22" xmlns="http://www.w3.org/2000/svg">
<path fill-rule="evenodd" clip-rule="evenodd" d="M2.45866 2.61455H0V0.870117H2.46678C3.50966 0.876088 4.44309 1.52981 4.78216 2.51145L5.72698 5.12799H21.12C21.3938 5.12799 21.652 5.25433 21.8186 5.46978C21.9851 5.68523 22.0409 5.96523 21.9696 6.22728L19.8636 13.9689C19.76 14.3495 19.4117 14.614 19.0139 14.614H7.90271C7.53103 14.614 7.19942 14.3825 7.07418 14.0357L3.11769 3.07877C3.02555 2.80897 2.76423 2.61715 2.45866 2.61455ZM6.35689 6.87242L8.52242 12.8696H18.3398L19.9713 6.87242H6.35689Z" fill="currentColor"/>
<path d="M8.29599 21.8701C9.38713 21.8701 10.2717 21.0036 10.2717 19.9347C10.2717 18.8658 9.38713 17.9993 8.29599 17.9993C7.20485 17.9993 6.32031 18.8658 6.32031 19.9347C6.32031 21.0036 7.20485 21.8701 8.29599 21.8701Z" fill="currentColor"/>
<path d="M18.9679 21.8701C20.059 21.8701 20.9435 21.0036 20.9435 19.9347C20.9435 18.8658 20.059 17.9993 18.9679 17.9993C17.8767 17.9993 16.9922 18.8658 16.9922 19.9347C16.9922 21.0036 17.8767 21.8701 18.9679 21.8701Z" fill="currentColor"/>
</svg>
