<svg width="14" height="18" viewBox="0 0 14 18" fill="none" xmlns="http://www.w3.org/2000/svg">
<path d="M7 17.9375L5.73352 19.4854L7 20.5216L8.26648 19.4854L7 17.9375ZM12 7C12 7.82072 11.6318 9.21072 10.5897 10.9476C9.57003 12.647 7.97762 14.5535 5.73352 16.3896L8.26648 19.4854C10.8349 17.384 12.7425 15.1342 14.0197 13.0056C15.2744 10.9143 16 8.80428 16 7H12ZM8.26648 16.3896C6.02238 14.5535 4.42997 12.647 3.4103 10.9476C2.36819 9.21072 2 7.82072 2 7H-2C-2 8.80428 -1.27444 10.9143 -0.0196734 13.0056C1.25753 15.1342 3.16512 17.384 5.73352 19.4854L8.26648 16.3896ZM2 7C2 4.23858 4.23858 2 7 2V-2C2.02944 -2 -2 2.02944 -2 7H2ZM7 2C9.76142 2 12 4.23858 12 7H16C16 2.02944 11.9706 -2 7 -2V2Z" fill="currentColor"/>
<circle cx="7" cy="7" r="2.5" stroke="currentColor" stroke-width="2" fill="none"/>
</svg>
