<svg width="35" height="35" viewBox="0 0 35 35" xmlns="http://www.w3.org/2000/svg">
<path d="M6 9C6 5.13401 9.13401 2 13 2H28V31H6V9Z" fill="currentColor"/>
<rect x="13" y="11" width="20" height="11" fill="#FEFFDF"/>
<path d="M6.5 33L11.2631 27H1.73686L6.5 33Z" fill="#FEFFDF"/>
<rect x="5" y="19" width="4" height="13" fill="#FEFFDF"/>
<path d="M30.5604 14.2386C30.938 14.2386 31.244 13.9325 31.244 13.5551C31.244 13.1776 30.938 12.8715 30.5604 12.8715H28.344C27.9664 12.8715 27.6604 13.1776 27.6604 13.5551V19.0239C27.6604 19.4014 27.9664 19.7075 28.344 19.7075C28.7215 19.7075 29.0276 19.4014 29.0276 19.0239V16.9213H30.3843C30.7619 16.9213 31.0679 16.6152 31.0679 16.2377C31.0679 15.8602 30.7619 15.5541 30.3843 15.5541H29.0276V14.2387H30.5604V14.2386Z" fill="black"/>
<path d="M23.8008 12.8713H22.252C21.8741 12.8713 21.5677 13.1783 21.5684 13.5562V13.5605V13.5607V18.935C21.5684 19.4319 21.9026 19.7074 22.263 19.7074H22.2656C22.3125 19.7072 23.4168 19.703 23.8581 19.6952C25.5006 19.6665 26.6927 18.2342 26.6927 16.2894C26.6927 14.245 25.5305 12.8713 23.8008 12.8713ZM23.8341 18.3282C23.6297 18.3317 23.2689 18.3346 22.9442 18.3367C22.9374 16.1963 22.9414 16.9471 22.9367 14.2385H23.8007C24.9249 14.2385 25.3255 15.2979 25.3255 16.2893C25.3255 17.2912 24.8644 18.3102 23.8341 18.3282Z" fill="black"/>
<path d="M18.3035 12.8713H16.7808C16.4032 12.8713 16.0972 13.1781 16.0972 13.5549V19.0237C16.0972 19.4013 16.4032 19.7073 16.7808 19.7073C17.1583 19.7073 17.4644 19.4012 17.4644 19.0237V17.3282C17.7715 17.3266 18.1097 17.3252 18.3035 17.3252C19.548 17.3252 20.5605 16.3262 20.5605 15.0983C20.5605 13.8703 19.548 12.8713 18.3035 12.8713ZM18.3035 15.9579C18.1104 15.9579 17.7766 15.9593 17.4712 15.9609C17.4668 15.0646 17.4696 15.4135 17.4664 14.2386H18.3035C18.7858 14.2386 19.1934 14.6323 19.1934 15.0982C19.1934 15.5642 18.7859 15.9579 18.3035 15.9579Z" fill="black"/>
<path d="M32.8553 9.60511H29.0447V1.02539C29.0447 0.459102 28.5856 0 28.0194 0H11.9376C11.6574 0 11.3971 0.115938 11.2126 0.300303L4.68862 6.82384C4.49119 7.02133 4.38825 7.2867 4.38825 7.54893V17.6323H4.03408C3.46779 17.6323 3.00875 18.0914 3.00875 18.6577V25.7652H1.02654C0.165208 25.7652 -0.31235 26.7674 0.23015 27.4364L6.05587 34.6207C6.46637 35.1268 7.2389 35.1259 7.64864 34.6207L9.00387 32.9494H28.0193C28.5856 32.9494 29.0446 32.4903 29.0446 31.924V23.0066H32.8552C34.0378 23.0066 34.9999 22.0445 34.9999 20.8618V11.75C35 10.5673 34.0378 9.60511 32.8553 9.60511ZM10.9123 3.50075V6.52354H7.88934C8.20981 6.20307 10.5922 3.82088 10.9123 3.50075ZM3.17815 27.816H4.03414C4.60043 27.816 5.05947 27.3569 5.05947 26.7907V19.6831H8.64498V26.7907C8.64498 27.3569 9.10408 27.816 9.67031 27.816H10.5263L7.72411 31.2717C7.72405 31.2718 7.72391 31.2719 7.72384 31.272L6.85219 32.3469L3.17815 27.816ZM26.994 30.8986H10.6669L13.4744 27.4365C14.0168 26.7676 13.5395 25.7653 12.678 25.7653H10.6957V18.6577C10.6957 18.0914 10.2366 17.6323 9.67037 17.6323H6.43903V8.57438H11.9376C12.5039 8.57438 12.963 8.11528 12.963 7.54899V2.05078H26.9939V9.60511H14.478C13.2953 9.60511 12.3332 10.5673 12.3332 11.75V20.8618C12.3332 22.0445 13.2953 23.0066 14.478 23.0066H26.994V30.8986ZM32.9493 20.8618C32.9493 20.9137 32.9071 20.9558 32.8553 20.9558C32.3736 20.9558 15.0068 20.9558 14.478 20.9558C14.4261 20.9558 14.3839 20.9137 14.3839 20.8618V11.75C14.3839 11.6981 14.4261 11.6559 14.478 11.6559H32.8553C32.9071 11.6559 32.9493 11.6981 32.9493 11.75V20.8618Z" fill="black"/>
</svg>
