<svg width="18" height="18" viewBox="0 0 18 18" xmlns="http://www.w3.org/2000/svg">
<path d="M14.4317 8.86812C14.0901 8.52646 13.5364 8.52646 13.1948 8.86789L11.826 10.2368L7.76348 6.17425L9.1323 4.80533C9.47393 4.4639 9.47393 3.90995 9.1323 3.56852L5.82049 0.256245C5.65651 0.0920204 5.43399 0 5.20213 0C4.97027 0 4.74776 0.0920204 4.58377 0.256245L0.940122 3.8997C-0.31345 5.15382 -0.31345 7.19444 0.940578 8.44879L9.5516 17.0607C10.1574 17.6665 10.9651 18 11.826 18C12.6869 18 13.4945 17.6665 14.1004 17.0607L17.7438 13.4172C17.9078 13.2532 18 13.0309 18 12.7988C18 12.5667 17.9078 12.3444 17.7438 12.1804L14.4317 8.86812ZM12.8636 15.8236C12.5883 16.099 12.2198 16.2507 11.826 16.2507C11.4322 16.2507 11.0637 16.099 10.7883 15.8239L2.17752 7.21198C1.6054 6.63981 1.60517 5.70868 2.17707 5.13651L5.20213 2.11146L7.27699 4.18693L5.9084 5.55584C5.74419 5.71984 5.65218 5.94237 5.65218 6.17425C5.65218 6.40635 5.74419 6.62865 5.9084 6.79265L11.2076 12.092C11.549 12.4337 12.1027 12.4337 12.4443 12.0922L13.8132 10.7233L15.8885 12.7988L12.8636 15.8236Z" fill="currentColor"/>
</svg>
