<svg width="19" height="18" viewBox="0 0 19 18" xmlns="http://www.w3.org/2000/svg">
<path d="M9.05163 1.03827C9.23504 0.666646 9.76496 0.666646 9.94837 1.03827L11.9048 5.0025C12.1233 5.44522 12.5457 5.75207 13.0342 5.82306L17.409 6.45876C17.8191 6.51835 17.9829 7.02234 17.6861 7.31161L14.5205 10.3973C14.167 10.7419 14.0057 11.2384 14.0891 11.725L14.8364 16.0821C14.9065 16.4906 14.4778 16.8021 14.1109 16.6092L10.198 14.5521C9.76103 14.3223 9.23897 14.3223 8.80199 14.5521L4.88906 16.6092C4.52224 16.8021 4.09353 16.4906 4.16358 16.0821L4.91088 11.725C4.99434 11.2384 4.83302 10.7419 4.47949 10.3973L1.31386 7.3116C1.0171 7.02234 1.18086 6.51835 1.59097 6.45876L5.96576 5.82306C6.45432 5.75207 6.87667 5.44522 7.09517 5.0025L9.05163 1.03827Z" fill="currentColor" stroke="#828282"/>
</svg>
