<svg width="24" height="21" viewBox="0 0 24 21" xmlns="http://www.w3.org/2000/svg">
<path d="M0.414193 10.1973L6.28336 13.1219C6.51037 13.2339 6.77838 13.2259 6.99538 13.0989L12.2195 10.0624L9.05744 12.864C8.89644 13.007 8.80443 13.2109 8.80443 13.4259V20.25C8.80443 20.9699 9.72346 21.2728 10.1545 20.7009L12.6915 17.3284L18.9657 20.9009C19.4057 21.1538 19.9698 20.8999 20.0718 20.3969L23.9849 0.899606C24.1019 0.313686 23.5189 -0.164249 22.9768 0.0537217L0.476195 8.82753C-0.127822 9.06349 -0.166823 9.90838 0.414193 10.1973ZM22.2448 1.94946L18.8057 19.0841L12.8605 15.6986C12.5365 15.5136 12.1195 15.5956 11.8895 15.8996L10.3045 18.0063V13.7629L18.8557 6.18789C19.5327 5.58897 18.7547 4.52411 17.9817 4.97805L6.59137 11.5991L2.59926 9.61042L22.2448 1.94946Z" fill="currentColor"/>
</svg>
