<svg width="25" height="15" viewBox="0 0 25 15" xmlns="http://www.w3.org/2000/svg">
<path d="M12.048 0.0013326C10.7562 -0.0103639 9.7813 0.0481217 8.9648 0.451679C8.62967 0.61544 8.39203 0.825991 8.20923 1.07163C8.11174 1.19445 8.02034 1.30558 7.97769 1.56292C7.95331 1.68574 7.93503 1.89044 8.06908 2.11269C8.20314 2.34079 8.48952 2.49285 8.68451 2.52209C8.83074 2.53964 9.1415 2.66246 9.19634 2.73265C9.3243 2.90811 9.37305 3.03677 9.39133 3.10696C9.40961 3.17714 9.40351 3.13035 9.40351 3.13035V3.20054C9.40351 3.20054 9.45226 3.93746 9.42179 4.69779C9.40351 5.0721 9.36695 5.46396 9.30602 5.72715C9.24509 5.99033 9.09275 6.05467 9.31211 5.93185C9.15978 6.01958 9.21462 6.05467 9.02573 5.96109C8.83074 5.87336 8.325 5.46396 7.66084 4.31763C6.99667 3.16545 6.5153 2.56888 6.40562 2.44021C6.36297 2.32324 6.25938 2.08345 5.90597 1.82026C5.44897 1.48104 4.97979 1.47519 4.97979 1.47519L4.93714 1.46934H1.531C1.531 1.46934 1.33601 1.47519 1.11056 1.52198C0.885109 1.56877 0.562164 1.62141 0.257501 1.98402H0.251408C-0.0593497 2.36418 -0.00451016 2.70925 0.0198629 2.9198C0.0503293 3.1362 0.117355 3.30581 0.117355 3.30581L0.129542 3.3409L0.147822 3.376C0.147822 3.376 2.74965 8.7041 5.85723 11.9501C8.7759 15.0031 12.1577 14.9446 12.1577 14.9446H14.0771L14.1197 14.9387C14.1197 14.9387 14.7351 14.968 15.2531 14.4124C15.5151 14.1258 15.576 13.8567 15.6065 13.6579C15.643 13.4532 15.643 13.2894 15.643 13.2894V13.3362C15.643 13.3362 15.6674 12.9502 15.7771 12.5467C15.8319 12.3478 15.9111 12.1489 15.9843 12.0378C16.0208 11.9735 16.0208 11.991 16.033 11.9735C16.1671 12.0671 16.3864 12.2835 16.618 12.5584C17.0932 13.1023 17.6294 13.8567 18.3789 14.3773C18.9212 14.7457 19.4331 14.9095 19.823 14.968C20.085 15.0089 20.2739 15.0031 20.4019 14.9914L23.0525 14.9446H23.0768C23.0768 14.9446 23.6252 14.9329 24.1736 14.5995C24.4417 14.4358 24.7525 14.1375 24.8561 13.7105C24.9657 13.2836 24.8439 12.8215 24.588 12.3946C24.6733 12.5408 24.5697 12.3478 24.4905 12.1957C24.4113 12.0437 24.2894 11.839 24.1066 11.5816C23.7532 11.0786 23.1682 10.371 22.1994 9.47027C21.7424 9.04917 21.4499 8.81523 21.2671 8.65146C21.322 8.57543 21.3281 8.56958 21.5352 8.33564C21.8643 7.96717 22.3456 7.42325 22.955 6.61029C23.6862 5.62772 24.2163 4.82646 24.5575 4.15971C24.8987 3.49882 25.1729 2.94904 24.8683 2.2706C24.7037 1.90214 24.4113 1.76177 24.198 1.67404C23.9786 1.58631 23.7837 1.55122 23.6009 1.52198C23.2413 1.46934 22.9245 1.46934 22.9245 1.46934L19.8352 1.49273C19.7438 1.47519 19.3904 1.41085 18.9334 1.69159C18.4825 1.96063 18.3789 2.24721 18.3545 2.33494C18.2814 2.43436 17.7696 3.13035 17.0567 4.34687C16.3377 5.57508 15.8502 5.90845 15.7893 5.9377C15.771 5.92015 15.8075 5.926 15.7222 5.87921C15.6857 5.84997 15.6491 5.82657 15.6187 5.51075C15.5943 5.19492 15.6248 4.69779 15.6248 4.11292C15.6248 2.85547 15.7405 2.20042 15.6735 1.57462C15.643 1.25879 15.509 0.87278 15.2165 0.61544C14.924 0.363949 14.6072 0.270371 14.2781 0.188489C13.7602 0.065668 13.0595 0.0130306 12.048 0.0013326ZM12.0358 1.49858C12.9803 1.51028 13.6444 1.58046 13.8882 1.63895C14.0953 1.69159 14.1258 1.71498 14.1197 1.70329C14.1197 1.71498 14.1197 1.70913 14.1197 1.72668C14.1441 1.97817 14.0649 2.78528 14.0649 4.11292C14.0649 4.63345 14.0222 5.13643 14.0649 5.63942C14.1075 6.1424 14.2964 6.75651 14.8509 7.11912H14.857C14.79 7.07818 15.5577 7.62795 16.2889 7.37646C17.0201 7.11912 17.599 6.47577 18.4216 5.07795C19.1406 3.83804 19.6707 3.14205 19.6707 3.14205L19.7194 3.07187L19.756 3.00168C19.756 3.00168 19.7438 2.99583 19.756 2.98999L22.9245 2.96659C22.9245 2.96659 23.1439 2.96659 23.3571 3.00168C23.3632 3.00168 23.3693 3.00168 23.3754 3.00168C23.3449 3.01338 23.3693 3.08941 23.156 3.50467C22.8818 4.03689 22.3883 4.79721 21.6876 5.73884C21.1087 6.50501 20.6761 7.00215 20.3531 7.36476C20.0302 7.72153 19.7865 7.89114 19.628 8.35903C19.5488 8.58713 19.5671 8.92635 19.6829 9.15445C19.7926 9.37669 19.9266 9.49952 20.0607 9.62234C20.3288 9.86798 20.6456 10.1078 21.1087 10.5464C22.0166 11.3886 22.5284 12.0086 22.8148 12.418C22.9611 12.6285 23.0464 12.7748 23.1012 12.88C23.156 12.9853 23.1195 12.9444 23.2413 13.1432C23.3449 13.3245 23.3267 13.3479 23.3267 13.3362C23.2231 13.3947 22.9611 13.4473 22.955 13.4473L20.3044 13.4941L20.2313 13.5117C20.2313 13.5117 20.2374 13.5175 20.0728 13.4941C19.9022 13.4649 19.6341 13.3947 19.2929 13.1608C18.8725 12.8742 18.3424 12.2074 17.8183 11.5992C17.5624 11.3009 17.3004 11.0085 16.9714 10.7745C16.6423 10.5406 16.1244 10.3242 15.5943 10.4938C15.1373 10.6342 14.8387 10.9558 14.6498 11.2541C14.4609 11.5582 14.3513 11.8741 14.266 12.1606C14.1075 12.7397 14.0832 13.2602 14.0832 13.2602V13.307C14.0832 13.307 14.0832 13.3421 14.071 13.3947C14.0405 13.4064 13.9978 13.4356 13.9735 13.4473H12.1089C12.1089 13.4473 9.53147 13.576 7.00276 10.9441C4.29735 8.10754 1.8905 3.3643 1.68942 2.96659H4.82746C4.85793 2.97829 4.96761 3.01923 4.95542 3.01338C4.8823 2.95489 4.99198 3.08356 4.99198 3.08356L5.04072 3.19469L5.12603 3.28827C5.12603 3.28827 5.6074 3.84974 6.29594 5.04286C7.03323 6.32371 7.65474 6.99045 8.34938 7.31213C9.04401 7.6338 9.7752 7.4057 10.086 7.23609C10.6648 6.91442 10.7318 6.46408 10.8293 6.04882C10.9268 5.63357 10.9573 5.18907 10.9756 4.75627C11.0121 3.92577 10.9634 3.21808 10.9634 3.16544C10.9573 3.1479 10.9573 2.9432 10.8964 2.72095C10.8293 2.49285 10.7075 2.19457 10.4759 1.87875C10.3784 1.75007 10.287 1.81441 10.1835 1.72083C10.6161 1.60386 11.0792 1.48689 12.0358 1.49858Z" fill="currentColor"/>
</svg>
