<svg width="24" height="24" viewBox="0 0 24 24" xmlns="http://www.w3.org/2000/svg">
<path d="M16.3681 11.8939C16.0934 11.6193 15.6483 11.6193 15.3736 11.8937L14.2731 12.9942L11.0071 9.72833L12.1076 8.62787C12.3822 8.35339 12.3822 7.90808 12.1076 7.63361L9.44502 4.97089C9.31319 4.83887 9.13429 4.76489 8.94789 4.76489C8.76149 4.76489 8.5826 4.83887 8.45076 4.97089L5.52144 7.89984C4.51363 8.90802 4.51363 10.5485 5.5218 11.5568L12.4447 18.4799C12.9317 18.9669 13.581 19.235 14.2731 19.235C14.9653 19.235 15.6146 18.9669 16.1016 18.4799L19.0308 15.5509C19.1626 15.4191 19.2368 15.2404 19.2368 15.0538C19.2368 14.8672 19.1626 14.6885 19.0308 14.5566L16.3681 11.8939ZM15.1074 17.4854C14.886 17.7068 14.5897 17.8287 14.2731 17.8287C13.9566 17.8287 13.6603 17.7068 13.4389 17.4856L6.51625 10.5626C6.05629 10.1026 6.05611 9.35406 6.51588 8.8941L8.94789 6.46228L10.616 8.13074L9.5157 9.2312C9.38368 9.36304 9.30971 9.54193 9.30971 9.72833C9.30971 9.91492 9.38368 10.0936 9.5157 10.2255L13.776 14.4856C14.0505 14.7603 14.4956 14.7603 14.7703 14.4858L15.8707 13.3853L17.5392 15.0538L15.1074 17.4854Z" fill="currentColor"/>
<path d="M20.4851 3.51471C18.2186 1.24841 15.2053 0.000183105 12 0C8.79474 0.000183105 5.78119 1.24841 3.51471 3.51471C1.24823 5.78137 -0.000183085 8.79474 2.01393e-08 11.9998C2.01393e-08 14.3377 0.668884 16.5914 1.93726 18.5387L0.961487 22.335C0.899597 22.5758 0.969543 22.8314 1.14532 23.0072C1.32111 23.183 1.5769 23.2529 1.8175 23.191L5.67627 22.1993C7.57379 23.3784 9.75311 24 11.9998 24C15.2051 24 18.2186 22.7518 20.4851 20.4853C22.7518 18.2186 24 15.2053 24 11.9998C23.9998 8.79456 22.7516 5.78119 20.4851 3.51471ZM11.9998 22.5938C9.92322 22.5938 7.91217 21.9924 6.18402 20.855C6.06812 20.7786 5.93353 20.7391 5.7973 20.7391C5.73889 20.7391 5.68011 20.7464 5.62244 20.7612L2.61969 21.533L3.37775 18.5837C3.42847 18.3865 3.39111 18.1769 3.27539 18.0093C2.05261 16.2378 1.40625 14.1597 1.40625 11.9998C1.40607 9.17029 2.50818 6.51013 4.50897 4.50916C6.50995 2.50836 9.17029 1.40625 12 1.40625C17.8412 1.40643 22.5936 6.15875 22.5938 11.9998C22.5938 17.8412 17.8412 22.5938 11.9998 22.5938Z" fill="currentColor"/>
</svg>
