<svg width="397" height="13" viewBox="0 0 397 13" fill="none" xmlns="http://www.w3.org/2000/svg">
<line x1="396.5" y1="12.2773" x2="396.5" y2="-0.000433906" stroke="#FFDD57"/>
<line x1="384.5" y1="7.22266" x2="384.5" y2="0.000433906" stroke="#FFDD57"/>
<line x1="372.5" y1="7.22266" x2="372.5" y2="0.000433906" stroke="#FFDD57"/>
<line x1="392.5" y1="7.22266" x2="392.5" y2="0.000433906" stroke="#FFDD57"/>
<line x1="380.5" y1="7.22266" x2="380.5" y2="0.000433906" stroke="#FFDD57"/>
<line x1="368.5" y1="7.22266" x2="368.5" y2="0.000433906" stroke="#FFDD57"/>
<line x1="388.5" y1="7.22266" x2="388.5" y2="0.000433906" stroke="#FFDD57"/>
<line x1="376.5" y1="7.22266" x2="376.5" y2="0.000433906" stroke="#FFDD57"/>
<line x1="364.5" y1="7.22266" x2="364.5" y2="0.000433906" stroke="#FFDD57"/>
<line x1="360.5" y1="13" x2="360.5" y2="2.18558e-08" stroke="#FFDD57"/>
<line x1="356.5" y1="7.22266" x2="356.5" y2="0.000433906" stroke="#FFDD57"/>
<line x1="344.5" y1="7.22266" x2="344.5" y2="0.000433906" stroke="#FFDD57"/>
<line x1="332.5" y1="7.22266" x2="332.5" y2="0.000433906" stroke="#FFDD57"/>
<line x1="352.5" y1="7.22266" x2="352.5" y2="0.000433906" stroke="#FFDD57"/>
<line x1="340.5" y1="7.22266" x2="340.5" y2="0.000433906" stroke="#FFDD57"/>
<line x1="328.5" y1="7.22266" x2="328.5" y2="0.000433906" stroke="#FFDD57"/>
<line x1="348.5" y1="7.22266" x2="348.5" y2="0.000433906" stroke="#FFDD57"/>
<line x1="336.5" y1="7.22266" x2="336.5" y2="0.000433906" stroke="#FFDD57"/>
<line x1="324.5" y1="7.22266" x2="324.5" y2="0.000433906" stroke="#FFDD57"/>
<line x1="320.5" y1="13" x2="320.5" y2="2.18558e-08" stroke="#FFDD57"/>
<line x1="196.5" y1="7.22266" x2="196.5" y2="0.000433906" stroke="#FFDD57"/>
<line x1="184.5" y1="7.22266" x2="184.5" y2="0.000433906" stroke="#FFDD57"/>
<line x1="172.5" y1="7.22266" x2="172.5" y2="0.000433906" stroke="#FFDD57"/>
<line x1="192.5" y1="7.22266" x2="192.5" y2="0.000433906" stroke="#FFDD57"/>
<line x1="180.5" y1="7.22266" x2="180.5" y2="0.000433906" stroke="#FFDD57"/>
<line x1="168.5" y1="7.22266" x2="168.5" y2="0.000433906" stroke="#FFDD57"/>
<line x1="188.5" y1="7.22266" x2="188.5" y2="0.000433906" stroke="#FFDD57"/>
<line x1="176.5" y1="7.22266" x2="176.5" y2="0.000433906" stroke="#FFDD57"/>
<line x1="164.5" y1="7.22266" x2="164.5" y2="0.000433906" stroke="#FFDD57"/>
<line x1="160.5" y1="13" x2="160.5" y2="2.18558e-08" stroke="#FFDD57"/>
<line x1="276.5" y1="7.22266" x2="276.5" y2="0.000433906" stroke="#FFDD57"/>
<line x1="264.5" y1="7.22266" x2="264.5" y2="0.000433906" stroke="#FFDD57"/>
<line x1="252.5" y1="7.22266" x2="252.5" y2="0.000433906" stroke="#FFDD57"/>
<line x1="272.5" y1="7.22266" x2="272.5" y2="0.000433906" stroke="#FFDD57"/>
<line x1="260.5" y1="7.22266" x2="260.5" y2="0.000433906" stroke="#FFDD57"/>
<line x1="248.5" y1="7.22266" x2="248.5" y2="0.000433906" stroke="#FFDD57"/>
<line x1="268.5" y1="7.22266" x2="268.5" y2="0.000433906" stroke="#FFDD57"/>
<line x1="256.5" y1="7.22266" x2="256.5" y2="0.000433906" stroke="#FFDD57"/>
<line x1="244.5" y1="7.22266" x2="244.5" y2="0.000433906" stroke="#FFDD57"/>
<line x1="240.5" y1="13" x2="240.5" y2="2.18558e-08" stroke="#FFDD57"/>
<line x1="116.5" y1="7.22266" x2="116.5" y2="0.000433906" stroke="#FFDD57"/>
<line x1="104.5" y1="7.22266" x2="104.5" y2="0.000433906" stroke="#FFDD57"/>
<line x1="92.5" y1="7.22266" x2="92.5" y2="0.000433906" stroke="#FFDD57"/>
<line x1="112.5" y1="7.22266" x2="112.5" y2="0.000433906" stroke="#FFDD57"/>
<line x1="100.5" y1="7.22266" x2="100.5" y2="0.000433906" stroke="#FFDD57"/>
<line x1="88.5" y1="7.22266" x2="88.5" y2="0.000433906" stroke="#FFDD57"/>
<line x1="108.5" y1="7.22266" x2="108.5" y2="0.000433906" stroke="#FFDD57"/>
<line x1="96.5" y1="7.22266" x2="96.5" y2="0.000433906" stroke="#FFDD57"/>
<line x1="84.5" y1="7.22266" x2="84.5" y2="0.000433906" stroke="#FFDD57"/>
<line x1="80.5" y1="13" x2="80.5" y2="2.18558e-08" stroke="#FFDD57"/>
<line x1="316.5" y1="7.22266" x2="316.5" y2="0.000433906" stroke="#FFDD57"/>
<line x1="304.5" y1="7.22266" x2="304.5" y2="0.000433906" stroke="#FFDD57"/>
<line x1="292.5" y1="7.22266" x2="292.5" y2="0.000433906" stroke="#FFDD57"/>
<line x1="312.5" y1="7.22266" x2="312.5" y2="0.000433906" stroke="#FFDD57"/>
<line x1="300.5" y1="7.22266" x2="300.5" y2="0.000433906" stroke="#FFDD57"/>
<line x1="288.5" y1="7.22266" x2="288.5" y2="0.000433906" stroke="#FFDD57"/>
<line x1="308.5" y1="7.22266" x2="308.5" y2="0.000433906" stroke="#FFDD57"/>
<line x1="296.5" y1="7.22266" x2="296.5" y2="0.000433906" stroke="#FFDD57"/>
<line x1="284.5" y1="7.22266" x2="284.5" y2="0.000433906" stroke="#FFDD57"/>
<line x1="280.5" y1="13" x2="280.5" y2="2.18558e-08" stroke="#FFDD57"/>
<line x1="156.5" y1="7.22266" x2="156.5" y2="0.000433906" stroke="#FFDD57"/>
<line x1="144.5" y1="7.22266" x2="144.5" y2="0.000433906" stroke="#FFDD57"/>
<line x1="132.5" y1="7.22266" x2="132.5" y2="0.000433906" stroke="#FFDD57"/>
<line x1="152.5" y1="7.22266" x2="152.5" y2="0.000433906" stroke="#FFDD57"/>
<line x1="140.5" y1="7.22266" x2="140.5" y2="0.000433906" stroke="#FFDD57"/>
<line x1="128.5" y1="7.22266" x2="128.5" y2="0.000433906" stroke="#FFDD57"/>
<line x1="148.5" y1="7.22266" x2="148.5" y2="0.000433906" stroke="#FFDD57"/>
<line x1="136.5" y1="7.22266" x2="136.5" y2="0.000433906" stroke="#FFDD57"/>
<line x1="124.5" y1="7.22266" x2="124.5" y2="0.000433906" stroke="#FFDD57"/>
<line x1="120.5" y1="13" x2="120.5" y2="2.18558e-08" stroke="#FFDD57"/>
<line x1="236.5" y1="7.22266" x2="236.5" y2="0.000433906" stroke="#FFDD57"/>
<line x1="224.5" y1="7.22266" x2="224.5" y2="0.000433906" stroke="#FFDD57"/>
<line x1="212.5" y1="7.22266" x2="212.5" y2="0.000433906" stroke="#FFDD57"/>
<line x1="232.5" y1="7.22266" x2="232.5" y2="0.000433906" stroke="#FFDD57"/>
<line x1="220.5" y1="7.22266" x2="220.5" y2="0.000433906" stroke="#FFDD57"/>
<line x1="208.5" y1="7.22266" x2="208.5" y2="0.000433906" stroke="#FFDD57"/>
<line x1="228.5" y1="7.22266" x2="228.5" y2="0.000433906" stroke="#FFDD57"/>
<line x1="216.5" y1="7.22266" x2="216.5" y2="0.000433906" stroke="#FFDD57"/>
<line x1="204.5" y1="7.22266" x2="204.5" y2="0.000433906" stroke="#FFDD57"/>
<line x1="200.5" y1="13" x2="200.5" y2="2.18558e-08" stroke="#FFDD57"/>
<line x1="76.5" y1="7.22266" x2="76.5" y2="0.000433906" stroke="#FFDD57"/>
<line x1="64.5" y1="7.22266" x2="64.5" y2="0.000433906" stroke="#FFDD57"/>
<line x1="52.5" y1="7.22266" x2="52.5" y2="0.000433906" stroke="#FFDD57"/>
<line x1="72.5" y1="7.22266" x2="72.5" y2="0.000433906" stroke="#FFDD57"/>
<line x1="60.5" y1="7.22266" x2="60.5" y2="0.000433906" stroke="#FFDD57"/>
<line x1="48.5" y1="7.22266" x2="48.5" y2="0.000433906" stroke="#FFDD57"/>
<line x1="68.5" y1="7.22266" x2="68.5" y2="0.000433906" stroke="#FFDD57"/>
<line x1="56.5" y1="7.22266" x2="56.5" y2="0.000433906" stroke="#FFDD57"/>
<line x1="44.5" y1="7.22266" x2="44.5" y2="0.000433906" stroke="#FFDD57"/>
<line x1="40.5" y1="13" x2="40.5" y2="2.18558e-08" stroke="#FFDD57"/>
<line x1="36.5" y1="7.22266" x2="36.5" y2="0.000433906" stroke="#FFDD57"/>
<line x1="24.5" y1="7.22266" x2="24.5" y2="0.000433906" stroke="#FFDD57"/>
<line x1="12.5" y1="7.22266" x2="12.5" y2="0.000433906" stroke="#FFDD57"/>
<line x1="32.5" y1="7.22266" x2="32.5" y2="0.000433906" stroke="#FFDD57"/>
<line x1="20.5" y1="7.22266" x2="20.5" y2="0.000433906" stroke="#FFDD57"/>
<line x1="8.5" y1="7.22266" x2="8.5" y2="0.000433906" stroke="#FFDD57"/>
<line x1="28.5" y1="7.22266" x2="28.5" y2="0.000433906" stroke="#FFDD57"/>
<line x1="16.5" y1="7.22266" x2="16.5" y2="0.000433906" stroke="#FFDD57"/>
<line x1="4.5" y1="7.22266" x2="4.5" y2="0.000433906" stroke="#FFDD57"/>
<line x1="0.5" y1="13" x2="0.499999" y2="2.18558e-08" stroke="#FFDD57"/>
</svg>
