<svg width="69" height="37" viewBox="0 0 69 37" fill="none" xmlns="http://www.w3.org/2000/svg">
<ellipse cx="34.5067" cy="18.7836" rx="30.8036" ry="13.5536" fill="#FFDD57"/>
<path fill-rule="evenodd" clip-rule="evenodd" d="M25.6875 13.5975L34.4963 18.9036L43.3051 13.5975L34.4963 8.2915L25.6875 13.5975Z" fill="#CFDFE8"/>
<path fill-rule="evenodd" clip-rule="evenodd" d="M25.6875 13.5977V23.9692L34.4963 29.2752V18.9038L25.6875 13.5977Z" fill="#FFDD57"/>
<path fill-rule="evenodd" clip-rule="evenodd" d="M34.5 18.9038V29.2752L43.3088 23.9692V13.5977L34.5 18.9038Z" fill="#FFDD57"/>
<path fill-rule="evenodd" clip-rule="evenodd" d="M23.2501 3.86808C18.7387 7.2794 15.8203 12.6886 15.8203 18.7815C15.8203 24.8744 18.7388 30.2875 23.2501 33.6949C30.6263 36.0366 38.3771 36.0366 45.7496 33.6949C50.2648 30.2874 53.1833 24.8744 53.1833 18.7815C53.1833 12.6886 50.2648 7.27927 45.7496 3.86808C38.3771 1.5303 30.6265 1.5303 23.2501 3.86808ZM25.6911 13.5978L34.4999 8.29176L43.3087 13.5978V23.9692L34.4999 29.2752L25.6911 23.9692V13.5978Z" fill="#FFDD57"/>
<path d="M67.7609 19.6237C68.1551 19.1314 68.1551 18.4317 67.7609 17.9394C63.2912 12.3551 58.0718 8.02765 52.2482 5.07737C46.5999 2.21589 40.629 0.765137 34.4996 0.765137C34.4992 0.765137 34.4978 0.765137 34.4974 0.765137C28.3683 0.765406 22.3971 2.2167 16.7496 5.07831C10.927 8.02873 5.70904 12.3558 1.24075 17.9395C0.846833 18.4317 0.846833 19.1314 1.24075 19.6236C5.70904 25.2073 10.927 29.5344 16.7494 32.4848C22.3969 35.3465 28.3681 36.7977 34.4973 36.798H34.4994C40.6284 36.798 46.6 35.3471 52.2481 32.4857C58.0718 29.5354 63.2912 25.2078 67.7609 19.6237ZM45.0857 32.5038C41.6605 33.559 38.1114 34.1028 34.4975 34.1028C30.8853 34.1026 27.338 33.559 23.9144 32.5043C21.208 30.4161 19.1969 27.6177 18.0955 24.3966C17.8548 23.6921 17.0888 23.3168 16.3844 23.5572C15.6801 23.7981 15.3044 24.5642 15.5452 25.2684C16.1349 26.9935 16.952 28.6123 17.9677 30.0946C12.8539 27.5014 8.13253 23.6911 4.0335 18.7814C8.1328 13.8714 12.8546 10.0609 17.9688 7.4677C16.9532 8.94985 16.1359 10.5687 15.5453 12.2941C15.3042 12.9982 15.6797 13.7645 16.384 14.0055C16.5286 14.0549 16.6757 14.0785 16.8205 14.0785C17.3806 14.0785 17.9038 13.7265 18.0954 13.1668C19.1984 9.94429 21.2097 7.14561 23.9144 5.05863C27.338 4.00396 30.8853 3.46045 34.4975 3.46018H34.4996C38.1124 3.46018 41.6603 4.00369 45.0847 5.0585C49.3763 8.37185 51.8349 13.3618 51.8349 18.7813C51.8347 24.2045 49.3766 29.1942 45.0857 32.5038ZM52.3596 27.8569C53.7999 25.0291 54.53 21.9756 54.53 18.7815C54.53 15.5877 53.7998 12.5348 52.3596 9.70737C51.9644 8.93139 51.5151 8.18169 51.0201 7.46218C56.1389 10.0555 60.8652 13.868 64.9683 18.7814C60.8658 23.6943 56.1401 27.5063 51.0221 30.0994C51.5161 29.381 51.9648 28.6321 52.3596 27.8569Z" fill="black"/>
<path d="M44.0043 12.4432L35.1955 7.1371C34.7675 6.87943 34.2326 6.87943 33.8047 7.1371L24.996 12.4432C24.5971 12.6836 24.3438 13.1316 24.3438 13.5976V23.9691C24.3438 24.4415 24.5913 24.8797 24.996 25.1235L33.8047 30.4296C34.2271 30.6843 34.7733 30.6835 35.1955 30.4296L44.0043 25.1235C44.409 24.8797 44.6566 24.4415 44.6566 23.9691V13.5976C44.6566 13.5906 44.6552 13.5837 44.6552 13.5766C44.6477 13.1175 44.3982 12.6804 44.0043 12.4432ZM34.5 9.86476L40.6969 13.5976L34.5 17.3305L28.303 13.5976L34.5 9.86476ZM27.0389 15.9826L33.1523 19.665V26.8898L27.0389 23.2074V15.9826ZM41.9613 23.2075L35.8477 26.89V19.665L41.9613 15.9826V23.2075Z" fill="black"/>
<path d="M15.8164 17.4338C15.0722 17.4338 14.4688 18.0372 14.4688 18.7815V18.7892C14.4688 19.5335 15.0722 20.1331 15.8164 20.1331C16.5606 20.1331 17.1641 19.5259 17.1641 18.7816C17.1641 18.0373 16.5606 17.4338 15.8164 17.4338Z" fill="black"/>
</svg>
