<svg width="44" height="51" viewBox="0 0 44 51" fill="none" xmlns="http://www.w3.org/2000/svg">
<rect x="2" y="1.2832" width="40" height="47" fill="#FFDD57"/>
<rect x="8" y="8.2832" width="27" height="4" fill="#CFDFE8"/>
<path d="M43.9766 45.8887V4.67773C43.9766 2.25464 42.0051 0.283203 39.582 0.283203H4.42578C2.00269 0.283203 0.03125 2.25464 0.03125 4.67773V45.8887C0.03125 48.3118 2.00269 50.2832 4.42578 50.2832H39.582C42.0051 50.2832 43.9766 48.3118 43.9766 45.8887ZM41.0469 45.8887C41.0469 46.6962 40.3896 47.3535 39.582 47.3535H4.42578C3.61821 47.3535 2.96094 46.6962 2.96094 45.8887V4.67773C2.96094 3.87016 3.61821 3.21289 4.42578 3.21289H39.582C40.3896 3.21289 41.0469 3.87016 41.0469 4.67773V45.8887Z" fill="black"/>
<path d="M36.6523 6.14258H7.35547C6.54637 6.14258 5.89062 6.79832 5.89062 7.60742V13.4668C5.89062 14.2759 6.54637 14.9316 7.35547 14.9316H36.6523C37.4614 14.9316 38.1172 14.2759 38.1172 13.4668V7.60742C38.1172 6.79832 37.4614 6.14258 36.6523 6.14258ZM35.1875 12.002H8.82031V9.07227H35.1875V12.002Z" fill="black"/>
<path d="M36.6445 17.8613H33.7148C32.9057 17.8613 32.25 18.5171 32.25 19.3262C32.25 20.1353 32.9057 20.791 33.7148 20.791H36.6445C37.4536 20.791 38.1094 20.1353 38.1094 19.3262C38.1094 18.5171 37.4536 17.8613 36.6445 17.8613Z" fill="black"/>
<path d="M27.8633 17.8613H24.9336C24.1245 17.8613 23.4688 18.5171 23.4688 19.3262C23.4688 20.1353 24.1245 20.791 24.9336 20.791H27.8633C28.6724 20.791 29.3281 20.1353 29.3281 19.3262C29.3281 18.5171 28.6724 17.8613 27.8633 17.8613Z" fill="black"/>
<path d="M13.2148 23.7207H7.35547C6.54637 23.7207 5.89062 24.3764 5.89062 25.1855V31.1426C5.89062 31.9517 6.54637 32.6074 7.35547 32.6074H13.2148C14.0239 32.6074 14.6797 31.9517 14.6797 31.1426V25.1855C14.6797 24.3764 14.0239 23.7207 13.2148 23.7207ZM11.75 29.6777H8.82031V26.6504H11.75V29.6777Z" fill="black"/>
<path d="M24.9336 23.7207H19.0742C18.2651 23.7207 17.6094 24.3764 17.6094 25.1855V31.1426C17.6094 31.9517 18.2651 32.6074 19.0742 32.6074H24.9336C25.7427 32.6074 26.3984 31.9517 26.3984 31.1426V25.1855C26.3984 24.3764 25.7427 23.7207 24.9336 23.7207ZM23.4688 29.6777H20.5391V26.6504H23.4688V29.6777Z" fill="black"/>
<path d="M13.2148 35.5371H7.35547C6.54637 35.5371 5.89062 36.1929 5.89062 37.002V42.8613C5.89062 43.6704 6.54637 44.3262 7.35547 44.3262H13.2148C14.0239 44.3262 14.6797 43.6704 14.6797 42.8613V37.002C14.6797 36.1929 14.0239 35.5371 13.2148 35.5371ZM11.75 41.3965H8.82031V38.4668H11.75V41.3965Z" fill="black"/>
<path d="M24.9336 35.5371H19.0742C18.2651 35.5371 17.6094 36.1929 17.6094 37.002V42.8613C17.6094 43.6704 18.2651 44.3262 19.0742 44.3262H24.9336C25.7427 44.3262 26.3984 43.6704 26.3984 42.8613V37.002C26.3984 36.1929 25.7427 35.5371 24.9336 35.5371ZM23.4688 41.3965H20.5391V38.4668H23.4688V41.3965Z" fill="black"/>
<path d="M36.6523 23.7207H30.793C29.9839 23.7207 29.3281 24.3764 29.3281 25.1855V42.8613C29.3281 43.6704 29.9839 44.3262 30.793 44.3262H36.6523C37.4614 44.3262 38.1172 43.6704 38.1172 42.8613V25.1855C38.1172 24.3764 37.4614 23.7207 36.6523 23.7207ZM35.1875 41.3965H32.2578V26.6504H35.1875V41.3965Z" fill="black"/>
</svg>
