<svg width="62" height="64" viewBox="0 0 62 64" fill="none" xmlns="http://www.w3.org/2000/svg">
<path d="M13.0725 55.7831L20.3973 37.9139L32.8886 43.0343L25.5637 60.9034L22.0153 55.2256C21.5032 54.4062 20.5251 54.0052 19.5852 54.2295L13.0725 55.7831ZM25.8221 61.3169L25.8219 61.3164L25.8221 61.3169Z" fill="#FFDD57" stroke="black" stroke-width="2.5"/>
<path d="M50.4431 55.7831L43.1183 37.9139L30.627 43.0343L37.9519 60.9034L41.5003 55.2256C42.0124 54.4062 42.9905 54.0052 43.9304 54.2295L50.4431 55.7831ZM37.6935 61.3169L37.6938 61.3164L37.6935 61.3169Z" fill="#FFDD57" stroke="black" stroke-width="2.5"/>
<path d="M49.5018 25.7586L50.7481 25.8546L49.5018 25.7586C49.4689 26.1856 49.5586 26.6132 49.7603 26.991L50.863 26.4024L49.7603 26.9911L53.218 33.4679L48.0805 38.7131L48.9735 39.5878L48.0805 38.7131C47.7808 39.0191 47.5747 39.4043 47.4863 39.8234L45.9718 47.0075L38.6647 47.7233C38.2384 47.765 37.8329 47.9276 37.4959 48.1919L31.7178 52.7217L25.6602 48.5731L24.9539 49.6044L25.6602 48.5731C25.3068 48.3311 24.8917 48.195 24.4636 48.1807L24.422 49.43L24.4636 48.1807L17.1256 47.9367L15.1519 40.8649L13.9479 41.201L15.1519 40.8649C15.0367 40.4524 14.8062 40.0813 14.4874 39.7952L9.02307 34.8915L12.0567 28.2055C12.2337 27.8155 12.2957 27.383 12.2354 26.959L11.2015 19.6901L17.8231 16.5184C18.2093 16.3333 18.5348 16.0419 18.7611 15.6783L22.6415 9.44542L29.7527 11.272C30.1675 11.3785 30.6042 11.3645 31.0113 11.2315L37.9902 8.95101L42.2636 14.9212C42.5129 15.2695 42.8564 15.5394 43.2538 15.6992L50.0658 18.4383L49.5018 25.7586ZM31.869 52.8253L31.8686 52.825L31.869 52.8253Z" fill="#FFDD57" stroke="black" stroke-width="2.5"/>
<circle cx="30.9961" cy="30.2832" r="12.75" fill="#CFDFE8" stroke="black" stroke-width="2.5"/>
<path d="M30.4671 28.9902C32.1444 28.9902 33.3854 29.3189 34.1901 29.9762C34.9948 30.6222 35.3971 31.5062 35.3971 32.6282C35.3971 33.3422 35.2214 33.9882 34.8701 34.5662C34.5188 35.1442 33.9918 35.6032 33.2891 35.9432C32.5864 36.2832 31.7194 36.4532 30.6881 36.4532C29.8381 36.4532 29.0164 36.3342 28.2231 36.0962C27.4298 35.8469 26.7611 35.5069 26.2171 35.0762L27.1521 33.3592C27.5941 33.7219 28.1211 34.0109 28.7331 34.2262C29.3564 34.4302 29.9968 34.5322 30.6541 34.5322C31.4361 34.5322 32.0481 34.3735 32.4901 34.0562C32.9434 33.7275 33.1701 33.2799 33.1701 32.7132C33.1701 32.1012 32.9264 31.6422 32.4391 31.3362C31.9631 31.0189 31.1414 30.8602 29.9741 30.8602H27.1011L27.7131 24.3832H34.7001V26.2362H29.5831L29.3281 28.9902H30.4671Z" fill="black"/>
</svg>
