<svg width="91" height="73" viewBox="0 0 91 73" fill="none" xmlns="http://www.w3.org/2000/svg">
<path fill-rule="evenodd" clip-rule="evenodd" d="M65.9092 16.0454H25.0186V32.8398H18.4468V67.8889H72.4807V32.8398H65.9092V16.0454Z" fill="#FFDD57"/>
<mask id="path-2-inside-1_718_8095" fill="white">
<rect x="27.209" y="67.8887" width="10.9528" height="5.11132" rx="2"/>
</mask>
<rect x="27.209" y="67.8887" width="10.9528" height="5.11132" rx="2" fill="#D9D9D9" stroke="black" stroke-width="4.8" stroke-linejoin="round" mask="url(#path-2-inside-1_718_8095)"/>
<mask id="path-3-inside-2_718_8095" fill="white">
<rect x="52.0356" y="67.8887" width="10.9528" height="5.11132" rx="2"/>
</mask>
<rect x="52.0356" y="67.8887" width="10.9528" height="5.11132" rx="2" fill="#D9D9D9" stroke="black" stroke-width="4.8" stroke-linejoin="round" mask="url(#path-3-inside-2_718_8095)"/>
<path d="M24 32V18C24 16.8954 24.8954 16 26 16H64C65.1046 16 66 16.8954 66 18V32" stroke="black" stroke-width="2.4" stroke-linejoin="round"/>
<path d="M30.8176 41.8163V35C30.8176 33.8954 29.9221 33 28.8176 33H21C19.8954 33 19 33.8954 19 35V67C19 68.1046 19.8954 69 21 69H70C71.1046 69 72 68.1046 72 67V35C72 33.8954 71.1046 33 70 33H61.4662C60.3616 33 59.4662 33.8954 59.4662 35V41.8163" stroke="black" stroke-width="2.4" stroke-linecap="round" stroke-linejoin="round"/>
<mask id="path-6-inside-3_718_8095" fill="white">
<path d="M26 52C26 49.2386 28.2386 47 31 47H60C62.7614 47 65 49.2386 65 52V57C65 58.1046 64.1046 59 63 59H28C26.8954 59 26 58.1046 26 57V52Z"/>
</mask>
<path d="M26 52C26 49.2386 28.2386 47 31 47H60C62.7614 47 65 49.2386 65 52V57C65 58.1046 64.1046 59 63 59H28C26.8954 59 26 58.1046 26 57V52Z" fill="#D9D9D9" stroke="black" stroke-width="4.8" stroke-linejoin="round" mask="url(#path-6-inside-3_718_8095)"/>
<line x1="8.2" y1="1.2" x2="8.2" y2="65.8" stroke="black" stroke-width="2.4" stroke-linecap="round" stroke-linejoin="round"/>
<line x1="82.2" y1="1.2" x2="82.2" y2="65.8" stroke="black" stroke-width="2.4" stroke-linecap="round" stroke-linejoin="round"/>
<path d="M2 71L7.28058 66.938C7.99948 66.385 9.00052 66.385 9.71942 66.938L15 71" stroke="black" stroke-width="2.4" stroke-linecap="round" stroke-linejoin="round"/>
<path d="M76 71L81.2806 66.938C81.9995 66.385 83.0005 66.385 83.7194 66.938L89 71" stroke="black" stroke-width="2.4" stroke-linecap="round" stroke-linejoin="round"/>
<rect x="33" y="20" width="24" height="23" rx="5" fill="#FFDD57"/>
<rect x="29" y="20" width="32" height="11" rx="5" fill="#FFDD57"/>
<mask id="path-13-inside-4_718_8095" fill="white">
<rect x="36" y="23" width="6" height="5" rx="2"/>
</mask>
<rect x="36" y="23" width="6" height="5" rx="2" fill="#D9D9D9" stroke="black" stroke-width="4.8" stroke-linejoin="round" mask="url(#path-13-inside-4_718_8095)"/>
<mask id="path-14-inside-5_718_8095" fill="white">
<rect x="36" y="31" width="6" height="6" rx="2"/>
</mask>
<rect x="36" y="31" width="6" height="6" rx="2" fill="#D9D9D9" stroke="black" stroke-width="4.8" stroke-linejoin="round" mask="url(#path-14-inside-5_718_8095)"/>
<mask id="path-15-inside-6_718_8095" fill="white">
<rect x="48" y="23" width="6" height="5" rx="2"/>
</mask>
<rect x="48" y="23" width="6" height="5" rx="2" fill="#D9D9D9" stroke="black" stroke-width="4.8" stroke-linejoin="round" mask="url(#path-15-inside-6_718_8095)"/>
<mask id="path-16-inside-7_718_8095" fill="white">
<rect x="48" y="31" width="6" height="6" rx="2"/>
</mask>
<rect x="48" y="31" width="6" height="6" rx="2" fill="#D9D9D9" stroke="black" stroke-width="4.8" stroke-linejoin="round" mask="url(#path-16-inside-7_718_8095)"/>
<mask id="path-17-inside-8_718_8095" fill="white">
<rect x="1" width="15" height="24" rx="2"/>
</mask>
<rect x="1" width="15" height="24" rx="2" fill="#F2F2F2" stroke="black" stroke-width="4.8" stroke-linejoin="round" mask="url(#path-17-inside-8_718_8095)"/>
<mask id="path-18-inside-9_718_8095" fill="white">
<rect x="75" width="15" height="24" rx="2"/>
</mask>
<rect x="75" width="15" height="24" rx="2" fill="#F2F2F2" stroke="black" stroke-width="4.8" stroke-linejoin="round" mask="url(#path-18-inside-9_718_8095)"/>
</svg>
