<svg width="107" height="103" viewBox="0 0 107 103" fill="none" xmlns="http://www.w3.org/2000/svg">
<rect x="74.8281" y="34.8142" width="5.92641" height="17.0384" fill="#E4EAF8"/>
<rect x="25.1953" y="34.8142" width="5.92641" height="17.0384" fill="#E4EAF8"/>
<rect x="42.2344" y="54.0752" width="5.1856" height="14.0752" fill="#FFDD57"/>
<rect x="55.5703" y="51.8528" width="5.92641" height="33.336" fill="#FFDD57"/>
<g clip-path="url(#clip0_226_16385)">
<path d="M77.4307 56.7339C76.7354 56.7339 76.1719 57.2977 76.1719 57.9927V60.9649C76.1719 61.6602 76.7354 62.2237 77.4307 62.2237C78.1256 62.2237 78.6894 61.6602 78.6894 60.9649V57.9927C78.6894 57.2977 78.1256 56.7339 77.4307 56.7339Z" fill="black"/>
<path d="M74.4093 55.3186C73.8051 54.9747 73.0364 55.1855 72.6926 55.7897L71.1965 58.4177C70.8523 59.0219 71.0634 59.7906 71.6675 60.1344C71.8639 60.2462 72.0779 60.2993 72.289 60.2993C72.7267 60.2993 73.1522 60.0708 73.3842 59.6634L74.8804 57.0353C75.2242 56.4312 75.0134 55.6625 74.4093 55.3186Z" fill="black"/>
<path d="M82.1808 55.7897C81.8369 55.1855 81.0685 54.9747 80.4644 55.3186C79.8602 55.6625 79.6491 56.4312 79.9933 57.0353L81.4894 59.6631C81.7212 60.0708 82.1467 60.2993 82.5843 60.2993C82.7954 60.2993 83.0095 60.2462 83.2062 60.1344C83.81 59.7902 84.0211 59.0219 83.6769 58.4177L82.1808 55.7897Z" fill="black"/>
<path d="M73.8994 53.607H80.9686C81.6635 53.607 82.2274 53.0435 82.2274 52.3482V34.2178C82.2274 33.5229 81.6635 32.959 80.9686 32.959H78.6929V18.873C78.6929 18.1778 78.1291 17.6143 77.4342 17.6143C76.7389 17.6143 76.1754 18.1778 76.1754 18.873V32.959H73.8994C73.2045 32.959 72.6406 33.5229 72.6406 34.2178V52.3482C72.6406 53.0435 73.2045 53.607 73.8994 53.607ZM75.1582 35.4766H79.7098V51.0894H75.1582V35.4766Z" fill="black"/>
</g>
<g clip-path="url(#clip1_226_16385)">
<path d="M28.5068 56.7339C29.2021 56.7339 29.7656 57.2977 29.7656 57.9927V60.9649C29.7656 61.6602 29.2021 62.2237 28.5068 62.2237C27.8119 62.2237 27.2481 61.6602 27.2481 60.9649V57.9927C27.2481 57.2977 27.8119 56.7339 28.5068 56.7339Z" fill="black"/>
<path d="M31.536 55.3186C32.1402 54.9747 32.9089 55.1855 33.2527 55.7897L34.7489 58.4177C35.0931 59.0219 34.882 59.7906 34.2778 60.1344C34.0814 60.2462 33.8674 60.2993 33.6563 60.2993C33.2187 60.2993 32.7932 60.0708 32.5611 59.6634L31.065 57.0353C30.7211 56.4312 30.9319 55.6625 31.536 55.3186Z" fill="black"/>
<path d="M23.7567 55.7897C24.1006 55.1855 24.869 54.9747 25.4731 55.3186C26.0773 55.6625 26.2884 56.4312 25.9442 57.0353L24.4481 59.6631C24.2163 60.0708 23.7908 60.2993 23.3532 60.2993C23.1421 60.2993 22.928 60.2462 22.7313 60.1344C22.1275 59.7902 21.9164 59.0219 22.2606 58.4177L23.7567 55.7897Z" fill="black"/>
<path d="M32.0381 53.6068H24.9689C24.274 53.6068 23.7101 53.0433 23.7101 52.348V34.2176C23.7101 33.5227 24.274 32.9588 24.9689 32.9588H27.2446V22.2219C27.2446 21.5266 27.8084 20.9631 28.5033 20.9631C29.1986 20.9631 29.7621 21.5266 29.7621 22.2219V32.9588H32.0381C32.733 32.9588 33.2969 33.5227 33.2969 34.2176V52.348C33.2969 53.0433 32.733 53.6068 32.0381 53.6068ZM30.7793 35.4764H26.2277V51.0892H30.7793V35.4764Z" fill="black"/>
</g>
<path d="M58.874 88.9912C59.5693 88.9912 60.1328 89.555 60.1328 90.25V93.2222C60.1328 93.9175 59.5693 94.481 58.874 94.481C58.1791 94.481 57.6152 93.9175 57.6152 93.2222V90.25C57.6152 89.555 58.1791 88.9912 58.874 88.9912Z" fill="black"/>
<path d="M61.9032 87.5759C62.5074 87.2321 63.2761 87.4429 63.6199 88.047L65.116 90.675C65.4602 91.2792 65.2491 92.0479 64.645 92.3918C64.4486 92.5035 64.2346 92.5566 64.0235 92.5566C63.5858 92.5566 63.1603 92.3282 62.9283 91.9207L61.4321 89.2927C61.0883 88.6885 61.2991 87.9198 61.9032 87.5759Z" fill="black"/>
<path d="M54.1317 88.047C54.4756 87.4429 55.244 87.2321 55.8481 87.5759C56.4523 87.9198 56.6634 88.6885 56.3192 89.2927L54.8231 91.9204C54.5913 92.3282 54.1658 92.5566 53.7282 92.5566C53.5171 92.5566 53.303 92.5035 53.1063 92.3918C52.5025 92.0476 52.2914 91.2792 52.6356 90.675L54.1317 88.047Z" fill="black"/>
<path d="M62.4131 86.2021H55.3439C54.649 86.2021 54.0851 85.6386 54.0851 84.9433V52.7377C54.0851 52.0427 54.649 51.4789 55.3439 51.4789H57.6196V14.6865C57.6196 13.9912 58.1834 13.4277 58.8783 13.4277C59.5736 13.4277 60.1371 13.9912 60.1371 14.6865V51.4789H62.4131C63.108 51.4789 63.6719 52.0427 63.6719 52.7377V84.9433C63.6719 85.6386 63.108 86.2021 62.4131 86.2021ZM61.1543 53.9965H56.6027V83.6845H61.1543V53.9965Z" fill="black"/>
<path d="M47.1943 69.4544H42.3152C41.6203 69.4544 41.0565 68.8909 41.0565 68.1956V54.31C41.0565 53.6151 41.6203 53.0512 42.3152 53.0512H43.496L43.4956 15.4924C43.4956 14.7971 44.0594 14.2336 44.7543 14.2336C45.4496 14.2336 46.0131 14.7971 46.0131 15.4924L46.0136 53.0512H47.1943C47.8896 53.0512 48.4531 53.6151 48.4531 54.31V68.1956C48.4531 68.8909 47.8896 69.4544 47.1943 69.4544ZM43.574 55.5688V66.9368H45.9356V55.5688H43.574Z" fill="black"/>
<path d="M44.7568 72.6934C45.4521 72.6934 46.0156 73.2569 46.0156 73.9521V76.9244C46.0156 77.6197 45.4521 78.1832 44.7568 78.1832C44.0619 78.1832 43.4981 77.6197 43.4981 76.9244V73.9521C43.4981 73.2569 44.0619 72.6934 44.7568 72.6934Z" fill="black"/>
<path d="M47.786 71.2783C48.3902 70.9345 49.1589 71.1452 49.5027 71.7494L50.9989 74.3771C51.3431 74.9812 51.132 75.7499 50.5278 76.0938C50.3314 76.2056 50.1174 76.259 49.9063 76.259C49.4687 76.259 49.0432 76.0302 48.8111 75.6228L47.315 72.9951C46.9711 72.3909 47.1819 71.6222 47.786 71.2783Z" fill="black"/>
<path d="M38.5181 74.3771L40.0142 71.7494C40.3584 71.1452 41.1268 70.9345 41.7309 71.2783C42.3351 71.6222 42.5462 72.3909 42.202 72.9951L40.7059 75.6228C40.4741 76.0306 40.0486 76.259 39.611 76.259C39.3999 76.259 39.1858 76.2059 38.9891 76.0938C38.385 75.7499 38.1742 74.9812 38.5181 74.3771Z" fill="black"/>
<rect x="43.5391" y="55.2598" width="2.51181" height="11.7218" fill="white"/>
<defs>
<clipPath id="clip0_226_16385">
<rect width="43.5381" height="52.748" fill="white" transform="translate(62.7969 9.20996)"/>
</clipPath>
<clipPath id="clip1_226_16385">
<rect width="42.7008" height="52.748" fill="white" transform="matrix(-1 0 0 1 42.7031 9.20996)"/>
</clipPath>
</defs>
</svg>
