<svg width="74" height="74" viewBox="0 0 74 74" fill="none" xmlns="http://www.w3.org/2000/svg">
<path d="M4.5 32.0225H13.25V67.46H4.5V32.0225Z" fill="#EFF3F3"/>
<path d="M60.75 32.0225H69.5V67.46H60.75V32.0225Z" fill="#EFF3F3"/>
<path d="M2 67.46H72V72.5225H2V67.46Z" fill="#D8DCE5"/>
<path d="M13.25 6.70996H60.75V67.46H13.25V6.70996Z" fill="#F5FAFA"/>
<path d="M22 1.64746H52V6.70996H22V1.64746Z" fill="#C3C8D1"/>
<path d="M40.75 54.8037H48.25V67.46H40.75V54.8037Z" fill="#FFDD57"/>
<path d="M48.25 54.8037H55.75V67.46H48.25V54.8037Z" fill="#FFDD57"/>
<path d="M18.25 54.8037H25.75V67.46H18.25V54.8037Z" fill="#FFDD57"/>
<path d="M25.75 54.8037H33.25V67.46H25.75V54.8037Z" fill="#FFDD57"/>
<path d="M18.25 11.7725H25.75V19.3662H18.25V11.7725Z" fill="#FFDD57"/>
<path d="M25.75 11.7725H33.25V19.3662H25.75V11.7725Z" fill="#FFDD57"/>
<path d="M33.25 11.7725H40.75V19.3662H33.25V11.7725Z" fill="#FFDD57"/>
<path d="M40.75 11.7725H48.25V19.3662H40.75V11.7725Z" fill="#FFDD57"/>
<path d="M48.25 11.7725H55.75V19.3662H48.25V11.7725Z" fill="#FFDD57"/>
<path d="M18.25 19.3662H25.75V26.96H18.25V19.3662Z" fill="#FFDD57"/>
<path d="M25.75 19.3662H33.25V26.96H25.75V19.3662Z" fill="#FFDD57"/>
<path d="M33.25 19.3662H40.75V26.96H33.25V19.3662Z" fill="#FFDD57"/>
<path d="M40.75 19.3662H48.25V26.96H40.75V19.3662Z" fill="#FFDD57"/>
<path d="M48.25 19.3662H55.75V26.96H48.25V19.3662Z" fill="#FFDD57"/>
<path d="M18.25 26.96H25.75V34.5537H18.25V26.96Z" fill="#FFDD57"/>
<path d="M25.75 26.96H33.25V34.5537H25.75V26.96Z" fill="#FFDD57"/>
<path d="M33.25 26.96H40.75V34.5537H33.25V26.96Z" fill="#FFDD57"/>
<path d="M40.75 26.96H48.25V34.5537H40.75V26.96Z" fill="#FFDD57"/>
<path d="M48.25 26.96H55.75V34.5537H48.25V26.96Z" fill="#FFDD57"/>
<path d="M18.25 34.5537H25.75V42.1475H18.25V34.5537Z" fill="#FFDD57"/>
<path d="M25.75 34.5537H33.25V42.1475H25.75V34.5537Z" fill="#FFDD57"/>
<path d="M33.25 34.5537H40.75V42.1475H33.25V34.5537Z" fill="#FFDD57"/>
<path d="M40.75 34.5537H48.25V42.1475H40.75V34.5537Z" fill="#FFDD57"/>
<path d="M48.25 34.5537H55.75V42.1475H48.25V34.5537Z" fill="#FFDD57"/>
<path d="M18.25 42.1475H25.75V49.7412H18.25V42.1475Z" fill="#FFDD57"/>
<path d="M25.75 42.1475H33.25V49.7412H25.75V42.1475Z" fill="#FFDD57"/>
<path d="M33.25 42.1475H40.75V49.7412H33.25V42.1475Z" fill="#FFDD57"/>
<path d="M40.75 42.1475H48.25V49.7412H40.75V42.1475Z" fill="#FFDD57"/>
<path d="M48.25 42.1475H55.75V49.7412H48.25V42.1475Z" fill="#FFDD57"/>
<path d="M33.25 57.335L25.75 64.9287V59.8662L30.75 54.8037H33.25V57.335Z" fill="#FFDD57"/>
<path d="M23.25 67.46H18.25L25.75 59.8662V64.9287L23.25 67.46Z" fill="#FFDD57"/>
<path d="M55.75 59.8662L48.25 67.46V59.8662L53.25 54.8037H55.75V59.8662Z" fill="#FFDD57"/>
<path d="M48.25 67.46H40.75L48.25 59.8662V67.46Z" fill="#FFDD57"/>
<path d="M40.75 26.96H48.25L40.75 34.5537V26.96Z" fill="#FFDD57"/>
<path d="M48.25 19.3662H55.75L48.25 26.96V19.3662Z" fill="#FFDD57"/>
<path d="M25.75 42.1475H33.25L25.75 49.7412V42.1475Z" fill="#FFDD57"/>
<path d="M33.25 34.5537H40.75L33.25 42.1475V34.5537Z" fill="#FFDD57"/>
<path d="M33.25 34.5537H25.75L33.25 26.96V34.5537Z" fill="#FFDD57"/>
<path d="M25.75 42.1475H18.25L25.75 34.5537V42.1475Z" fill="#FFDD57"/>
<path d="M48.25 19.3662H40.75L48.25 11.7725V19.3662Z" fill="#FFDD57"/>
<path d="M40.75 26.96H33.25L40.75 19.3662V26.96Z" fill="#FFDD57"/>
<path d="M40.75 49.7412H35.75L40.75 44.6787V49.7412Z" fill="#FFDD57"/>
<path d="M48.25 42.1475H43.25L48.25 37.085V42.1475Z" fill="#FFDD57"/>
<path d="M55.75 34.5537H50.75L55.75 29.4912V34.5537Z" fill="#FFDD57"/>
<path d="M25.75 26.96H18.25L25.75 19.3662V26.96Z" fill="#FFDD57"/>
<path d="M33.25 19.3662H25.75L33.25 11.7725V19.3662Z" fill="#FFDD57"/>
<path d="M25.75 19.3662H33.25L25.75 26.96V19.3662Z" fill="#FFDD57"/>
<path d="M33.25 11.7725H40.75L33.25 19.3662V11.7725Z" fill="#FFDD57"/>
<path d="M48.25 42.1475L40.75 49.7412V44.6787L43.25 42.1475H48.25Z" fill="#FFDD57"/>
<path d="M55.75 34.5537L48.25 42.1475V37.085L50.75 34.5537H55.75Z" fill="#FFDD57"/>
<path d="M18.25 26.96H25.75L18.25 34.5537V26.96Z" fill="#FFDD57"/>
<path d="M72 66.1943H70.75V32.0225C70.75 31.6868 70.6183 31.3649 70.3839 31.1275C70.1495 30.8902 69.8315 30.7568 69.5 30.7568H62V6.70996C62 6.3743 61.8683 6.05238 61.6339 5.81503C61.3995 5.57768 61.0815 5.44434 60.75 5.44434H53.25V1.64746C53.25 1.3118 53.1183 0.98988 52.8839 0.752529C52.6495 0.515178 52.3315 0.381836 52 0.381836H22C21.6685 0.381836 21.3505 0.515178 21.1161 0.752529C20.8817 0.98988 20.75 1.3118 20.75 1.64746V5.44434H13.25C12.9185 5.44434 12.6005 5.57768 12.3661 5.81503C12.1317 6.05238 12 6.3743 12 6.70996V30.7568H4.5C4.16848 30.7568 3.85054 30.8902 3.61612 31.1275C3.3817 31.3649 3.25 31.6868 3.25 32.0225V66.1943H2C1.66848 66.1943 1.35054 66.3277 1.11612 66.565C0.881696 66.8024 0.75 67.1243 0.75 67.46V72.5225C0.75 72.8581 0.881696 73.18 1.11612 73.4174C1.35054 73.6547 1.66848 73.7881 2 73.7881H72C72.3315 73.7881 72.6495 73.6547 72.8839 73.4174C73.1183 73.18 73.25 72.8581 73.25 72.5225V67.46C73.25 67.1243 73.1183 66.8024 72.8839 66.565C72.6495 66.3277 72.3315 66.1943 72 66.1943ZM68.25 33.2881V66.1943H62V33.2881H68.25ZM23.25 2.91309H50.75V5.44434H23.25V2.91309ZM14.5 7.97559H59.5V66.1943H57V54.8037C57 54.468 56.8683 54.1461 56.6339 53.9088C56.3995 53.6714 56.0815 53.5381 55.75 53.5381H40.75C40.4185 53.5381 40.1005 53.6714 39.8661 53.9088C39.6317 54.1461 39.5 54.468 39.5 54.8037V66.1943H34.5V54.8037C34.5 54.468 34.3683 54.1461 34.1339 53.9088C33.8995 53.6714 33.5815 53.5381 33.25 53.5381H18.25C17.9185 53.5381 17.6005 53.6714 17.3661 53.9088C17.1317 54.1461 17 54.468 17 54.8037V66.1943H14.5V7.97559ZM47 66.1943H42V56.0693H47V66.1943ZM49.5 56.0693H54.5V66.1943H49.5V56.0693ZM24.5 66.1943H19.5V56.0693H24.5V66.1943ZM27 56.0693H32V66.1943H27V56.0693ZM5.75 33.2881H12V66.1943H5.75V33.2881ZM70.75 71.2568H3.25V68.7256H70.75V71.2568Z" fill="black"/>
<path d="M18.25 51.0068H55.75C56.0815 51.0068 56.3995 50.8735 56.6339 50.6361C56.8683 50.3988 57 50.0769 57 49.7412V11.7725C57 11.4368 56.8683 11.1149 56.6339 10.8775C56.3995 10.6402 56.0815 10.5068 55.75 10.5068H18.25C17.9185 10.5068 17.6005 10.6402 17.3661 10.8775C17.1317 11.1149 17 11.4368 17 11.7725V49.7412C17 50.0769 17.1317 50.3988 17.3661 50.6361C17.6005 50.8735 17.9185 51.0068 18.25 51.0068ZM19.5 35.8193H24.5V40.8818H19.5V35.8193ZM19.5 28.2256H24.5V33.2881H19.5V28.2256ZM54.5 33.2881H49.5V28.2256H54.5V33.2881ZM47 33.2881H42V28.2256H47V33.2881ZM39.5 33.2881H34.5V28.2256H39.5V33.2881ZM32 33.2881H27V28.2256H32V33.2881ZM27 35.8193H32V40.8818H27V35.8193ZM34.5 35.8193H39.5V40.8818H34.5V35.8193ZM42 35.8193H47V40.8818H42V35.8193ZM49.5 35.8193H54.5V40.8818H49.5V35.8193ZM54.5 25.6943H49.5V20.6318H54.5V25.6943ZM47 25.6943H42V20.6318H47V25.6943ZM39.5 25.6943H34.5V20.6318H39.5V25.6943ZM32 25.6943H27V20.6318H32V25.6943ZM24.5 25.6943H19.5V20.6318H24.5V25.6943ZM19.5 43.4131H24.5V48.4756H19.5V43.4131ZM27 43.4131H32V48.4756H27V43.4131ZM34.5 43.4131H39.5V48.4756H34.5V43.4131ZM42 43.4131H47V48.4756H42V43.4131ZM54.5 48.4756H49.5V43.4131H54.5V48.4756ZM54.5 18.1006H49.5V13.0381H54.5V18.1006ZM47 18.1006H42V13.0381H47V18.1006ZM39.5 18.1006H34.5V13.0381H39.5V18.1006ZM32 18.1006H27V13.0381H32V18.1006ZM19.5 13.0381H24.5V18.1006H19.5V13.0381Z" fill="black"/>
</svg>
