<svg width="125" height="66" viewBox="0 0 125 66" fill="none" xmlns="http://www.w3.org/2000/svg">
<g clip-path="url(#clip0_226_16411)">
<path d="M32.541 16.8352H89.416V22.929H32.541V16.8352Z" fill="#D8D8E4"/>
<path d="M29.752 59.2375H92.2129V64.3157H29.752V59.2375Z" fill="#D8D8E4"/>
<path d="M60.9766 1.85474L31.1426 16.8352H90.8105L60.9766 1.85474Z" fill="#FFDD57"/>
<path d="M32.541 54.1594H89.416V59.2375H32.541V54.1594Z" fill="#FFDD57"/>
<path d="M41.6603 48.8274H36.6248C35.4912 48.8274 34.5723 49.7463 34.5723 50.88V54.1594H43.7129V50.88C43.7129 49.7463 42.794 48.8274 41.6603 48.8274Z" fill="#FFDD57"/>
<path d="M43.7129 22.929H34.5723V26.2084C34.5723 27.3421 35.4912 28.261 36.6248 28.261H41.6608C42.794 28.261 43.7129 27.3421 43.7129 26.2084V22.929Z" fill="#FFDD57"/>
<path d="M36.6035 28.261H41.6816V48.8274H36.6035V28.261Z" fill="#FFDD57"/>
<path d="M56.2155 48.8274H51.1795C50.0459 48.8274 49.127 49.7463 49.127 50.88V54.1594H58.2676V50.88C58.2681 49.7463 57.3492 48.8274 56.2155 48.8274Z" fill="#FFDD57"/>
<path d="M58.2676 22.929H49.127V26.2084C49.127 27.3421 50.0459 28.261 51.1795 28.261H56.215C57.3487 28.261 58.2676 27.3421 58.2676 26.2084V22.929Z" fill="#FFDD57"/>
<path d="M51.1582 28.261H56.2363V48.8274H51.1582V28.261Z" fill="#FFDD57"/>
<path d="M70.778 48.8274H65.742C64.6084 48.8274 63.6895 49.7463 63.6895 50.88V54.1594H72.8301V50.88C72.8301 49.7463 71.9112 48.8274 70.778 48.8274Z" fill="#FFDD57"/>
<path d="M72.8301 22.929H63.6895V26.2084C63.6895 27.3421 64.6084 28.261 65.742 28.261H70.778C71.9117 28.261 72.8306 27.3421 72.8306 26.2084V22.929H72.8301Z" fill="#FFDD57"/>
<path d="M65.7207 28.261H70.7988V48.8274H65.7207V28.261Z" fill="#FFDD57"/>
<path d="M85.3322 48.8274H80.2962C79.1631 48.8274 78.2441 49.7463 78.2441 50.88V54.1594H87.3848V50.88C87.3848 49.7463 86.4658 48.8274 85.3322 48.8274Z" fill="#FFDD57"/>
<path d="M87.3848 22.929H78.2441V26.2084C78.2441 27.3421 79.1631 28.261 80.2967 28.261H85.3327C86.4658 28.261 87.3848 27.3421 87.3848 26.2084V22.929Z" fill="#FFDD57"/>
<path d="M80.2754 28.261H85.3535V48.8274H80.2754V28.261Z" fill="#FFDD57"/>
<path d="M60.9746 18.1047C61.3084 18.1047 61.6362 17.9689 61.8722 17.7328C62.1083 17.4967 62.2441 17.169 62.2441 16.8352C62.2441 16.5015 62.1083 16.1737 61.8722 15.9376C61.6362 15.7016 61.3084 15.5657 60.9746 15.5657C60.6409 15.5657 60.3131 15.7016 60.077 15.9376C59.841 16.1737 59.7051 16.5015 59.7051 16.8352C59.7051 17.169 59.841 17.4967 60.077 17.7328C60.3131 17.9689 60.6409 18.1047 60.9746 18.1047Z" fill="black"/>
<path d="M92.209 57.9679H90.6855V54.1593C90.6855 53.4581 90.1172 52.8898 89.416 52.8898H88.6543V50.8798C88.6543 49.5052 87.8157 48.3234 86.623 47.8186V43.5374C86.623 42.8362 86.0547 42.2679 85.3535 42.2679C84.6523 42.2679 84.084 42.8362 84.084 43.5374V47.5577H81.5449V29.5304H84.084V33.638C84.084 34.3392 84.6523 34.9076 85.3535 34.9076C86.0547 34.9076 86.623 34.3392 86.623 33.638V29.2695C87.8157 28.7647 88.6543 27.5825 88.6543 26.2083V24.1984H89.416C90.1172 24.1984 90.6855 23.6301 90.6855 22.9288V18.1046H90.8125C91.4011 18.1046 91.9119 17.7004 92.0478 17.1277C92.1837 16.5554 91.908 15.9643 91.3823 15.7004L61.5483 0.719973C61.1898 0.539957 60.7673 0.539957 60.4087 0.719973L30.5747 15.7004C30.0491 15.9648 29.7733 16.5554 29.9092 17.1277C30.0451 17.7004 30.5559 18.1046 31.1445 18.1046H31.2715V22.9288C31.2715 23.6301 31.8398 24.1984 32.541 24.1984H33.3027V26.2083C33.3027 27.5825 34.1413 28.7647 35.334 29.2691V47.8186C34.1413 48.3234 33.3027 49.5052 33.3027 50.8793V52.8898H32.541C31.8398 52.8898 31.2715 53.4581 31.2715 54.1593V57.9679H29.748C29.0468 57.9679 28.4785 58.5362 28.4785 59.2374V64.3156C28.4785 65.0168 29.0468 65.5851 29.748 65.5851H92.209C92.9102 65.5851 93.4785 65.0168 93.4785 64.3156V59.2374C93.4785 58.5362 92.9102 57.9679 92.209 57.9679ZM85.3322 50.0968C85.7641 50.0968 86.1152 50.4479 86.1152 50.8798V52.8898H79.5137V50.8798C79.5137 50.4479 79.8648 50.0968 80.2967 50.0968H85.3322ZM74.0968 52.8898V50.8798C74.0968 49.5057 73.2583 48.3234 72.0656 47.8186V29.2695C73.2583 28.7647 74.0968 27.5825 74.0968 26.2083V24.1984H76.9746V26.2083C76.9746 27.5825 77.8132 28.7647 79.0059 29.2691V47.8186C77.8132 48.3234 76.9746 49.5052 76.9746 50.8793V52.8898H74.0968ZM59.5399 52.8898V50.8798C59.5399 49.5052 58.7008 48.3234 57.5086 47.8186V29.2695C58.7008 28.7647 59.5399 27.5825 59.5399 26.2083V24.1984H62.4176V26.2083C62.4176 27.5825 63.2562 28.7647 64.4489 29.2691V47.8186C63.2562 48.3234 62.4176 49.5052 62.4176 50.8793V52.8898H59.5399ZM44.9824 52.8898V50.8798C44.9824 49.5052 44.1438 48.3234 42.9512 47.8186V29.2695C44.1438 28.7647 44.9824 27.5825 44.9824 26.2083V24.1984H47.8602V26.2083C47.8602 27.5825 48.6988 28.7647 49.8914 29.2691V47.8186C48.6988 48.3234 47.8602 49.5052 47.8602 50.8793V52.8898H44.9824ZM37.873 29.5304H40.4121V47.5577H37.873V29.5304ZM52.4305 29.5304H54.9696V47.5577H52.4305V29.5304ZM57.0008 26.2083C57.0008 26.6402 56.6497 26.9913 56.2178 26.9913H51.1818C50.7504 26.9913 50.3988 26.6402 50.3988 26.2083V24.1984H57.0003L57.0008 26.2083ZM50.3993 50.8798C50.3993 50.4479 50.7504 50.0968 51.1823 50.0968H56.2178C56.6492 50.0968 57.0008 50.4479 57.0008 50.8798V52.8898H50.3993V50.8798ZM66.9875 29.5304H69.5265V47.5577H66.9875V29.5304ZM71.5578 26.2083C71.5578 26.6402 71.2067 26.9913 70.7747 26.9913H65.7393C65.3078 26.9913 64.9562 26.6402 64.9562 26.2083V24.1984H71.5578V26.2083ZM64.9562 50.8798C64.9562 50.4479 65.3073 50.0968 65.7393 50.0968H70.7752C71.2067 50.0968 71.5583 50.4479 71.5583 50.8798V52.8898H64.9567L64.9562 50.8798ZM86.1152 26.2083C86.1152 26.6402 85.7641 26.9913 85.3322 26.9913H80.2962C79.8648 26.9913 79.5137 26.6402 79.5137 26.2083V24.1984H86.1152V26.2083ZM54.673 18.1046C55.3742 18.1046 55.9425 17.5363 55.9425 16.8351C55.9425 16.1339 55.3742 15.5656 54.673 15.5656H36.5019L60.9785 3.2754L85.4552 15.5656H67.707C67.0058 15.5656 66.4375 16.1339 66.4375 16.8351C66.4375 17.5363 67.0058 18.1046 67.707 18.1046H88.1465V21.6593H33.8105V18.1046H54.673ZM42.4434 24.1984V26.2083C42.4434 26.6402 42.0923 26.9913 41.6603 26.9913H36.6248C36.1929 26.9913 35.8418 26.6402 35.8418 26.2083V24.1984H42.4434ZM35.8418 50.8798C35.8418 50.4479 36.1929 50.0968 36.6248 50.0968H41.6608C42.0923 50.0968 42.4434 50.4479 42.4434 50.8798V52.8898H35.8418V50.8798ZM33.8105 55.4288H88.1465V57.9679H33.8105V55.4288ZM90.9395 63.046H31.0176V60.507H90.9395V63.046Z" fill="black"/>
<path d="M85.3496 37.2747C85.0159 37.2747 84.6881 37.4105 84.452 37.6466C84.216 37.8826 84.0801 38.2104 84.0801 38.5442C84.0801 38.8779 84.216 39.2057 84.452 39.4418C84.6881 39.6778 85.0159 39.8137 85.3496 39.8137C85.6834 39.8137 86.0112 39.6778 86.2472 39.4418C86.4833 39.2057 86.6191 38.8779 86.6191 38.5442C86.6191 38.2104 86.4833 37.8826 86.2472 37.6466C86.0112 37.4105 85.6834 37.2747 85.3496 37.2747Z" fill="black"/>
</g>
<circle r="6.03761" transform="matrix(-1 0 0 1 114.925 57.574)" fill="#D8D8E4" stroke="black" stroke-width="2"/>
<path d="M109.279 59.9266L107.87 58.0507C107.096 57.0136 107.305 55.5462 108.337 54.7662L113.965 50.5405C115.002 49.7666 116.47 49.9754 117.25 51.0078L118.658 52.8838L109.279 59.9266Z" fill="#FFDD57"/>
<path d="M116.15 47.0081C116.458 47.0521 116.771 46.9718 117.02 46.785C117.268 46.5982 117.433 46.3202 117.476 46.0123L118.177 41.0856C118.239 40.6694 118.073 40.2519 117.743 39.9917C117.412 39.7314 116.968 39.6681 116.578 39.8259C116.188 39.9836 115.912 40.3382 115.855 40.7552L115.154 45.6819C115.11 45.9899 115.191 46.3026 115.377 46.5513C115.564 46.8001 115.842 46.9645 116.15 47.0081Z" fill="black"/>
<path d="M97.5441 54.0698C97.1649 54.3548 96.9945 54.84 97.1125 55.2994C97.2305 55.7588 97.6136 56.102 98.0831 56.1688L103.01 56.8698C103.648 56.9547 104.235 56.5096 104.326 55.8725C104.416 55.2354 103.977 54.6442 103.34 54.5477L98.4136 53.8467C98.1056 53.8024 97.7927 53.8827 97.5441 54.0698Z" fill="black"/>
<path d="M109.569 34.6067C108.931 34.7232 108.509 35.3339 108.625 35.9713L110.933 46.2961C111.008 46.7092 111.297 47.0512 111.692 47.1927C112.088 47.3343 112.528 47.2539 112.848 46.982C113.168 46.7101 113.318 46.288 113.242 45.8752L110.933 35.5504C110.877 35.2444 110.702 34.9729 110.446 34.7959C110.19 34.6189 109.875 34.5508 109.569 34.6067Z" fill="black"/>
<path d="M108.25 46.8343L101.334 37.6245C100.38 36.3528 99.4585 35.2354 98.6676 36.0263C97.6617 37.0322 98.5039 37.7616 99.4585 39.033L106.374 48.2428C107.329 49.5145 108.523 50.2299 109.041 49.841C109.559 49.4521 109.204 48.1057 108.25 46.8343Z" fill="black"/>
<path d="M105.636 52.2417C105.775 51.9634 105.797 51.6413 105.699 51.3462C105.6 51.0511 105.388 50.8072 105.11 50.6682L96.2457 45.6748C95.6663 45.3872 94.9635 45.6228 94.6746 46.2015C94.3856 46.7801 94.6196 47.4835 95.1975 47.7738L104.062 52.7672C104.34 52.9062 104.662 52.9289 104.958 52.8304C105.253 52.7319 105.497 52.5202 105.636 52.2417Z" fill="black"/>
<path fill-rule="evenodd" clip-rule="evenodd" d="M120.181 53.0551L108.971 61.4724L106.931 58.7548C105.766 57.2002 106.079 54.9961 107.632 53.828L113.259 49.6024C114.814 48.4377 117.018 48.7513 118.186 50.3034L120.005 52.7255L119.959 52.7596L120.181 53.0551ZM109.04 55.7041L114.668 51.4784C115.186 51.0903 115.921 51.1949 116.31 51.7121L117.014 52.6501L109.511 58.2843L108.806 57.3464C108.418 56.8281 108.523 56.0935 109.04 55.7041Z" fill="black"/>
<circle cx="10.0083" cy="57.574" r="6.03761" fill="#D8D8E4" stroke="black" stroke-width="2"/>
<path d="M15.6472 59.9266L17.0558 58.0507C17.8297 57.0136 17.6209 55.5462 16.5885 54.7662L10.9607 50.5405C9.92364 49.7666 8.45621 49.9754 7.67617 51.0078L6.26758 52.8838L15.6472 59.9266Z" fill="#FFDD57"/>
<path d="M8.78355 47.0081C8.47555 47.0521 8.16283 46.9718 7.91409 46.785C7.66535 46.5982 7.50091 46.3202 7.45729 46.0123L6.75627 41.0856C6.6944 40.6694 6.8602 40.2519 7.19073 39.9917C7.52126 39.7314 7.96601 39.6681 8.35601 39.8259C8.74602 39.9836 9.02169 40.3382 9.07836 40.7552L9.77939 45.6819C9.82332 45.9899 9.74303 46.3026 9.55626 46.5513C9.36949 46.8001 9.0915 46.9645 8.78355 47.0081Z" fill="black"/>
<path d="M27.3817 54.0698C27.7609 54.3548 27.9313 54.84 27.8133 55.2994C27.6952 55.7588 27.3122 56.102 26.8426 56.1688L21.9159 56.8698C21.2779 56.9547 20.6908 56.5096 20.6001 55.8725C20.5093 55.2354 20.9491 54.6442 21.5855 54.5477L26.5122 53.8467C26.8202 53.8024 27.1331 53.8827 27.3817 54.0698Z" fill="black"/>
<path d="M15.3571 34.607C15.9944 34.7235 16.4167 35.3342 16.3007 35.9715L13.9924 46.2964C13.918 46.7094 13.6286 47.0514 13.2333 47.193C12.8381 47.3345 12.3975 47.2541 12.0777 46.9822C11.7579 46.7103 11.6079 46.2882 11.6842 45.8754L13.9925 35.5506C14.0483 35.2446 14.2234 34.9732 14.4794 34.7962C14.7354 34.6192 15.051 34.5511 15.3571 34.607Z" fill="black"/>
<path d="M16.6839 46.8343L23.5992 37.6245C24.5541 36.3528 25.4751 35.2354 26.266 36.0263C27.2719 37.0322 26.4297 37.7616 25.4751 39.033L18.5597 48.2428C17.6049 49.5145 16.4109 50.2299 15.893 49.841C15.3751 49.4521 15.7292 48.1057 16.6839 46.8343Z" fill="black"/>
<path d="M19.2902 52.2417C19.1512 51.9634 19.1285 51.6413 19.227 51.3462C19.3255 51.0511 19.5373 50.8072 19.8157 50.6682L28.6801 45.6748C29.2595 45.3872 29.9622 45.6228 30.2512 46.2015C30.5402 46.7801 30.3062 47.4835 29.7283 47.7738L20.8638 52.7672C20.5855 52.9062 20.2633 52.9289 19.9682 52.8304C19.6732 52.7319 19.4292 52.5202 19.2902 52.2417Z" fill="black"/>
<path fill-rule="evenodd" clip-rule="evenodd" d="M4.74356 53.0553L15.9489 61.4689L17.9865 58.7553C19.1512 57.2007 18.8375 54.9965 17.2854 53.8285L11.6577 49.6029C10.1031 48.4382 7.89898 48.7518 6.73098 50.3039L4.91529 52.722L4.96549 52.7597L4.74356 53.0553ZM15.877 55.7046L10.2492 51.4789C9.73101 51.0908 8.99643 51.1953 8.60704 51.7126L7.9027 52.6506L15.4063 58.2848L16.1105 57.3469C16.4987 56.8285 16.3942 56.094 15.877 55.7046Z" fill="black"/>
<defs>
<clipPath id="clip0_226_16411">
<rect width="65" height="65" fill="white" transform="translate(28.4785 0.585205)"/>
</clipPath>
</defs>
</svg>
