<svg width="85" height="87" viewBox="0 0 85 87" fill="none" xmlns="http://www.w3.org/2000/svg">
<g clip-path="url(#clip0_226_16503)">
<path d="M36.7466 72.5082C36.7466 71.5222 36.7466 33.6556 36.7466 32.1988C36.7466 31.6509 37.1857 31.2066 37.7273 31.2066H68.8885V11.2072C68.8885 10.3213 68.0278 9.69773 67.1988 9.98296L8.31534 30.251C7.23917 30.6214 6.51562 31.6438 6.51562 32.794V72.5082H36.7466Z" fill="#FFDD57"/>
<path d="M10.2416 29.5881L8.31534 30.2511C7.23916 30.6215 6.51562 31.644 6.51562 32.7942V72.5084H9.83614V31.0477C9.83614 30.5199 9.98241 30.018 10.2416 29.5881Z" fill="#DBAD5C"/>
<path d="M78.8132 30.8706H37.387C36.8454 30.8706 36.4062 31.3149 36.4062 31.8629C36.4062 32.4175 36.4062 39.0673 36.4062 47.1436H79.8284C79.8284 38.9181 79.8284 32.1845 79.8284 31.8978C79.8284 31.3305 79.3739 30.8706 78.8132 30.8706Z" fill="#FFDD57"/>
<path d="M68.3819 51.8984H47.8455C47.577 51.8984 47.3594 52.1187 47.3594 52.3903C47.3594 53.1124 47.3594 72.0193 47.3594 72.5081H68.8851C68.8851 72.0574 68.8851 52.777 68.8851 52.4076C68.8851 52.1264 68.6598 51.8984 68.3819 51.8984Z" fill="#E4EAF8"/>
<path d="M58.1222 51.8984H47.8455C47.577 51.8984 47.3594 52.1187 47.3594 52.3903C47.3594 53.1124 47.3594 72.0193 47.3594 72.5081H58.1222V51.8984Z" fill="#D8DCE5"/>
<path d="M51.166 51.8984H47.8455C47.577 51.8984 47.3594 52.1187 47.3594 52.3903C47.3594 53.1124 47.3594 72.0193 47.3594 72.5081H50.6799C50.6799 72.0193 50.6799 53.1124 50.6799 52.3903C50.6799 52.1187 50.8976 51.8984 51.166 51.8984Z" fill="#C3C8D1"/>
<path d="M30.0511 66.167H12.9062V72.5082H30.0511V66.167Z" fill="#D8DCE5"/>
<path d="M30.0511 59.8257H12.9062V66.1669H30.0511V59.8257Z" fill="#D8DCE5"/>
<path d="M30.0511 53.4844H12.9062V59.8256H30.0511V53.4844Z" fill="#D8DCE5"/>
<path d="M16.2268 66.167H12.9062V72.5082H16.2268V66.167Z" fill="white"/>
<path d="M16.2268 59.8257H12.9062V66.1669H16.2268V59.8257Z" fill="white"/>
<path d="M16.2268 53.4844H12.9062V59.8256H16.2268V53.4844Z" fill="white"/>
<path d="M29.7932 53.8352V48.7447C29.7932 48.054 29.2399 47.4941 28.5572 47.4941H13.8845C13.2018 47.4941 12.6484 48.054 12.6484 48.7447V53.8352H29.7932Z" fill="#D8DCE5"/>
<path d="M17.4628 47.1436H14.1423C13.4596 47.1436 12.9062 47.7034 12.9062 48.3942V53.4846H16.2268V48.3942C16.2266 47.7034 16.7801 47.1436 17.4628 47.1436Z" fill="white"/>
<path d="M81.7021 72.4207C79.6909 72.4207 4.11298 72.4207 3.37002 72.4207C2.22129 72.4207 1.28125 73.3894 1.28125 74.5735V75.0467C1.28125 76.2308 2.22112 77.1995 3.37002 77.1995C4.08376 77.1995 80.7061 77.1995 81.7021 77.1995C82.8508 77.1995 83.7909 76.2308 83.7909 75.0467V74.5735C83.7909 73.3894 82.851 72.4207 81.7021 72.4207Z" fill="#E4EAF8"/>
<path d="M81.7021 74.8099C80.7061 74.8099 4.08376 74.8099 3.37002 74.8099C2.55517 74.8099 1.84723 74.3213 1.50339 73.6152C1.3626 73.9045 1.28125 74.2292 1.28125 74.5734V75.0466C1.28125 76.2307 2.22112 77.1994 3.37002 77.1994C4.08376 77.1994 80.7061 77.1994 81.7021 77.1994C82.8508 77.1994 83.7909 76.2307 83.7909 75.0466V74.5734C83.7909 74.2292 83.7095 73.9045 83.5687 73.6152C83.2251 74.3213 82.5171 74.8099 81.7021 74.8099Z" fill="#D8DCE5"/>
<path d="M44.9007 44.0698C45.4096 44.0698 45.9185 43.8585 45.9185 43.4362V38.3532L47.1582 40.6505C47.3147 40.9542 47.5629 41.0333 47.7977 41.0333C48.0456 41.0333 48.3066 40.9409 48.4762 40.6505L49.7291 38.4852V43.4364C49.7291 43.8589 50.2379 44.07 50.747 44.07C51.256 44.07 51.7647 43.8587 51.7647 43.4364V35.4487C51.7647 34.6961 51.269 34.4189 50.747 34.4189C50.0163 34.4189 49.703 34.4982 49.1679 35.4487L47.8238 37.8252L46.4796 35.4487C45.9445 34.4981 45.6316 34.4189 44.9007 34.4189C44.3918 34.4189 43.8828 34.6961 43.8828 35.4487V43.4364C43.883 43.8585 44.3918 44.0698 44.9007 44.0698Z" fill="black"/>
<path d="M53.8275 44.0699C54.1537 44.0699 54.4147 43.9642 54.4931 43.687L54.9367 42.0367H57.6903L58.1339 43.687C58.2122 43.9642 58.4732 44.0699 58.7995 44.0699C59.3703 44.0699 60.2294 43.6877 60.0782 43.0796L57.6381 35.0259C57.4945 34.5638 56.9073 34.3394 56.3069 34.3394C55.7066 34.3394 55.1195 34.5638 54.9759 35.0259L52.5488 43.0796C52.3978 43.6862 53.2559 44.0699 53.8275 44.0699ZM56.3069 36.914L57.2596 40.4523H55.3543L56.3069 36.914Z" fill="black"/>
<path d="M61.7468 44.0699H65.8704C66.2618 44.0699 66.4576 43.621 66.4576 43.172C66.4576 42.7232 66.2618 42.2742 65.8704 42.2742H62.8952V35.039C62.8952 34.6032 62.3863 34.4185 61.8773 34.4185C61.3682 34.4185 60.8594 34.6032 60.8594 35.039V43.4361C60.8594 43.8585 61.3032 44.0699 61.7468 44.0699Z" fill="black"/>
<path d="M68.1687 44.0699H72.2922C72.6836 44.0699 72.8795 43.621 72.8795 43.172C72.8795 42.7232 72.6836 42.2742 72.2922 42.2742H69.3169V35.039C69.3169 34.6032 68.8082 34.4185 68.2992 34.4185C67.7901 34.4185 67.2812 34.6032 67.2812 35.039V43.4361C67.2812 43.8585 67.7249 44.0699 68.1687 44.0699Z" fill="black"/>
<path d="M81.6662 71.2765H81.0424V58.9117C81.0424 58.216 80.4851 57.6519 79.7972 57.6519C79.1094 57.6519 78.5521 58.216 78.5521 58.9117V71.2765H70.0942V52.4358C70.0942 51.4604 69.3097 50.6667 68.3458 50.6667C67.4551 50.6667 48.7196 50.6667 47.8096 50.6667C46.8549 50.6667 46.0783 51.4525 46.0783 52.4184V71.2763H37.6204V48.4315H78.5522V53.0325C78.5522 53.7282 79.1096 54.2923 79.7974 54.2923C80.4853 54.2923 81.0426 53.7282 81.0426 53.0325C81.0426 52.3327 81.0426 32.3267 81.0426 31.9259C81.0426 30.6649 80.0287 29.6389 78.7823 29.6389H70.0945V26.2954C70.7613 26.2713 71.2947 25.7183 71.2947 25.038C71.2947 24.3576 70.7613 23.8047 70.0945 23.7805V21.139C70.7613 21.1148 71.2947 20.5618 71.2947 19.8815C71.2947 19.2012 70.7613 18.6482 70.0945 18.624V11.2353C70.0945 10.4139 69.7004 9.63798 69.0403 9.15974C68.38 8.68134 67.527 8.55368 66.7584 8.81858L7.87493 29.0864C6.29353 29.6307 5.2308 31.1321 5.2308 32.8221V71.2765H3.33396C1.49556 71.2765 0 72.7898 0 74.6497V75.1142C0 76.974 1.49556 78.4873 3.33396 78.4873H39.5945C40.2823 78.4873 40.8397 77.9233 40.8397 77.2275C40.8397 76.5317 40.2823 75.9677 39.5945 75.9677H3.33396C2.87673 75.9677 2.49039 75.5768 2.49039 75.1142V74.6497C2.49039 74.1871 2.87673 73.7962 3.33396 73.7962H81.6662C82.1234 73.7962 82.5096 74.1871 82.5096 74.6497V75.1142C82.5096 75.5768 82.1234 75.9677 81.6662 75.9677H45.4054C44.7175 75.9677 44.1602 76.5317 44.1602 77.2275C44.1602 77.9233 44.7175 78.4873 45.4054 78.4873H81.666C83.5043 78.4873 84.9998 76.9742 84.9998 75.1142V74.6497C85 72.7898 83.5044 71.2765 81.6662 71.2765ZM78.5521 32.1586V45.912H37.6203V32.1586H78.5521ZM28.7703 71.2765H14.1157V67.455H28.7703V71.2765ZM28.7703 64.9353H14.1157V61.1138H28.7703V64.9353ZM28.7703 58.5943H14.1157V54.7727H28.7703V58.5943ZM28.7703 52.2531H14.1082L14.1067 48.4315H28.7703V52.2531ZM35.1299 31.891C35.1299 33.775 35.1299 69.481 35.1299 71.2765H31.2606C31.2606 70.151 31.2606 49.1357 31.2606 48.4223C31.2606 47.038 30.1476 45.9119 28.7794 45.9119H14.1067C12.7385 45.9119 11.6255 47.038 11.6255 48.4223C11.6255 49.2294 11.6255 70.466 11.6255 71.2765H7.72119V32.8223C7.72119 32.2113 8.10521 31.6688 8.677 31.4719L67.5605 11.2039C67.5701 11.2005 67.5764 11.1983 67.5902 11.2082C67.604 11.2182 67.604 11.225 67.604 11.2353V18.6217H58.0862C57.3984 18.6217 56.841 19.1857 56.841 19.8815C56.841 20.5773 57.3984 21.1413 58.0862 21.1413H67.604V23.7781H58.0862C57.3984 23.7781 56.841 24.3422 56.841 25.038C56.841 25.7337 57.3984 26.2978 58.0862 26.2978H67.604V29.6389H37.3558C36.1283 29.6389 35.1299 30.6491 35.1299 31.891ZM56.8409 71.2765H48.5685V53.1865H56.8409V71.2765ZM67.6037 71.2765H59.3313V53.1865H67.6037V71.2765Z" fill="black"/>
</g>
<defs>
<clipPath id="clip0_226_16503">
<rect width="85" height="86" fill="white" transform="translate(0 0.585205)"/>
</clipPath>
</defs>
</svg>
