<svg width="92" height="71" viewBox="0 0 92 71" fill="none" xmlns="http://www.w3.org/2000/svg">
<g clip-path="url(#clip0_226_16466)">
<path d="M56.9973 18.085C58.286 18.085 59.3307 19.1296 59.3307 20.4183V39.085H54.6641V20.4183C54.6639 19.1296 55.7086 18.085 56.9973 18.085Z" fill="#FFDD57"/>
<path d="M60.5 41.4185H53.5V65.9185H60.5V41.4185Z" fill="#FFDD57"/>
<path d="M52.3334 64.7515H61.6668C62.9555 64.7515 64.0001 65.7961 64.0001 67.0848V69.4182H50V67.0848C50 65.7961 51.0447 64.7515 52.3334 64.7515Z" fill="#E4EAF8"/>
<path d="M54.6668 36.7517H59.3334C59.9777 36.7517 60.5 37.274 60.5 37.9183V42.5851H53.5V37.9185C53.5001 37.2741 54.0225 36.7517 54.6668 36.7517Z" fill="#C3C8D1"/>
<path d="M82.6668 6.41846V8.75184C82.6629 10.0389 81.6205 11.0814 80.3334 11.0852H73.3334C72.0463 11.0814 71.0038 10.0389 71 8.75184V6.41846H82.6668Z" fill="white"/>
<path d="M90.8281 68.252H88.4947C87.8504 68.252 87.3281 68.7744 87.3281 69.4186C87.3281 70.0629 87.8504 70.5852 88.4947 70.5852H90.8281C91.4725 70.5852 91.9947 70.0629 91.9947 69.4186C91.9947 68.7744 91.4725 68.252 90.8281 68.252Z" fill="black"/>
<path d="M80.3334 0.585205H62.8334C58.9692 0.589443 55.8376 3.72099 55.8334 7.58521V17.1335C54.439 17.6246 53.5046 18.9401 53.5 20.4186V35.9098C52.7806 36.3232 52.336 37.0888 52.3334 37.9186V63.5852C50.4013 63.5873 48.8354 65.1531 48.8334 67.0852V68.2518H23.1666C22.5223 68.2518 22 68.7742 22 69.4184C22 70.0629 22.5224 70.5852 23.1666 70.5852H83.8332C84.4776 70.5852 84.9999 70.0629 84.9999 69.4186C84.9999 68.7742 84.4776 68.252 83.8332 68.252H65.1666V67.0852C65.1646 65.1531 63.5987 63.5873 61.6666 63.5852V37.9186C61.664 37.0888 61.2194 36.3232 60.5 35.9098V20.4186C60.4955 18.9402 59.561 17.6247 58.1666 17.1335V7.58521C58.1696 5.00915 60.2572 2.92145 62.8332 2.91858H69.8332V8.75196C69.8353 10.6841 71.4011 12.2499 73.3332 12.252H80.3332C82.2654 12.2499 83.8312 10.6841 83.8332 8.75196V4.08521C83.8312 2.1531 82.2655 0.587256 80.3334 0.585205ZM55.8334 20.4186C55.8334 19.7742 56.3558 19.252 57 19.252C57.6444 19.252 58.1666 19.7744 58.1666 20.4186V35.5852H55.8332V20.4186H55.8334ZM59.3334 41.4186H54.6668V37.9186H59.3334V41.4186ZM62.8334 67.0852V68.2518H51.1668V67.0852C51.1676 66.4413 51.6894 65.9194 52.3334 65.9186H61.6668C62.3107 65.9194 62.8326 66.4413 62.8334 67.0852ZM54.6666 63.5852V43.7518H59.3332V63.5852H54.6666ZM81.5 4.08521V5.25183H72.1666V2.91858H80.3332C80.9773 2.9194 81.4992 3.44126 81.5 4.08521ZM80.3334 9.91858H73.3334C72.6894 9.91776 72.1676 9.39591 72.1668 8.75196V7.58521H81.5V8.75183C81.4992 9.39591 80.9773 9.91776 80.3334 9.91858Z" fill="black"/>
<path d="M69.4887 12.5938C69.27 12.3749 68.9733 12.252 68.6639 12.252C68.3545 12.252 68.0577 12.3749 67.8391 12.5938L64.3391 16.0938C64.0413 16.3878 63.9239 16.8189 64.0313 17.2233C64.1388 17.6277 64.4547 17.9437 64.8592 18.0512C65.2636 18.1586 65.6946 18.0412 65.9887 17.7434L69.4887 14.2434C69.7076 14.0246 69.8305 13.728 69.8305 13.4186C69.8305 13.1092 69.7076 12.8124 69.4887 12.5938Z" fill="black"/>
<path d="M88.5029 18.0854C88.9747 18.0853 89.4 17.8011 89.5805 17.3652C89.7609 16.9294 89.6613 16.4276 89.3277 16.094L85.8277 12.594C85.3709 12.1454 84.6381 12.1488 84.1854 12.6014C83.7327 13.0539 83.7295 13.7869 84.178 14.2437L87.678 17.7436C87.8965 17.9628 88.1933 18.0859 88.5029 18.0854Z" fill="black"/>
<path d="M69.3169 21.4622C69.8933 21.7501 70.594 21.5166 70.8824 20.9403L73.2157 16.2737C73.4033 15.9007 73.3773 15.4558 73.1475 15.1072C72.9177 14.7586 72.5192 14.5594 72.1024 14.5847C71.6857 14.61 71.3142 14.8561 71.1284 15.23L68.7951 19.8966C68.6567 20.1733 68.6339 20.4938 68.7318 20.7875C68.8296 21.0811 69.0401 21.3238 69.3169 21.4622Z" fill="black"/>
<path d="M75.6641 15.7518V20.4184C75.6641 21.0628 76.1863 21.5851 76.8307 21.5851C77.475 21.5851 77.9973 21.0627 77.9973 20.4184V15.7518C77.9973 15.1075 77.4749 14.5852 76.8307 14.5852C76.1865 14.5852 75.6641 15.1076 75.6641 15.7518Z" fill="black"/>
<path d="M80.9732 14.7082C80.6963 14.8465 80.4859 15.0892 80.388 15.3828C80.2901 15.6763 80.313 15.9968 80.4513 16.2736L82.7847 20.9402C83.0737 21.515 83.7734 21.7473 84.3489 21.4596C84.9243 21.172 85.1583 20.4728 84.872 19.8967L82.5386 15.23C82.4002 14.9532 82.1576 14.7428 81.864 14.6449C81.5705 14.547 81.25 14.5697 80.9732 14.7082Z" fill="black"/>
</g>
<g clip-path="url(#clip1_226_16466)">
<path d="M34.9993 35.9536C33.5749 35.9536 32.4202 36.4668 32.4202 37.0998V46.2694H37.5781V37.0998C37.5783 36.4668 36.4236 35.9536 34.9993 35.9536Z" fill="#FFDD57"/>
<path d="M31.5 41.4185H38.5V65.9185H31.5V41.4185Z" fill="#FFDD57"/>
<path d="M39.6666 64.7517H30.3332C29.0445 64.7517 27.9999 65.7964 27.9999 67.0851V69.4185H42V67.0851C42 65.7964 40.9553 64.7517 39.6666 64.7517Z" fill="#E4EAF8"/>
<path d="M37.2072 45.5325H32.7861C32.1757 45.5325 31.6809 45.7964 31.6809 46.1219V48.4798H38.3125V46.122C38.3124 45.7964 37.8175 45.5325 37.2072 45.5325Z" fill="#C3C8D1"/>
<path d="M14.8567 24.1641V26.4974C14.8605 27.7845 15.903 28.827 17.1901 28.8308H24.1901C25.4771 28.827 26.5196 27.7845 26.5234 26.4974V24.1641H14.8567Z" fill="white"/>
<path d="M1.17188 68.2515H3.50526C4.14961 68.2515 4.67188 68.7739 4.67188 69.4181C4.67188 70.0624 4.14961 70.5847 3.50526 70.5847H1.17188C0.527527 70.5847 0.00526428 70.0624 0.00526428 69.4181C0.00526428 68.7739 0.527527 68.2515 1.17188 68.2515Z" fill="black"/>
<path d="M16.0877 18.2693H29.1666C33.0308 18.2735 36.1624 21.4051 36.1666 25.2693V34.8176C37.561 35.3087 38.4954 36.6242 38.5 38.1027V48.436C39.2194 48.8494 39.664 49.615 39.6666 50.4448V63.5851C41.5987 63.5871 43.1646 65.153 43.1666 67.0851V68.2517H68.8334C69.4777 68.2517 70 68.7741 70 69.4183C70 70.0628 69.4776 70.5851 68.8334 70.5851H8.16676C7.5224 70.5851 7.00014 70.0628 7.00014 69.4185C7.00014 68.7741 7.5224 68.2518 8.16676 68.2518H26.8334V67.0851C26.8354 65.153 28.4013 63.5871 30.3334 63.5851V50.4448C30.336 49.615 30.7806 48.8494 31.5 48.436V38.1027C31.5045 36.6243 32.439 35.3088 33.8334 34.8176V25.2693C33.8304 22.6932 31.7428 20.6055 29.1668 20.6027H26.5878V26.436C26.5858 28.3682 25.0199 29.934 23.0878 29.936H16.0878C14.1557 29.934 12.5899 28.3682 12.5878 26.436V21.7693C12.5899 19.8372 14.1556 18.2713 16.0877 18.2693ZM36.1666 38.1027C36.1666 37.4583 35.6442 36.936 35 36.936C34.3556 36.936 33.8334 37.4585 33.8334 38.1027V48.1114H36.1668L36.1666 38.1027ZM32.6666 53.9448H37.3332V50.4448H32.6666V53.9448ZM29.1666 67.0851V68.2517H40.8332V67.0851C40.8324 66.4411 40.3106 65.9193 39.6666 65.9185H30.3332C29.6893 65.9193 29.1674 66.4411 29.1666 67.0851ZM37.3334 63.5851V56.278H32.6668V63.5851H37.3334ZM14.9211 21.7693V22.9359H24.2544V20.6027H16.0878C15.4437 20.6035 14.9219 21.1253 14.9211 21.7693ZM16.0877 27.6027H23.0877C23.7316 27.6018 24.2535 27.08 24.2543 26.436V25.2693H14.9211V26.4359C14.9219 27.08 15.4437 27.6018 16.0877 27.6027Z" fill="black"/>
<path d="M26.9253 30.4004C27.1441 30.1815 27.4408 30.0586 27.7502 30.0586C28.0596 30.0586 28.3564 30.1815 28.575 30.4004L32.075 33.9004C32.3728 34.1945 32.4902 34.6256 32.3827 35.03C32.2753 35.4344 31.9593 35.7503 31.5549 35.8578C31.1505 35.9653 30.7194 35.8478 30.4253 35.55L26.9253 32.05C26.7065 31.8313 26.5835 31.5346 26.5835 31.2252C26.5835 30.9158 26.7065 30.619 26.9253 30.4004Z" fill="black"/>
<path d="M7.91901 35.8921C7.4472 35.8919 7.02186 35.6077 6.8414 35.1718C6.66093 34.736 6.76059 34.2342 7.09419 33.9006L10.5942 30.4006C11.051 29.9521 11.7838 29.9555 12.2365 30.408C12.6891 30.8606 12.6924 31.5935 12.2438 32.0503L8.74384 35.5503C8.52536 35.7694 8.22855 35.8925 7.91901 35.8921Z" fill="black"/>
<path d="M27.105 39.2691C26.5286 39.557 25.8279 39.3235 25.5395 38.7472L23.2061 34.0806C23.0186 33.7076 23.0445 33.2627 23.2744 32.9141C23.5042 32.5655 23.9027 32.3663 24.3194 32.3916C24.7362 32.4168 25.1076 32.6629 25.2934 33.0369L27.6268 37.7035C27.7652 37.9802 27.788 38.3007 27.6901 38.5944C27.5922 38.888 27.3818 39.1307 27.105 39.2691Z" fill="black"/>
<path d="M20.75 33.5587V38.2253C20.75 38.8697 20.2277 39.3919 19.5834 39.3919C18.939 39.3919 18.4167 38.8695 18.4167 38.2253V33.5587C18.4167 32.9144 18.9392 32.3921 19.5834 32.3921C20.2276 32.3921 20.75 32.9145 20.75 33.5587Z" fill="black"/>
<path d="M15.4331 32.5151C15.7099 32.6534 15.9204 32.8961 16.0182 33.1896C16.1161 33.4832 16.0933 33.8036 15.9549 34.0805L13.6216 38.7471C13.3325 39.3219 12.6328 39.5542 12.0574 39.2665C11.4819 38.9789 11.248 38.2797 11.5343 37.7035L13.8677 33.0369C14.006 32.7601 14.2487 32.5497 14.5422 32.4518C14.8358 32.3539 15.1562 32.3766 15.4331 32.5151Z" fill="black"/>
</g>
<defs>
<clipPath id="clip0_226_16466">
<rect width="70" height="70" fill="white" transform="translate(22 0.585205)"/>
</clipPath>
<clipPath id="clip1_226_16466">
<rect width="70" height="70" fill="white" transform="matrix(-1 0 0 1 70 0.585205)"/>
</clipPath>
</defs>
</svg>
