<svg width="88" height="84" viewBox="0 0 88 84" fill="none" xmlns="http://www.w3.org/2000/svg">
<path d="M82.9193 79H3.65715C3.0606 79 2.57617 78.5142 2.57617 77.9155C2.57617 77.317 3.0604 76.8311 3.65715 76.8311H82.9193C83.5158 76.8311 84 77.3168 84 77.9155C84 78.514 83.516 79 82.9193 79Z" fill="black"/>
<path d="M76 32.4996C76 47.1361 67.5903 59 57.2162 59C52.002 59 47.0888 55.9462 43.5623 50.7303C43.5623 50.7303 54.6929 44.1299 60.8401 40.6883C63.0155 39.4701 62.7801 35.3609 62.2311 34.6235C61.7749 34.0097 39 45.8395 39 45.8395C39.3234 43.4919 41.1641 22.5195 40.1757 21.3353C43.1618 12.2793 49.6695 6 57.2162 6C67.5903 6 76 17.8646 76 32.4996Z" fill="#FFDD57"/>
<path d="M49.4798 23.8834C49.0835 23.8834 48.7016 23.6634 48.5121 23.2839C48.2455 22.7474 48.4617 22.0968 48.9955 21.8289L58.7707 16.9255C59.3055 16.6593 59.9545 16.875 60.2213 17.4105C60.4878 17.9461 60.2714 18.5968 59.7376 18.865L49.9626 23.7689C49.8071 23.8464 49.6419 23.8834 49.4798 23.8834Z" fill="white"/>
<path d="M48.0836 33.6892C47.6988 33.6892 47.3263 33.483 47.1318 33.1188C46.8479 32.592 47.0453 31.9341 47.5705 31.6508L65.7244 21.8443C66.249 21.5608 66.9054 21.7573 67.1879 22.2853C67.4718 22.8122 67.2744 23.4701 66.7492 23.7535L48.5953 33.5599C48.4332 33.6482 48.2572 33.6894 48.0836 33.6894V33.6892Z" fill="white"/>
<path d="M45.4548 78.0695C45.3417 78.0695 45.2262 78.0515 45.1131 78.0139C44.5467 77.8244 44.2404 77.21 44.4294 76.6425C44.9315 75.1274 46.6062 74.2875 48.226 73.4757C49.3356 72.9192 50.7168 72.2259 50.9367 71.5645C51.8135 68.9245 51.4535 65.4258 49.9726 62.204C49.7233 61.6603 49.9605 61.0156 50.5022 60.7647C51.0442 60.5139 51.6861 60.7515 51.936 61.296C53.6409 65.0057 54.0335 69.1009 52.9873 72.2505C52.4843 73.7642 50.8104 74.6035 49.1914 75.4159C48.0816 75.9724 46.6998 76.6652 46.48 77.3271C46.3292 77.7818 45.9069 78.0695 45.4546 78.0695H45.4548Z" fill="black"/>
<path d="M69.2466 78.0696C68.794 78.0696 68.3725 77.7818 68.2218 77.328C68.0014 76.6656 66.6193 75.9725 65.5088 75.416C63.8905 74.6036 62.2172 73.7643 61.7137 72.2506C60.663 69.088 61.0621 64.9806 62.7802 61.2625C63.0309 60.7196 63.6744 60.4856 64.2155 60.7344C64.7575 60.9866 64.9923 61.6314 64.7414 62.1743C63.2492 65.4035 62.884 68.9136 63.7645 71.5646C63.9849 72.2265 65.3662 72.9193 66.4759 73.4758C68.095 74.2876 69.7688 75.1275 70.2718 76.642C70.4606 77.2103 70.155 77.8246 69.5888 78.0142C69.4757 78.0517 69.3603 78.0697 69.2464 78.0697L69.2466 78.0696Z" fill="black"/>
<path d="M13.9216 51.8775C15.1437 51.2472 16.4487 51.0275 17.7082 51.151V15.3865H14.627C12.3494 15.3865 10.5024 17.2384 10.5024 19.5243V55.611C11.176 54.0344 12.3477 52.6901 13.9214 51.8773L13.9216 51.8775Z" fill="#D8D8E4"/>
<path d="M18.358 66.4008C14.9778 67.1238 11.4182 65.4834 9.84871 62.221C9.82362 62.1689 9.80548 62.1149 9.78174 62.062V72.8003C9.78174 75.0102 10.6356 77.6907 14.9014 77.6907C19.1684 77.6907 20.8756 74.1341 19.1684 69.6877C19.1684 69.6877 18.77 68.2289 18.358 66.4006V66.4008Z" fill="#D8D8E4"/>
<path d="M15.2622 78.4252C11.3216 78.4252 9.06104 76.2472 9.06104 72.4497V62.0122C9.06104 61.4137 9.54527 60.9277 10.142 60.9277C10.7386 60.9277 11.223 61.4135 11.223 62.0122V72.4497C11.223 75.0471 12.5062 76.2567 15.2622 76.2567C16.7323 76.2567 17.844 75.7651 18.4797 74.8363C19.2953 73.6455 19.3098 71.7827 18.5208 69.7277C18.3062 69.1689 18.5836 68.5414 19.1405 68.3259C19.6952 68.11 20.323 68.3888 20.5377 68.9484C21.5876 71.6809 21.4866 74.2744 20.2624 76.0636C19.2203 77.5868 17.4449 78.4252 15.2622 78.4252Z" fill="black"/>
<path d="M10.142 55.8679C9.54546 55.8679 9.06104 55.3821 9.06104 54.7835V19.1628C9.06104 16.2829 11.3957 13.9409 14.2664 13.9409H17.3476C17.9441 13.9409 18.4284 14.4265 18.4284 15.0252V48.2777C18.4284 48.8762 17.9443 49.3622 17.3476 49.3622C16.751 49.3622 16.2666 48.8764 16.2666 48.2777V16.1096H14.2664C12.5883 16.1096 11.2228 17.4787 11.2228 19.163V54.7837C11.2228 55.3821 10.7386 55.8681 10.1418 55.8681L10.142 55.8679Z" fill="black"/>
<path d="M26.715 16.1094H18.0683C17.4715 16.1094 16.9873 15.6236 16.9873 15.0249C16.9873 14.4265 17.4713 13.9407 18.0683 13.9407H26.715C27.3115 13.9407 27.796 14.4263 27.796 15.0249C27.796 15.6234 27.3117 16.1094 26.715 16.1094Z" fill="black"/>
<path d="M28.877 22.6152H18.0688C17.472 22.6152 16.9878 22.1295 16.9878 21.5308C16.9878 20.9323 17.4718 20.4465 18.0688 20.4465H28.877C29.4736 20.4465 29.958 20.9321 29.958 21.5308C29.958 22.1293 29.4738 22.6152 28.877 22.6152Z" fill="black"/>
<path d="M28.877 28.3985H18.0688C17.472 28.3985 16.9878 27.9127 16.9878 27.314C16.9878 26.7155 17.4718 26.2297 18.0688 26.2297H28.877C29.4736 26.2297 29.958 26.7153 29.958 27.314C29.958 27.9125 29.4738 28.3985 28.877 28.3985Z" fill="black"/>
<path d="M28.877 34.1814H18.0688C17.472 34.1814 16.9878 33.6958 16.9878 33.0971C16.9878 32.4987 17.4718 32.0127 18.0688 32.0127H28.877C29.4736 32.0127 29.958 32.4985 29.958 33.0971C29.958 33.6956 29.4738 34.1814 28.877 34.1814Z" fill="black"/>
<path d="M28.1561 39.9646H18.0683C17.4715 39.9646 16.9873 39.4788 16.9873 38.8801C16.9873 38.2816 17.4713 37.7957 18.0683 37.7957H28.1561C28.7526 37.7957 29.2371 38.2814 29.2371 38.8801C29.2371 39.4786 28.7528 39.9646 28.1561 39.9646Z" fill="black"/>
<path d="M25.9948 45.7475H18.0688C17.472 45.7475 16.9878 45.2617 16.9878 44.6631C16.9878 44.0646 17.4718 43.5786 18.0688 43.5786H25.9948C26.5914 43.5786 27.0758 44.0644 27.0758 44.6631C27.0758 45.2615 26.5916 45.7475 25.9948 45.7475Z" fill="black"/>
<path d="M9.72262 59.1838C9.68363 59.1838 9.64542 59.1815 9.60663 59.1772C9.01277 59.1135 8.58335 58.5793 8.64685 57.9843C8.95738 55.0597 10.7185 52.5512 13.3558 51.2739C16.3735 49.8129 19.9627 50.2865 22.501 52.4782C22.9536 52.8685 23.0055 53.5538 22.6156 54.0078C22.2266 54.4616 21.5449 54.5137 21.0912 54.1218C19.2033 52.4918 16.5349 52.1427 14.2963 53.2269C12.3362 54.1753 11.0279 56.0404 10.7957 58.2139C10.7364 58.7704 10.268 59.1834 9.72281 59.1834L9.72262 59.1838Z" fill="black"/>
<path d="M17.0258 67.3093C13.8964 67.3093 10.886 65.5514 9.43675 62.5407C9.17736 62.0013 9.40278 61.3536 9.94048 61.0926C10.4772 60.831 11.1237 61.0579 11.3837 61.5979C12.882 64.7107 16.6265 66.0206 19.728 64.5191C21.6145 63.6054 22.9136 61.8148 23.2025 59.7307C23.2845 59.1373 23.8352 58.7258 24.4217 58.8062C25.0132 58.8894 25.4255 59.4364 25.3432 60.03C24.9542 62.8346 23.2062 65.2426 20.6675 66.4715C19.4931 67.0403 18.2502 67.3091 17.0258 67.3091V67.3093Z" fill="black"/>
<path d="M17.0084 56.8062C16.7079 56.8062 16.4038 56.8727 16.1164 57.0115C15.6206 57.2514 15.2473 57.6707 15.0665 58.1918C14.8849 58.713 14.9165 59.2747 15.1557 59.7715C15.6507 60.7986 16.8857 61.2302 17.9069 60.7349C18.4034 60.495 18.7759 60.0757 18.9575 59.5539C19.1384 59.0334 19.1067 58.4717 18.8674 57.9751C18.5123 57.237 17.775 56.8062 17.0083 56.8062H17.0084ZM17.0187 63.1083C15.4477 63.1083 13.9375 62.2264 13.2097 60.7148C12.7189 59.6956 12.6533 58.5463 13.0252 57.4769C13.3969 56.4093 14.1606 55.5497 15.1767 55.059C16.1926 54.5669 17.3383 54.501 18.4025 54.8739C19.4669 55.2468 20.3236 56.0132 20.8144 57.0316C21.3044 58.0502 21.37 59.2003 20.9979 60.2687C20.627 61.3363 19.8625 62.1966 18.8471 62.6874C18.2577 62.9736 17.633 63.1081 17.0185 63.1081L17.0187 63.1083Z" fill="black"/>
<path d="M30.6284 64.5106C30.5873 64.5106 30.5472 64.5083 30.5059 64.5033C29.913 64.4361 29.4865 63.8997 29.5527 63.3048L34.0677 23.0665C34.1773 21.5636 34.9367 20.0703 36.1466 19.0112C37.3621 17.9457 38.9439 17.3991 40.4816 17.5141C41.0731 17.5585 41.5178 18.0708 41.4809 18.6634L38.6878 63.4943C38.6504 64.092 38.1577 64.5416 37.5416 64.5085C36.9464 64.4709 36.4933 63.9563 36.5305 63.3584L39.2462 19.7674C38.6425 19.9127 38.0618 20.213 37.5681 20.6445C36.7833 21.3321 36.2922 22.2883 36.2192 23.2679L31.7007 63.5481C31.6386 64.1019 31.1712 64.511 30.6284 64.511V64.5106Z" fill="black"/>
<path d="M22.0566 54.2644C21.653 54.2644 21.2653 54.0367 21.0802 53.6464C20.8237 53.1056 21.0528 52.458 21.5917 52.2014L31.7532 47.353C32.2915 47.0965 32.9378 47.3248 33.1935 47.8663C33.45 48.4069 33.2209 49.054 32.6819 49.3113L22.5206 54.1595C22.3706 54.2303 22.2121 54.2644 22.0564 54.2644H22.0566Z" fill="black"/>
<path d="M38.3188 53.3911C37.934 53.3911 37.5623 53.1845 37.3662 52.8209C37.0839 52.2939 37.2807 51.6354 37.8066 51.3521L59.6885 39.5416C60.6053 39.0905 61.307 38.2773 61.65 37.2904C61.8661 36.6695 61.9273 36.0176 61.8366 35.4009L39.3253 46.1421C38.7857 46.398 38.1409 46.1696 37.885 45.6288C37.6287 45.088 37.8576 44.4406 38.3966 44.1838L62.0261 32.9098C62.5615 32.6554 63.2013 32.8781 63.4607 33.4115C64.1396 34.8025 64.2238 36.4774 63.6907 38.0062C63.1611 39.5265 62.063 40.7893 60.6765 41.4703L38.8305 53.2618C38.6678 53.3493 38.4924 53.3911 38.3188 53.3911Z" fill="black"/>
<path d="M24.6565 60.7653C24.2711 60.7653 23.8991 60.5585 23.7033 60.1951C23.4207 59.6681 23.6176 59.0103 24.1435 58.7261L30.7677 55.1517C31.2944 54.8698 31.9495 55.0658 32.232 55.5928C32.5152 56.1204 32.3175 56.7781 31.7924 57.0616L25.1681 60.6369C25.0044 60.7244 24.8294 60.7657 24.6565 60.7657V60.7653Z" fill="black"/>
<path d="M33.7754 78.5197C33.5679 78.5197 33.3589 78.5118 33.1485 78.4965C28.5225 78.1524 25.0378 74.0979 25.3802 69.4569C25.6035 66.4366 27.4381 63.7535 30.1669 62.4529C30.7065 62.1941 31.3515 62.426 31.6065 62.9668C31.8629 63.5076 31.6333 64.1552 31.0942 64.411C29.0658 65.3783 27.7017 67.3728 27.5369 69.6166C27.2818 73.0646 29.8706 76.0776 33.3072 76.333C36.7666 76.5961 39.7475 73.9908 40.0021 70.544C40.1763 68.1962 39.0405 65.9696 37.0397 64.7341C36.5318 64.4212 36.3723 63.7527 36.686 63.2431C36.9986 62.7327 37.6652 62.5736 38.1724 62.888C40.8644 64.55 42.3919 67.5441 42.1584 70.704C41.8315 75.133 38.1335 78.519 33.7754 78.5197Z" fill="black"/>
<path d="M33.7657 68.0129C33.2728 68.0129 32.8007 68.1879 32.4234 68.5139C32.0069 68.8747 31.7547 69.3761 31.7145 69.927C31.6732 70.4786 31.8485 71.0122 32.208 71.4306C32.5668 71.8484 33.0669 72.1015 33.6159 72.1427C34.7486 72.2388 35.7403 71.3706 35.8246 70.2337C35.9082 69.0965 35.0544 68.1035 33.9216 68.0181C33.8697 68.0144 33.8172 68.0131 33.7661 68.0131L33.7657 68.0129ZM33.7715 74.3163C33.6671 74.3163 33.5625 74.3126 33.4567 74.3054C32.3319 74.2216 31.3065 73.7041 30.5708 72.8467C29.8338 71.9894 29.4742 70.8958 29.5578 69.7665C29.6413 68.6388 30.1572 67.6101 31.0118 66.8721C31.8651 66.1326 32.9559 65.7725 34.0807 65.8548C34.0813 65.8548 34.0813 65.8548 34.0813 65.8548C36.4023 66.0292 38.1518 68.064 37.9802 70.3932C37.816 72.6167 35.9591 74.3163 33.7713 74.3163H33.7715Z" fill="black"/>
<path d="M57.2224 64C51.661 64 46.256 61.4134 42.0017 56.7171C41.606 56.2803 41.638 55.603 42.0727 55.2048C42.5074 54.8072 43.1814 54.8386 43.5778 55.2763C47.4231 59.5215 52.2686 61.8588 57.2226 61.8588C69.1585 61.8588 78.8692 48.6887 78.8692 32.4997C78.8692 16.3113 69.1585 3.14121 57.2226 3.14121C50.4161 3.14121 44.1362 7.36991 39.9926 14.7432C39.7035 15.2578 39.0536 15.4406 38.5415 15.1487C38.0296 14.8581 37.8483 14.2051 38.1382 13.6907C42.6702 5.62498 49.6264 1 57.2228 1C70.3334 1 81 15.1309 81 32.4997C81 49.8691 70.333 64 57.2224 64Z" fill="black"/>
<path d="M6.2743 63.4202C5.26473 63.4202 4.1629 63.3351 3.13403 63.0768C0.803774 62.492 -0.202324 60.1311 0.0335198 58.2069C0.194866 56.8889 0.967436 56.0366 1.99978 56.0366C3.05471 56.0366 3.55341 56.5846 3.8516 56.9114C4.10886 57.1939 4.33158 57.4382 5.49092 57.4382C7.94161 57.4382 9.19474 56.8537 9.20613 56.8477C9.7417 56.5911 10.3871 56.8136 10.6474 57.3495C10.9074 57.8837 10.6941 58.5264 10.164 58.7924C9.99742 58.8756 8.45344 59.6071 5.49111 59.6071C3.54203 59.6071 2.82446 58.9984 2.25647 58.3751C2.23987 58.3571 2.2225 58.3376 2.20378 58.3182C2.14279 58.6052 2.12735 59.1039 2.32421 59.6611C2.49694 60.1506 2.86808 60.7745 3.65783 60.9725C6.17568 61.6043 9.43676 60.9683 9.46918 60.9617C10.0507 60.8459 10.6235 61.2248 10.7403 61.8124C10.8563 62.4001 10.478 62.9707 9.89223 63.0876C9.79284 63.1079 8.20235 63.4202 6.2743 63.4202Z" fill="black"/>
<mask id="path-28-inside-1_718_8064" fill="white">
<rect y="77" width="88" height="7" rx="2"/>
</mask>
<rect y="77" width="88" height="7" rx="2" fill="#D9D9D9" stroke="black" stroke-width="4.8" stroke-linejoin="round" mask="url(#path-28-inside-1_718_8064)"/>
</svg>
