<svg width="87" height="80" viewBox="0 0 87 80" fill="none" xmlns="http://www.w3.org/2000/svg">
<path d="M18.0082 16.1394H70.5175C71.0275 16.1394 71.5167 16.342 71.8774 16.7027C72.2381 17.0634 72.4407 17.5526 72.4407 18.0627V72.4952H16.085V18.0627C16.085 17.5526 16.2876 17.0634 16.6483 16.7027C17.009 16.342 17.4981 16.1394 18.0082 16.1394Z" fill="#FFDD57" stroke="black" stroke-width="2.4" stroke-miterlimit="10"/>
<path d="M28.9087 3.42188H59.6184C60.414 3.42188 61.1771 3.73794 61.7397 4.30055C62.3023 4.86315 62.6183 5.62621 62.6183 6.42185V16.1396H25.9048V6.42185C25.9048 6.02756 25.9825 5.63714 26.1335 5.27291C26.2845 4.90868 26.5059 4.57779 26.7848 4.29917C27.0638 4.02054 27.395 3.79965 27.7594 3.64912C28.1238 3.49858 28.5144 3.42136 28.9087 3.42188Z" fill="#E4EAF8" stroke="black" stroke-width="2.4" stroke-miterlimit="10"/>
<path d="M44.2631 52.303C46.9408 52.303 49.5088 53.3667 51.4022 55.2601C53.2956 57.1535 54.3593 59.7215 54.3593 62.3991V72.4952H34.167V62.3991C34.167 59.7215 35.2307 57.1535 37.1241 55.2601C39.0175 53.3667 41.5855 52.303 44.2631 52.303Z" fill="#D8D8E4" stroke="black" stroke-width="2.4" stroke-miterlimit="10"/>
<path d="M28.7479 22.2756H23.0562V27.9674H28.7479V22.2756Z" fill="#D8D8E4" stroke="black" stroke-width="2.4" stroke-miterlimit="10"/>
<path d="M40.9906 22.2756H35.2988V27.9674H40.9906V22.2756Z" fill="#D8D8E4" stroke="black" stroke-width="2.4" stroke-miterlimit="10"/>
<path d="M53.2279 22.2756H47.5361V27.9674H53.2279V22.2756Z" fill="#D8D8E4" stroke="black" stroke-width="2.4" stroke-miterlimit="10"/>
<path d="M65.4657 22.2756H59.7739V27.9674H65.4657V22.2756Z" fill="#D8D8E4" stroke="black" stroke-width="2.4" stroke-miterlimit="10"/>
<path d="M28.7479 35.8674H23.0562V41.5592H28.7479V35.8674Z" fill="#D8D8E4" stroke="black" stroke-width="2.4" stroke-miterlimit="10"/>
<path d="M40.9906 35.8674H35.2988V41.5592H40.9906V35.8674Z" fill="#D8D8E4" stroke="black" stroke-width="2.4" stroke-miterlimit="10"/>
<path d="M53.2279 35.8674H47.5361V41.5592H53.2279V35.8674Z" fill="#D8D8E4" stroke="black" stroke-width="2.4" stroke-miterlimit="10"/>
<path d="M65.4657 35.8674H59.7739V41.5592H65.4657V35.8674Z" fill="#D8D8E4" stroke="black" stroke-width="2.4" stroke-miterlimit="10"/>
<path d="M28.7479 49.459H23.0562V55.1507H28.7479V49.459Z" fill="#D8D8E4" stroke="black" stroke-width="2.4" stroke-miterlimit="10"/>
<path d="M65.4657 49.459H59.7739V55.1507H65.4657V49.459Z" fill="#9DCC96" stroke="black" stroke-width="2.4" stroke-miterlimit="10"/>
<path d="M44.2632 52.303V72.4952" stroke="black" stroke-width="2.4" stroke-miterlimit="10"/>
<path d="M32.8053 7.206L33.0823 8.06035C33.1222 8.17512 33.1972 8.27448 33.2965 8.34446C33.3959 8.41444 33.5147 8.45151 33.6362 8.45046H34.5335C34.6555 8.45154 34.7741 8.49098 34.8724 8.56319C34.9707 8.63541 35.0439 8.73674 35.0814 8.85283C35.119 8.96892 35.119 9.09388 35.0816 9.21001C35.0442 9.32614 34.9712 9.42755 34.8729 9.49986L34.1473 10.0382C34.0485 10.1103 33.975 10.2117 33.9372 10.3279C33.8994 10.4442 33.8992 10.5694 33.9366 10.6858L34.2136 11.5206C34.2505 11.6371 34.2498 11.7622 34.2115 11.8782C34.1733 11.9942 34.0995 12.0952 34.0006 12.1669C33.9017 12.2385 33.7828 12.2773 33.6607 12.2775C33.5385 12.2778 33.4194 12.2395 33.3202 12.1682L32.5946 11.6416C32.4954 11.5696 32.3759 11.5308 32.2533 11.5308C32.1307 11.5308 32.0112 11.5696 31.9119 11.6416L31.1863 12.1682C31.0871 12.2395 30.968 12.2778 30.8459 12.2775C30.7238 12.2773 30.6048 12.2385 30.5059 12.1669C30.407 12.0952 30.3332 11.9942 30.295 11.8782C30.2568 11.7622 30.2561 11.6371 30.293 11.5206L30.5699 10.6663C30.6074 10.5499 30.6072 10.4247 30.5694 10.3084C30.5315 10.1922 30.458 10.0908 30.3593 10.0187L29.6337 9.49206C29.5419 9.41652 29.4755 9.31467 29.4435 9.20023C29.4114 9.0858 29.4151 8.96428 29.4542 8.85205C29.4934 8.73983 29.5659 8.64229 29.6622 8.57257C29.7584 8.50286 29.8737 8.46433 29.9926 8.46216H30.8898C31.0114 8.46321 31.1302 8.42614 31.2295 8.35616C31.3289 8.28619 31.4038 8.18682 31.4438 8.07205L31.7208 7.2177C31.7618 7.10774 31.8352 7.0128 31.9313 6.94536C32.0274 6.87792 32.1416 6.84114 32.259 6.83988C32.3764 6.83861 32.4914 6.87291 32.5889 6.93826C32.6864 7.00361 32.7618 7.09695 32.8053 7.206Z" fill="black"/>
<path d="M40.8107 7.20568L41.0877 8.06003C41.1276 8.17481 41.2026 8.27417 41.3019 8.34415C41.4013 8.41412 41.5201 8.45119 41.6416 8.45014H42.5389C42.6609 8.45122 42.7795 8.49066 42.8778 8.56288C42.9762 8.6351 43.0493 8.73643 43.0868 8.85252C43.1244 8.96861 43.1244 9.09357 43.087 9.2097C43.0496 9.32583 42.9766 9.42723 42.8783 9.49955L42.1527 10.0262C42.0539 10.0983 41.9804 10.1997 41.9426 10.3159C41.9048 10.4322 41.9046 10.5574 41.942 10.6738L42.219 11.5281C42.2559 11.6446 42.2552 11.7697 42.217 11.8857C42.1787 12.0017 42.1049 12.1027 42.006 12.1743C41.9072 12.246 41.7882 12.2847 41.6661 12.285C41.5439 12.2852 41.4248 12.247 41.3257 12.1757L40.6 11.6491C40.5008 11.5771 40.3813 11.5383 40.2587 11.5383C40.1361 11.5383 40.0166 11.5771 39.9173 11.6491L39.1917 12.1757C39.092 12.2485 38.9718 12.2876 38.8484 12.2874C38.725 12.2873 38.6048 12.2478 38.5053 12.1748C38.4058 12.1018 38.3321 11.9991 38.2949 11.8814C38.2577 11.7637 38.2589 11.6373 38.2984 11.5203L38.5754 10.6855C38.6128 10.5691 38.6126 10.4439 38.5748 10.3276C38.537 10.2114 38.4635 10.11 38.3647 10.0379L37.6391 9.51125C37.5408 9.43894 37.4678 9.33753 37.4304 9.2214C37.3929 9.10527 37.393 8.98031 37.4305 8.86422C37.4681 8.74813 37.5412 8.6468 37.6396 8.57458C37.7379 8.50237 37.8565 8.46293 37.9785 8.46185H38.8757C38.9973 8.4629 39.1161 8.42583 39.2154 8.35585C39.3148 8.28587 39.3897 8.18651 39.4297 8.07174L39.7067 7.21739C39.7438 7.10081 39.8166 6.99891 39.915 6.92617C40.0134 6.85344 40.1321 6.81359 40.2545 6.81229C40.3768 6.81099 40.4964 6.84832 40.5963 6.91895C40.6961 6.98958 40.7712 7.08992 40.8107 7.20568Z" fill="black"/>
<path d="M48.8161 7.20597L49.0931 8.06032C49.133 8.17509 49.208 8.27446 49.3073 8.34443C49.4067 8.41441 49.5255 8.45148 49.647 8.45043H50.5443C50.6663 8.45151 50.7849 8.49095 50.8832 8.56317C50.9815 8.63539 51.0547 8.73672 51.0922 8.85281C51.1298 8.9689 51.1298 9.09386 51.0924 9.20999C51.055 9.32611 50.982 9.42752 50.8837 9.49984L50.1581 10.0265C50.0593 10.0986 49.9858 10.1999 49.948 10.3162C49.9102 10.4325 49.91 10.5577 49.9474 10.6741L50.2244 11.5284C50.2613 11.6449 50.2606 11.7699 50.2223 11.8859C50.1841 12.0019 50.1103 12.103 50.0114 12.1746C49.9125 12.2463 49.7936 12.285 49.6715 12.2853C49.5493 12.2855 49.4302 12.2473 49.331 12.176L48.6054 11.6494C48.5062 11.5774 48.3867 11.5386 48.2641 11.5386C48.1415 11.5386 48.022 11.5774 47.9227 11.6494L47.1971 12.176C47.0974 12.2487 46.9772 12.2879 46.8538 12.2877C46.7303 12.2875 46.6102 12.2481 46.5107 12.1751C46.4112 12.1021 46.3375 11.9993 46.3003 11.8817C46.2631 11.764 46.2643 11.6376 46.3038 11.5206L46.5807 10.6663C46.6146 10.5534 46.6133 10.4328 46.5771 10.3206C46.5409 10.2085 46.4714 10.11 46.3779 10.0382L45.6523 9.51154C45.554 9.43922 45.481 9.33782 45.4436 9.22169C45.4061 9.10556 45.4062 8.9806 45.4437 8.86451C45.4813 8.74842 45.5544 8.64709 45.6527 8.57487C45.7511 8.50265 45.8697 8.46321 45.9917 8.46214H46.8889C47.0105 8.46318 47.1293 8.42611 47.2286 8.35614C47.328 8.28616 47.4029 8.1868 47.4429 8.07202L47.7199 7.21767C47.7587 7.10385 47.8318 7.00486 47.9293 6.93435C48.0267 6.86384 48.1436 6.82529 48.2638 6.82401C48.3841 6.82272 48.5018 6.85877 48.6007 6.92718C48.6996 6.99559 48.7749 7.093 48.8161 7.20597Z" fill="black"/>
<path d="M56.8214 7.20586L57.0984 8.0602C57.1384 8.17498 57.2133 8.27434 57.3127 8.34432C57.4121 8.4143 57.5309 8.45137 57.6524 8.45032H58.5496C58.6717 8.4514 58.7902 8.49084 58.8886 8.56305C58.9869 8.63527 59.06 8.7366 59.0976 8.85269C59.1351 8.96878 59.1352 9.09374 59.0978 9.20987C59.0603 9.326 58.9873 9.42741 58.889 9.49972L58.1634 10.0264C58.0647 10.0984 57.9912 10.1998 57.9533 10.3161C57.9155 10.4324 57.9153 10.5576 57.9528 10.674L58.2298 11.5283C58.2666 11.6447 58.2659 11.7698 58.2277 11.8858C58.1895 12.0018 58.1157 12.1028 58.0168 12.1745C57.9179 12.2462 57.7989 12.2849 57.6768 12.2852C57.5547 12.2854 57.4356 12.2472 57.3364 12.1759L56.6108 11.6492C56.5115 11.5772 56.3921 11.5385 56.2694 11.5385C56.1468 11.5385 56.0273 11.5772 55.9281 11.6492L55.2025 12.1759C55.1028 12.2486 54.9825 12.2877 54.8591 12.2876C54.7357 12.2874 54.6156 12.248 54.5161 12.175C54.4166 12.102 54.3429 11.9992 54.3057 11.8816C54.2685 11.7639 54.2697 11.6374 54.3091 11.5205L54.5861 10.6662C54.6235 10.5498 54.6233 10.4246 54.5855 10.3083C54.5477 10.192 54.4742 10.0906 54.3754 10.0186L53.6498 9.49192C53.5516 9.4196 53.4785 9.3182 53.4411 9.20207C53.4037 9.08594 53.4037 8.96098 53.4413 8.84489C53.4788 8.7288 53.552 8.62747 53.6503 8.55525C53.7486 8.48303 53.8672 8.44359 53.9892 8.44252H54.8865C55.008 8.44357 55.1268 8.40649 55.2262 8.33652C55.3255 8.26654 55.4005 8.16718 55.4404 8.0524L55.7174 7.19806C55.7566 7.08217 55.8312 6.98158 55.9309 6.9106C56.0305 6.83963 56.1499 6.80188 56.2723 6.80275C56.3946 6.80361 56.5135 6.84304 56.6121 6.91542C56.7107 6.98779 56.784 7.08943 56.8214 7.20586Z" fill="black"/>
<path d="M29.2473 78.39H77.4029C77.799 78.4044 78.1939 78.3388 78.564 78.1972C78.9342 78.0556 79.272 77.8408 79.5573 77.5657C79.8426 77.2906 80.0695 76.9608 80.2245 76.596C80.3795 76.2313 80.4594 75.839 80.4594 75.4427C80.4594 75.0463 80.3795 74.6541 80.2245 74.2893C80.0695 73.9245 79.8426 73.5948 79.5573 73.3196C79.272 73.0445 78.9342 72.8298 78.564 72.6881C78.1939 72.5465 77.799 72.4809 77.4029 72.4954H10.9354C10.5393 72.4809 10.1444 72.5465 9.77427 72.6881C9.40411 72.8298 9.06629 73.0445 8.78099 73.3196C8.49569 73.5948 8.26877 73.9245 8.11378 74.2893C7.95879 74.6541 7.87891 75.0463 7.87891 75.4427C7.87891 75.839 7.95879 76.2313 8.11378 76.596C8.26877 76.9608 8.49569 77.2906 8.78099 77.5657C9.06629 77.8408 9.40411 78.0556 9.77427 78.1972C10.1444 78.3388 10.5393 78.4044 10.9354 78.39H18.843" fill="#E4EAF8"/>
<path d="M29.2473 78.39H77.4029C77.799 78.4044 78.1939 78.3388 78.564 78.1972C78.9342 78.0556 79.272 77.8408 79.5573 77.5657C79.8426 77.2906 80.0695 76.9608 80.2245 76.596C80.3795 76.2313 80.4594 75.839 80.4594 75.4427C80.4594 75.0463 80.3795 74.6541 80.2245 74.2893C80.0695 73.9245 79.8426 73.5948 79.5573 73.3196C79.272 73.0445 78.9342 72.8298 78.564 72.6881C78.1939 72.5465 77.799 72.4809 77.4029 72.4954H10.9354C10.5393 72.4809 10.1444 72.5465 9.77427 72.6881C9.40411 72.8298 9.06629 73.0445 8.78099 73.3196C8.49569 73.5948 8.26877 73.9245 8.11378 74.2893C7.95879 74.6541 7.87891 75.0463 7.87891 75.4427C7.87891 75.839 7.95879 76.2313 8.11378 76.596C8.26877 76.9608 8.49569 77.2906 8.78099 77.5657C9.06629 77.8408 9.40411 78.0556 9.77427 78.1972C10.1444 78.3388 10.5393 78.4044 10.9354 78.39H18.843" stroke="black" stroke-width="2.4" stroke-miterlimit="10"/>
<path d="M24.176 79.689C24.8935 79.689 25.4751 79.1074 25.4751 78.3899C25.4751 77.6724 24.8935 77.0908 24.176 77.0908C23.4586 77.0908 22.877 77.6724 22.877 78.3899C22.877 79.1074 23.4586 79.689 24.176 79.689Z" fill="black"/>
<path d="M16.6318 62.3989H24.8242" stroke="black" stroke-width="2.4" stroke-miterlimit="10"/>
<path d="M26.7744 62.3989H28.7523" stroke="black" stroke-width="2.4" stroke-miterlimit="10"/>
<path d="M16.085 68.3792H22.8729" stroke="black" stroke-width="2.4" stroke-miterlimit="10"/>
</svg>
