<svg width="72" height="73" viewBox="0 0 72 73" fill="none" xmlns="http://www.w3.org/2000/svg">
<g clip-path="url(#clip0_226_16597)">
<path d="M61.5296 13.1791L58.3281 11.7586L59.9833 8.1416L63.1588 9.57619C63.6537 9.80005 63.8735 10.3828 63.6498 10.8777L62.8313 12.6879C62.6074 13.183 62.0247 13.403 61.5296 13.1791Z" fill="#CBE5E8"/>
<path d="M55.4636 15.8084L50.0514 53.0653V55.39H21.9609V53.0653L49.5712 13.144L49.9118 12.4487L54.8209 14.9033L55.4636 15.8084Z" fill="#FEE97D"/>
<path d="M16.5391 15.8085L21.9512 53.0654V55.3901H50.0418V53.0654L22.4315 13.144L21.2724 13.1441L17.1815 14.9033L16.5391 15.8085Z" fill="#FEE45A"/>
<path d="M36.0028 32.4944L22.0938 51.5817V53.7671H49.9119V51.5817L36.0028 32.4944Z" fill="#FED402"/>
<path d="M18.7188 58.6658L20.3967 54.1509C20.6393 53.4984 21.262 53.0654 21.9582 53.0654H50.0486C50.7448 53.0654 51.3675 53.4984 51.61 54.1509L53.288 58.6658V61.033H18.7188V58.6658Z" fill="#E4EAF8"/>
<path d="M28.314 54.1509C28.5565 53.4984 29.1792 53.0654 29.8754 53.0654H21.9582C21.262 53.0654 20.6393 53.4984 20.3967 54.1509L18.7188 58.6658V61.033H26.636V58.6658L28.314 54.1509Z" fill="#C3C8D1"/>
<path d="M11.1562 64.4694V60.3367C11.1562 59.4139 11.9043 58.6658 12.8272 58.6658H59.1703C60.0932 58.6658 60.8413 59.4139 60.8413 60.3367V64.4694V67.2568H11.1562V64.4694Z" fill="#E4EAF8"/>
<path d="M19.0735 60.3367C19.0735 59.4139 19.8216 58.6658 20.7444 58.6658H12.8272C11.9043 58.6658 11.1562 59.4139 11.1562 60.3367V64.4694V67.2568H19.0735V64.4694V60.3367Z" fill="#C3C8D1"/>
<path d="M36.5917 33.7341L39.3244 39.2714C39.4194 39.4636 39.6027 39.5969 39.8148 39.6277L45.9255 40.5157C46.4597 40.5933 46.673 41.2499 46.2865 41.6266L41.8647 45.9367C41.7112 46.0863 41.6411 46.3018 41.6774 46.5132L42.6633 52.2614C42.7634 52.8454 42.0952 53.2488 41.625 52.8884L36.4038 48.8848C36.17 48.7056 35.845 48.7056 35.6111 48.8848L30.39 52.8884C29.9199 53.2489 29.2515 52.8454 29.3518 52.2614L30.3377 46.5132C30.374 46.3018 30.3039 46.0863 30.1504 45.9367L25.7286 41.6266C25.3421 41.2497 25.5554 40.5933 26.0896 40.5157L32.2003 39.6277C32.4125 39.5969 32.5959 39.4636 32.6906 39.2714L35.4234 33.7341C35.6625 33.2501 36.3528 33.2501 36.5917 33.7341Z" fill="#FFDD57"/>
<path d="M35.6881 48.8353L39.1005 38.8178L36.5915 33.7342C36.3526 33.2501 35.6623 33.2501 35.4234 33.7342L32.6907 39.2715C32.5957 39.4637 32.4124 39.5969 32.2003 39.6278L26.0896 40.5158C25.5554 40.5934 25.3421 41.25 25.7286 41.6267L30.1504 45.9368C30.3039 46.0864 30.374 46.302 30.3377 46.5133L29.3518 52.2615C29.2517 52.8455 29.9199 53.2489 30.39 52.8885L35.6112 48.885C35.6356 48.8658 35.6616 48.8502 35.6881 48.8353Z" fill="#FFDD57"/>
<path d="M63.1155 64.4695H8.89564C8.05573 64.4695 7.375 65.1504 7.375 65.9901V70.0098C7.375 70.8498 8.05587 71.5305 8.89564 71.5305H63.1155C63.9554 71.5305 64.6361 70.8496 64.6361 70.0098V65.9901C64.6363 65.1504 63.9554 64.4695 63.1155 64.4695Z" fill="#E4EAF8"/>
<path d="M15.2922 70.0098V65.9901C15.2922 65.1502 15.9731 64.4695 16.8129 64.4695H8.89564C8.05573 64.4695 7.375 65.1504 7.375 65.9901V70.0098C7.375 70.8497 8.05587 71.5305 8.89564 71.5305H16.8129C15.9731 71.5305 15.2922 70.8496 15.2922 70.0098Z" fill="#C3C8D1"/>
<path d="M66.027 2.69448H49.5156C48.933 2.69448 48.4609 2.22228 48.4609 1.63984C48.4609 1.0574 48.933 0.585205 49.5156 0.585205H66.027C66.6095 0.585205 67.0816 1.0574 67.0816 1.63984C67.0816 2.22228 66.6094 2.69448 66.027 2.69448Z" fill="#7CA1B1"/>
<path d="M58.6596 33.6004L60.8355 30.5741C61.1111 30.1909 61.6512 30.1042 62.0261 30.391C63.4446 31.4765 63.9971 32.9063 63.6835 34.6804C63.6054 35.1226 63.1927 35.4257 62.7472 35.3698L59.2392 34.9292C58.6044 34.8496 58.2861 34.1198 58.6596 33.6004Z" fill="#FFDD57"/>
<path d="M58.2157 40.8509L61.4087 41.2421C61.813 41.2916 62.1028 41.6645 62.0412 42.0671C61.8083 43.5909 60.9553 44.6023 59.4825 45.101C59.1155 45.2254 58.7149 45.0388 58.5724 44.6783L57.4504 41.8407C57.2474 41.3274 57.6677 40.7838 58.2157 40.8509Z" fill="#FFDD57"/>
<path d="M13.4998 33.6004L11.3239 30.5741C11.0484 30.1909 10.5081 30.1042 10.1332 30.391C8.71469 31.4765 8.1622 32.9063 8.47578 34.6804C8.55396 35.1226 8.96668 35.4257 9.41215 35.3698L12.9202 34.9292C13.5549 34.8496 13.8733 34.1198 13.4998 33.6004Z" fill="#FFDD57"/>
<path d="M13.9432 40.8509L10.7501 41.2421C10.3459 41.2916 10.056 41.6645 10.1176 42.0671C10.3505 43.5909 11.2035 44.6023 12.6763 45.101C13.0433 45.2254 13.444 45.0388 13.5864 44.6783L14.7084 41.8407C14.9115 41.3274 14.4911 40.7838 13.9432 40.8509Z" fill="#FFDD57"/>
<path d="M10.4656 13.1791L13.6671 11.7586L12.0118 8.1416L8.83641 9.57633C8.34143 9.80019 8.12165 10.3829 8.34537 10.8779L9.16391 12.6881C9.38777 13.183 9.97049 13.403 10.4656 13.1791Z" fill="#CBE5E8"/>
<path d="M18.8492 1.63989L23.167 11.1886C23.5033 11.9323 23.173 12.8078 22.4293 13.1441L16.5368 15.8087C15.7931 16.1451 14.9176 15.8148 14.5813 15.071L8.50781 1.63989H18.8492Z" fill="#E4EAF8"/>
<path d="M53.0102 1.63989L48.6924 11.1886C48.356 11.9323 48.6864 12.8078 49.4301 13.1441L55.3225 15.8087C56.0663 16.1451 56.9418 15.8148 57.2781 15.071L63.3516 1.63989H53.0102Z" fill="#E4EAF8"/>
<path d="M23.1692 11.1884C23.5056 11.9322 23.1753 12.8077 22.4315 13.144L16.5391 15.8086C15.7953 16.145 14.9198 15.8146 14.5835 15.0709L13.4453 12.5537L22.031 8.67139L23.1692 11.1884Z" fill="white"/>
<path d="M48.6824 11.1884C48.346 11.9322 48.6763 12.8077 49.42 13.144L55.3125 15.8086C56.0562 16.145 56.9317 15.8146 57.2681 15.0709L58.4062 12.5537L49.8205 8.67139L48.6824 11.1884Z" fill="white"/>
<path d="M5.97651 2.69448H22.4879C23.0705 2.69448 23.5425 2.22228 23.5425 1.63984C23.5425 1.0574 23.0705 0.585205 22.4879 0.585205H5.97651C5.39393 0.585205 4.92188 1.0574 4.92188 1.63984C4.92188 2.22228 5.39407 2.69448 5.97651 2.69448Z" fill="#7CA1B1"/>
<path d="M63.1204 63.4149H61.9075V60.3368C61.9075 58.8339 60.6849 57.6112 59.1819 57.6112H54.0283L52.6058 53.7834C52.3568 53.1135 51.8556 52.5831 51.2352 52.2829L54.8555 27.3602C54.9394 26.7838 54.54 26.2486 53.9635 26.1649C53.3869 26.0807 52.8519 26.4805 52.7682 27.057L49.4221 50.0921L47.1985 46.8771C46.8674 46.3982 46.2105 46.2781 45.7311 46.6097C45.2522 46.941 45.1324 47.5979 45.4638 48.077L48.1846 52.0109H43.6931L42.7555 46.5441L47.0254 42.382C47.4938 41.9254 47.6591 41.2553 47.4571 40.6332C47.2548 40.0112 46.7272 39.5662 46.0798 39.4722L40.1791 38.6147L37.54 33.2675C37.2503 32.681 36.6642 32.3167 36.0102 32.3167C35.3562 32.3167 34.7701 32.681 34.4804 33.2677L32.7994 36.6737C32.5417 37.196 32.7561 37.8285 33.2784 38.0862C33.8011 38.3443 34.4331 38.1295 34.6909 37.6073L36.0102 34.9341L38.381 39.7379C38.6295 40.2418 39.1097 40.5908 39.6658 40.6716L44.9677 41.4421L41.1309 45.182C40.7292 45.5739 40.5458 46.1379 40.6406 46.6918L41.4524 51.4253L37.0484 48.0482C36.437 47.5794 35.5833 47.5795 34.9721 48.0482L30.568 51.4253L31.3799 46.6912C31.4745 46.138 31.2912 45.5739 30.8893 45.1818L27.0527 41.4421L30.3627 40.9612C30.9392 40.8775 31.3384 40.3423 31.2548 39.7659C31.1709 39.1894 30.6343 38.79 30.0595 38.874L25.9405 39.4725C25.2932 39.5665 24.7656 40.0114 24.5634 40.6335C24.3614 41.2556 24.5267 41.9257 24.9951 42.3823L29.265 46.5444L28.3274 52.0112H23.9768L26.6409 48.1591C26.9721 47.68 26.8524 47.0231 26.3733 46.6918C25.8944 46.3605 25.2374 46.4801 24.906 46.9592L22.7393 50.0921L17.8512 16.4429L22.2189 14.4677L33.099 30.1992C33.3036 30.4952 33.6326 30.654 33.9673 30.654C34.1741 30.654 34.3832 30.5933 34.5663 30.4667C35.0453 30.1354 35.1651 29.4784 34.8336 28.9993L23.9953 13.3277C24.1405 13.1359 24.2594 12.9226 24.3466 12.6913C24.5854 12.0584 24.5634 11.3703 24.2847 10.754L20.6405 2.69448H22.6441C23.2267 2.69448 23.6988 2.22228 23.6988 1.63984C23.6988 1.0574 23.2267 0.585205 22.6441 0.585205H6.13276C5.55018 0.585205 5.07812 1.0574 5.07812 1.63984C5.07812 2.22228 5.55018 2.69448 6.13276 2.69448H7.98414L10.3046 7.8262L8.55913 8.61549C8.06303 8.83977 7.68392 9.24391 7.49169 9.75337C7.29961 10.2628 7.31747 10.8164 7.54161 11.3124L8.36001 13.1227C8.70031 13.8752 9.44376 14.3211 10.2202 14.3211C10.5006 14.3211 10.7855 14.263 11.0571 14.1401L12.8028 13.3509L13.777 15.5055C14.0557 16.1218 14.5579 16.5928 15.1908 16.8315C15.389 16.9063 15.5926 16.9534 15.7976 16.9772L20.9178 52.2237C20.2368 52.5099 19.6815 53.0667 19.415 53.7836L17.9925 57.6113H12.8388C11.3359 57.6113 10.1132 58.834 10.1132 60.3369V63.4151H8.90041C7.4803 63.4151 6.32513 64.5704 6.32513 65.9904V70.0101C6.32513 71.43 7.48045 72.5853 8.90041 72.5853H63.1202C64.5403 72.5853 65.6955 71.43 65.6955 70.0101V65.9904C65.6958 64.5701 64.5405 63.4149 63.1204 63.4149ZM36.0105 49.91L38.7501 52.0107H33.2708L36.0105 49.91ZM18.3255 2.69448L20.7901 8.14498L14.1263 11.1581L10.2991 2.69448H18.3255ZM10.2529 12.1892L9.49297 10.5082L11.1738 9.74816L11.9338 11.4291L10.2529 12.1892ZM14.9954 13.0801L21.6591 10.0669L22.3628 11.6232C22.4256 11.7621 22.3962 11.8857 22.3732 11.9469C22.35 12.0082 22.2905 12.1203 22.1516 12.1831L16.2591 14.8477C16.0461 14.9439 15.7951 14.8491 15.6992 14.6365L14.9954 13.0801ZM21.3924 54.5183C21.4809 54.2801 21.7111 54.1201 21.9652 54.1201H50.0557C50.3099 54.1201 50.54 54.2801 50.6286 54.5183L51.778 57.6112H20.2429L21.3924 54.5183ZM63.5865 70.0099C63.5865 70.2668 63.3774 70.4759 63.1205 70.4759H8.90055C8.64364 70.4759 8.43454 70.2668 8.43454 70.0099V65.9902C8.43454 65.7332 8.64364 65.5242 8.90055 65.5242H14.4462C15.0288 65.5242 15.5009 65.052 15.5009 64.4696C15.5009 63.8871 15.0288 63.4149 14.4462 63.4149H12.2227V60.3368C12.2227 59.9969 12.4991 59.7205 12.839 59.7205H59.1819C59.5218 59.7205 59.7983 59.9969 59.7983 60.3368V63.4149H18.9408C18.3582 63.4149 17.8862 63.8871 17.8862 64.4696C17.8862 65.052 18.3582 65.5242 18.9408 65.5242H63.1204C63.3773 65.5242 63.5864 65.7333 63.5864 65.9902V70.0099H63.5865Z" fill="black"/>
<path d="M66.0332 0.585205H49.5218C48.9392 0.585205 48.4672 1.0574 48.4672 1.63984C48.4672 2.22228 48.9392 2.69448 49.5218 2.69448H51.5255L47.8812 10.7539C47.6025 11.3703 47.5804 12.0582 47.8193 12.6912C47.9066 12.9225 48.0256 13.1358 48.1706 13.3276L37.2967 29.0501C36.9654 29.5292 37.0851 30.1862 37.564 30.5175C37.7473 30.644 37.9561 30.7048 38.1631 30.7048C38.4976 30.7048 38.8268 30.546 39.0314 30.25L49.9469 14.4674L54.3146 16.4426L53.4211 22.5929C53.3373 23.1693 53.7367 23.7045 54.3132 23.7882C54.3647 23.7956 54.4157 23.7993 54.4662 23.7993C54.9814 23.7993 55.4322 23.4212 55.5085 22.8961L56.3682 16.9772C56.5732 16.9534 56.777 16.9063 56.9751 16.8315C57.608 16.5928 58.11 16.1218 58.3887 15.5055L59.3629 13.3509L61.1084 14.1402C61.3803 14.2631 61.6647 14.3212 61.9453 14.3212C62.7217 14.3212 63.4653 13.8752 63.8055 13.1229L64.6239 11.3127C64.8482 10.8166 64.866 10.263 64.6738 9.75351C64.4816 9.24405 64.1025 8.83991 63.6064 8.61563L61.8609 7.82634L64.1818 2.69448H66.0332C66.6157 2.69448 67.0878 2.22228 67.0878 1.63984C67.0878 1.0574 66.6156 0.585205 66.0332 0.585205V0.585205ZM56.4668 14.6365C56.4041 14.7753 56.2918 14.8349 56.2305 14.8579C56.1694 14.8811 56.0459 14.9104 55.9067 14.8475L50.0142 12.183C49.8753 12.1201 49.8158 12.008 49.7926 11.9467C49.7696 11.8854 49.7402 11.762 49.803 11.623L50.5067 10.0668L57.1706 13.08L56.4668 14.6365ZM62.673 10.5081L61.9131 12.189L60.2321 11.4288L60.9921 9.74788L62.673 10.5081ZM58.0396 11.1581L51.3758 8.14498L53.8405 2.69448H61.8668L58.0396 11.1581Z" fill="black"/>
<path d="M59.1013 35.9755L62.6093 36.4161C62.6896 36.4261 62.7695 36.431 62.8485 36.431C63.7574 36.431 64.5534 35.7805 64.7154 34.8638C65.0962 32.7095 64.3855 30.8732 62.6602 29.5531C62.253 29.2415 61.7478 29.1115 61.2387 29.1869C60.7328 29.2619 60.2713 29.543 59.9726 29.9582L57.7968 32.9845C57.402 33.5334 57.3277 34.2313 57.598 34.851C57.8683 35.4709 58.4303 35.8913 59.1013 35.9755ZM61.5553 31.3703C62.4753 32.1471 62.8326 33.0864 62.6694 34.2978L59.7171 33.927L61.5553 31.3703Z" fill="black"/>
<path d="M56.7179 40.4832C56.3295 40.9856 56.2371 41.6383 56.4707 42.2287L57.5927 45.0661C57.8687 45.7647 58.5372 46.1947 59.2496 46.1947C59.4394 46.1947 59.6323 46.1642 59.8218 46.1001C61.6644 45.4761 62.7929 44.1368 63.0848 42.2265C63.1576 41.7499 63.0367 41.2752 62.7445 40.8896C62.4544 40.5068 62.0147 40.2539 61.538 40.1954L58.345 39.8042C57.714 39.727 57.1064 39.9806 56.7179 40.4832ZM60.9324 42.2463C60.7234 43.0806 60.2394 43.6446 59.4356 43.9912L58.6345 41.9648L60.9324 42.2463Z" fill="black"/>
<path d="M12.1864 29.9581C11.8879 29.543 11.4264 29.2619 10.9205 29.187C10.411 29.1115 9.90632 29.2415 9.49881 29.5533C7.77356 30.8734 7.06302 32.7097 7.44381 34.864C7.6058 35.7808 8.40184 36.4312 9.31066 36.4312C9.38983 36.4312 9.4697 36.4263 9.54999 36.4161L13.0579 35.9756C13.7287 35.8914 14.2909 35.471 14.5611 34.8511C14.8313 34.2312 14.7571 33.5335 14.3622 32.9845H14.3624L12.1864 29.9581ZM9.48981 34.2979C9.32655 33.0863 9.68372 32.1473 10.6038 31.3703L12.4421 33.9271L9.48981 34.2979Z" fill="black"/>
<path d="M13.8152 39.804L10.622 40.1952C10.1455 40.2537 9.70577 40.5067 9.41567 40.8895C9.12347 41.275 9.00254 41.7499 9.07538 42.2263C9.3673 44.1365 10.4958 45.476 12.3384 46.0999C12.528 46.1641 12.7209 46.1946 12.9106 46.1946C13.6228 46.1946 14.2915 45.7644 14.5675 45.0661L15.6895 42.2286C15.9231 41.638 15.8307 40.9855 15.4423 40.4829C15.054 39.9808 14.4457 39.7273 13.8152 39.804ZM12.7246 43.9909C11.9206 43.6443 11.4369 43.0804 11.2278 42.246L13.5257 41.9645L12.7246 43.9909Z" fill="black"/>
</g>
<defs>
<clipPath id="clip0_226_16597">
<rect width="72" height="72" fill="white" transform="translate(0 0.585205)"/>
</clipPath>
</defs>
</svg>
