<svg width="79" height="75" viewBox="0 0 79 75" fill="none" xmlns="http://www.w3.org/2000/svg">
<rect x="77" y="10" width="7" height="75" rx="3.5" transform="rotate(90 77 10)" fill="#D9D9D9"/>
<rect x="78" y="68" width="6" height="77" rx="3" transform="rotate(90 78 68)" fill="#D9D9D9"/>
<rect x="35" y="63" width="6" height="14" rx="3" transform="rotate(90 35 63)" fill="#D9D9D9"/>
<rect x="58" y="63" width="6" height="14" rx="3" transform="rotate(90 58 63)" fill="#D9D9D9"/>
<path fill-rule="evenodd" clip-rule="evenodd" d="M58 42H21V48H58V42ZM54 49H25V53V55V63H32V55H48V63H55V53H54V49Z" fill="#FFDD57"/>
<rect x="6" y="6" width="15" height="17" fill="#FFDD57"/>
<rect x="58" y="6" width="15" height="17" fill="#FFDD57"/>
<rect x="26" y="3" width="5" height="39" fill="#D9D9D9"/>
<rect x="48" y="3" width="5" height="39" fill="#D9D9D9"/>
<path d="M77.7656 67.125H59.25V64.6562C59.2493 64.0017 58.989 63.3741 58.5262 62.9113C58.0634 62.4485 57.4358 62.1882 56.7812 62.1875H55.5469V49.8438H58.0156C58.343 49.8438 58.657 49.7137 58.8885 49.4822C59.12 49.2507 59.25 48.9368 59.25 48.6094V42.4375C59.25 42.1101 59.12 41.7962 58.8885 41.5647C58.657 41.3332 58.343 41.2031 58.0156 41.2031H55.5469V27.625C55.5469 27.2976 55.4168 26.9837 55.1853 26.7522C54.9538 26.5207 54.6399 26.3906 54.3125 26.3906V18.9844H56.7812V20.2188C56.7781 20.9349 56.9836 21.6366 57.3727 22.2379C57.7618 22.8392 58.3176 23.3141 58.9722 23.6048C59.6268 23.8954 60.3519 23.989 61.0588 23.8743C61.7658 23.7596 62.424 23.4414 62.9531 22.9587C63.6261 23.5781 64.5073 23.9219 65.4219 23.9219C66.3365 23.9219 67.2177 23.5781 67.8906 22.9587C68.4197 23.4414 69.078 23.7596 69.7849 23.8743C70.4919 23.989 71.217 23.8954 71.8716 23.6048C72.5262 23.3141 73.0819 22.8392 73.471 22.2379C73.8601 21.6366 74.0656 20.9349 74.0625 20.2188V18.9844C75.372 18.9844 76.6279 18.4642 77.5538 17.5382C78.4798 16.6123 79 15.3564 79 14.0469C79 12.7374 78.4798 11.4815 77.5538 10.5555C76.6279 9.62957 75.372 9.10938 74.0625 9.10938V7.875C74.0656 7.1588 73.8601 6.45719 73.471 5.85588C73.0819 5.25457 72.5262 4.77961 71.8716 4.489C71.217 4.19839 70.4919 4.10473 69.7849 4.21945C69.078 4.33418 68.4197 4.65232 67.8906 5.13502C67.2177 4.51566 66.3365 4.17188 65.4219 4.17188C64.5073 4.17188 63.6261 4.51566 62.9531 5.13502C62.424 4.65232 61.7658 4.33418 61.0588 4.21945C60.3519 4.10473 59.6268 4.19839 58.9722 4.489C58.3176 4.77961 57.7618 5.25457 57.3727 5.85588C56.9836 6.45719 56.7781 7.1588 56.7812 7.875V9.10938H54.3125V4.17188C54.3125 3.18975 53.9223 2.24784 53.2279 1.55337C52.5334 0.8589 51.5915 0.46875 50.6094 0.46875C49.6272 0.46875 48.6853 0.8589 47.9909 1.55337C47.2964 2.24784 46.9062 3.18975 46.9062 4.17188V9.10938H32.0938V4.17188C32.0938 3.18975 31.7036 2.24784 31.0091 1.55337C30.3147 0.8589 29.3728 0.46875 28.3906 0.46875C27.4085 0.46875 26.4666 0.8589 25.7721 1.55337C25.0776 2.24784 24.6875 3.18975 24.6875 4.17188V9.10938H22.2188V7.875C22.2219 7.1588 22.0164 6.45719 21.6273 5.85588C21.2382 5.25457 20.6824 4.77961 20.0278 4.489C19.3732 4.19839 18.6481 4.10473 17.9412 4.21945C17.2342 4.33418 16.576 4.65232 16.0469 5.13502C15.3739 4.51566 14.4927 4.17188 13.5781 4.17188C12.6635 4.17188 11.7823 4.51566 11.1094 5.13502C10.5803 4.65232 9.92202 4.33418 9.21507 4.21945C8.50811 4.10473 7.78304 4.19839 7.12844 4.489C6.47384 4.77961 5.91805 5.25457 5.52897 5.85588C5.13989 6.45719 4.93436 7.1588 4.9375 7.875V9.10938C3.62799 9.10938 2.37212 9.62957 1.44616 10.5555C0.520199 11.4815 0 12.7374 0 14.0469C0 15.3564 0.520199 16.6123 1.44616 17.5382C2.37212 18.4642 3.62799 18.9844 4.9375 18.9844V20.2188C4.93436 20.9349 5.13989 21.6366 5.52897 22.2379C5.91805 22.8392 6.47384 23.3141 7.12844 23.6048C7.78304 23.8954 8.50811 23.989 9.21507 23.8743C9.92202 23.7596 10.5803 23.4414 11.1094 22.9587C11.7823 23.5781 12.6635 23.9219 13.5781 23.9219C14.4927 23.9219 15.3739 23.5781 16.0469 22.9587C16.576 23.4414 17.2342 23.7596 17.9412 23.8743C18.6481 23.989 19.3732 23.8954 20.0278 23.6048C20.6824 23.3141 21.2382 22.8392 21.6273 22.2379C22.0164 21.6366 22.2219 20.9349 22.2188 20.2188V18.9844H24.6875V26.3906C24.3601 26.3906 24.0462 26.5207 23.8147 26.7522C23.5832 26.9837 23.4531 27.2976 23.4531 27.625V41.2031H20.9844C20.657 41.2031 20.343 41.3332 20.1115 41.5647C19.88 41.7962 19.75 42.1101 19.75 42.4375V48.6094C19.75 48.9368 19.88 49.2507 20.1115 49.4822C20.343 49.7137 20.657 49.8438 20.9844 49.8438H23.4531V62.1875H22.2188C21.5642 62.1882 20.9366 62.4485 20.4738 62.9113C20.011 63.3741 19.7507 64.0017 19.75 64.6562V67.125H1.23438C0.906998 67.125 0.59303 67.2551 0.36154 67.4865C0.13005 67.718 0 68.032 0 68.3594L0 73.2969C0 73.6243 0.13005 73.9382 0.36154 74.1697C0.59303 74.4012 0.906998 74.5312 1.23438 74.5312H77.7656C78.093 74.5312 78.407 74.4012 78.6385 74.1697C78.8699 73.9382 79 73.6243 79 73.2969V68.3594C79 68.032 78.8699 67.718 78.6385 67.4865C78.407 67.2551 78.093 67.125 77.7656 67.125ZM56.7812 67.125H44.4375V64.6562H56.7812V67.125ZM37.0312 67.125V64.6562C37.0306 64.0017 36.7703 63.3741 36.3074 62.9113C35.8446 62.4485 35.2171 62.1882 34.5625 62.1875H33.3281V56.0156H45.6719V62.1875H44.4375C43.7829 62.1882 43.1554 62.4485 42.6926 62.9113C42.2297 63.3741 41.9694 64.0017 41.9688 64.6562V67.125H37.0312ZM33.3281 41.2031V27.625C33.3281 27.2976 33.1981 26.9837 32.9666 26.7522C32.7351 26.5207 32.4211 26.3906 32.0938 26.3906V18.9844H46.9062V26.3906C46.5789 26.3906 46.2649 26.5207 46.0334 26.7522C45.8019 26.9837 45.6719 27.2976 45.6719 27.625V41.2031H33.3281ZM48.1406 28.8594H53.0781V41.2031H48.1406V28.8594ZM51.8438 26.3906H49.375V18.9844H51.8438V26.3906ZM76.5312 14.0469C76.5306 14.7014 76.2703 15.329 75.8074 15.7918C75.3446 16.2547 74.7171 16.515 74.0625 16.5156V11.5781C74.7171 11.5788 75.3446 11.8391 75.8074 12.3019C76.2703 12.7648 76.5306 13.3923 76.5312 14.0469ZM70.3594 6.64062C70.6866 6.64105 71.0003 6.77124 71.2317 7.00263C71.4631 7.23403 71.5933 7.54775 71.5938 7.875V20.2188C71.5938 20.5461 71.4637 20.8601 71.2322 21.0916C71.0007 21.3231 70.6868 21.4531 70.3594 21.4531C70.032 21.4531 69.718 21.3231 69.4865 21.0916C69.2551 20.8601 69.125 20.5461 69.125 20.2188V7.875C69.1254 7.54775 69.2556 7.23403 69.487 7.00263C69.7184 6.77124 70.0321 6.64105 70.3594 6.64062ZM65.4219 6.64062C65.7491 6.64105 66.0628 6.77124 66.2942 7.00263C66.5256 7.23403 66.6558 7.54775 66.6562 7.875V20.2188C66.6562 20.5461 66.5262 20.8601 66.2947 21.0916C66.0632 21.3231 65.7493 21.4531 65.4219 21.4531C65.0945 21.4531 64.7805 21.3231 64.549 21.0916C64.3176 20.8601 64.1875 20.5461 64.1875 20.2188V7.875C64.1879 7.54775 64.3181 7.23403 64.5495 7.00263C64.7809 6.77124 65.0946 6.64105 65.4219 6.64062ZM59.25 7.875C59.25 7.54762 59.38 7.23366 59.6115 7.00217C59.843 6.77068 60.157 6.64062 60.4844 6.64062C60.8118 6.64062 61.1257 6.77068 61.3572 7.00217C61.5887 7.23366 61.7188 7.54762 61.7188 7.875V20.2188C61.7188 20.5461 61.5887 20.8601 61.3572 21.0916C61.1257 21.3231 60.8118 21.4531 60.4844 21.4531C60.157 21.4531 59.843 21.3231 59.6115 21.0916C59.38 20.8601 59.25 20.5461 59.25 20.2188V7.875ZM49.375 4.17188C49.375 3.8445 49.505 3.53053 49.7365 3.29904C49.968 3.06755 50.282 2.9375 50.6094 2.9375C50.9368 2.9375 51.2507 3.06755 51.4822 3.29904C51.7137 3.53053 51.8438 3.8445 51.8438 4.17188V9.10938H49.375V4.17188ZM27.1562 4.17188C27.1562 3.8445 27.2863 3.53053 27.5178 3.29904C27.7493 3.06755 28.0632 2.9375 28.3906 2.9375C28.718 2.9375 29.032 3.06755 29.2635 3.29904C29.495 3.53053 29.625 3.8445 29.625 4.17188V9.10938H27.1562V4.17188ZM2.46875 14.0469C2.4694 13.3923 2.72971 12.7648 3.19255 12.3019C3.65539 11.8391 4.28295 11.5788 4.9375 11.5781V16.5156C4.28295 16.515 3.65539 16.2547 3.19255 15.7918C2.72971 15.329 2.4694 14.7014 2.46875 14.0469ZM8.64062 21.4531C8.31338 21.4527 7.99966 21.3225 7.76826 21.0911C7.53686 20.8597 7.40667 20.546 7.40625 20.2188V7.875C7.40625 7.54762 7.5363 7.23366 7.76779 7.00217C7.99928 6.77068 8.31325 6.64062 8.64062 6.64062C8.968 6.64062 9.28197 6.77068 9.51346 7.00217C9.74495 7.23366 9.875 7.54762 9.875 7.875V20.2188C9.87458 20.546 9.74439 20.8597 9.51299 21.0911C9.28159 21.3225 8.96787 21.4527 8.64062 21.4531ZM13.5781 21.4531C13.2509 21.4527 12.9372 21.3225 12.7058 21.0911C12.4744 20.8597 12.3442 20.546 12.3438 20.2188V7.875C12.3438 7.54762 12.4738 7.23366 12.7053 7.00217C12.9368 6.77068 13.2507 6.64062 13.5781 6.64062C13.9055 6.64062 14.2195 6.77068 14.451 7.00217C14.6825 7.23366 14.8125 7.54762 14.8125 7.875V20.2188C14.8121 20.546 14.6819 20.8597 14.4505 21.0911C14.2191 21.3225 13.9054 21.4527 13.5781 21.4531ZM19.75 20.2188C19.75 20.5461 19.62 20.8601 19.3885 21.0916C19.157 21.3231 18.843 21.4531 18.5156 21.4531C18.1882 21.4531 17.8743 21.3231 17.6428 21.0916C17.4113 20.8601 17.2812 20.5461 17.2812 20.2188V7.875C17.2812 7.54762 17.4113 7.23366 17.6428 7.00217C17.8743 6.77068 18.1882 6.64062 18.5156 6.64062C18.843 6.64062 19.157 6.77068 19.3885 7.00217C19.62 7.23366 19.75 7.54762 19.75 7.875V20.2188ZM22.2188 11.5781H56.7812V16.5156H22.2188V11.5781ZM27.1562 18.9844H29.625V26.3906H27.1562V18.9844ZM25.9219 28.8594H30.8594V41.2031H25.9219V28.8594ZM22.2188 43.6719H56.7812V47.375H22.2188V43.6719ZM25.9219 49.8438H53.0781V62.1875H48.1406V54.7812C48.1406 54.4539 48.0106 54.1399 47.7791 53.9084C47.5476 53.6769 47.2336 53.5469 46.9062 53.5469H32.0938C31.7664 53.5469 31.4524 53.6769 31.2209 53.9084C30.9894 54.1399 30.8594 54.4539 30.8594 54.7812V62.1875H25.9219V49.8438ZM22.2188 64.6562H34.5625V67.125H22.2188V64.6562ZM76.5312 72.0625H2.46875V69.5938H76.5312V72.0625Z" fill="black"/>
</svg>
