<svg width="85" height="87" viewBox="0 0 85 87" fill="none" xmlns="http://www.w3.org/2000/svg">
<g clip-path="url(#clip0_718_7947)">
<path d="M36.7466 72.5082C36.7466 71.5222 36.7466 33.6556 36.7466 32.1988C36.7466 31.6509 37.1857 31.2066 37.7273 31.2066H68.8885V11.2072C68.8885 10.3213 68.0278 9.69773 67.1988 9.98296L8.31534 30.251C7.23917 30.6214 6.51562 31.6438 6.51562 32.794V72.5082H36.7466Z" fill="#FFDD57"/>
<path d="M10.2416 29.5881L8.31534 30.2511C7.23916 30.6215 6.51562 31.644 6.51562 32.7942V72.5084H9.83614V31.0477C9.83614 30.5199 9.98241 30.018 10.2416 29.5881Z" fill="#DBAD5C"/>
<path d="M78.8132 30.8706H37.387C36.8454 30.8706 36.4062 31.3149 36.4062 31.8629C36.4062 32.4175 36.4062 39.0673 36.4062 47.1436H79.8284C79.8284 38.9181 79.8284 32.1845 79.8284 31.8978C79.8284 31.3305 79.3739 30.8706 78.8132 30.8706Z" fill="#FFDD57"/>
<path d="M68.3819 51.8984H47.8455C47.577 51.8984 47.3594 52.1187 47.3594 52.3903C47.3594 53.1124 47.3594 72.0193 47.3594 72.5081H68.8851C68.8851 72.0574 68.8851 52.777 68.8851 52.4076C68.8851 52.1264 68.6598 51.8984 68.3819 51.8984Z" fill="#E4EAF8"/>
<path d="M58.1222 51.8984H47.8455C47.577 51.8984 47.3594 52.1187 47.3594 52.3903C47.3594 53.1124 47.3594 72.0193 47.3594 72.5081H58.1222V51.8984Z" fill="#D8DCE5"/>
<path d="M51.166 51.8984H47.8455C47.577 51.8984 47.3594 52.1187 47.3594 52.3903C47.3594 53.1124 47.3594 72.0193 47.3594 72.5081H50.6799C50.6799 72.0193 50.6799 53.1124 50.6799 52.3903C50.6799 52.1187 50.8976 51.8984 51.166 51.8984Z" fill="#C3C8D1"/>
<path d="M30.0511 66.167H12.9062V72.5082H30.0511V66.167Z" fill="#D8DCE5"/>
<path d="M30.0511 59.8257H12.9062V66.1669H30.0511V59.8257Z" fill="#D8DCE5"/>
<path d="M30.0511 53.4844H12.9062V59.8256H30.0511V53.4844Z" fill="#D8DCE5"/>
<path d="M16.2268 66.167H12.9062V72.5082H16.2268V66.167Z" fill="white"/>
<path d="M16.2268 59.8257H12.9062V66.1669H16.2268V59.8257Z" fill="white"/>
<path d="M16.2268 53.4844H12.9062V59.8256H16.2268V53.4844Z" fill="white"/>
<path d="M29.7932 53.8352V48.7447C29.7932 48.054 29.2399 47.4941 28.5572 47.4941H13.8845C13.2018 47.4941 12.6484 48.054 12.6484 48.7447V53.8352H29.7932Z" fill="#D8DCE5"/>
<path d="M17.4628 47.1436H14.1423C13.4596 47.1436 12.9062 47.7034 12.9062 48.3942V53.4846H16.2268V48.3942C16.2266 47.7034 16.7801 47.1436 17.4628 47.1436Z" fill="white"/>
<path d="M81.7021 72.4207C79.6909 72.4207 4.11298 72.4207 3.37002 72.4207C2.22129 72.4207 1.28125 73.3894 1.28125 74.5735V75.0467C1.28125 76.2308 2.22112 77.1995 3.37002 77.1995C4.08376 77.1995 80.7061 77.1995 81.7021 77.1995C82.8508 77.1995 83.7909 76.2308 83.7909 75.0467V74.5735C83.7909 73.3894 82.851 72.4207 81.7021 72.4207Z" fill="#E4EAF8"/>
<path d="M81.7021 74.8099C80.7061 74.8099 4.08376 74.8099 3.37002 74.8099C2.55517 74.8099 1.84723 74.3213 1.50339 73.6152C1.3626 73.9045 1.28125 74.2292 1.28125 74.5734V75.0466C1.28125 76.2307 2.22112 77.1994 3.37002 77.1994C4.08376 77.1994 80.7061 77.1994 81.7021 77.1994C82.8508 77.1994 83.7909 76.2307 83.7909 75.0466V74.5734C83.7909 74.2292 83.7095 73.9045 83.5687 73.6152C83.2251 74.3213 82.5171 74.8099 81.7021 74.8099Z" fill="#D8DCE5"/>
<path d="M44.9007 44.0696C45.4096 44.0696 45.9185 43.8583 45.9185 43.436V38.3529L47.1582 40.6502C47.3147 40.9539 47.5629 41.033 47.7977 41.033C48.0456 41.033 48.3066 40.9407 48.4762 40.6502L49.7291 38.485V43.4361C49.7291 43.8586 50.2379 44.0698 50.747 44.0698C51.256 44.0698 51.7647 43.8584 51.7647 43.4361V35.4484C51.7647 34.6959 51.269 34.4187 50.747 34.4187C50.0163 34.4187 49.703 34.498 49.1679 35.4484L47.8238 37.825L46.4796 35.4484C45.9445 34.4978 45.6316 34.4187 44.9007 34.4187C44.3918 34.4187 43.8828 34.6959 43.8828 35.4484V43.4361C43.883 43.8583 44.3918 44.0696 44.9007 44.0696Z" fill="black"/>
<path d="M53.8275 44.0694C54.1537 44.0694 54.4147 43.9637 54.4931 43.6866L54.9367 42.0362H57.6903L58.1339 43.6866C58.2122 43.9637 58.4732 44.0694 58.7995 44.0694C59.3703 44.0694 60.2294 43.6872 60.0782 43.0791L57.6381 35.0254C57.4945 34.5633 56.9073 34.3389 56.3069 34.3389C55.7066 34.3389 55.1195 34.5633 54.9759 35.0254L52.5488 43.0791C52.3978 43.6857 53.2559 44.0694 53.8275 44.0694ZM56.3069 36.9135L57.2596 40.4518H55.3543L56.3069 36.9135Z" fill="black"/>
<path d="M61.7468 44.0696H65.8704C66.2618 44.0696 66.4576 43.6208 66.4576 43.1718C66.4576 42.7229 66.2618 42.2739 65.8704 42.2739H62.8952V35.0387C62.8952 34.603 62.3863 34.4182 61.8773 34.4182C61.3682 34.4182 60.8594 34.603 60.8594 35.0387V43.4358C60.8594 43.8583 61.3032 44.0696 61.7468 44.0696Z" fill="black"/>
<path d="M68.1687 44.0696H72.2922C72.6836 44.0696 72.8795 43.6208 72.8795 43.1718C72.8795 42.7229 72.6836 42.2739 72.2922 42.2739H69.3169V35.0387C69.3169 34.603 68.8082 34.4182 68.2992 34.4182C67.7901 34.4182 67.2812 34.603 67.2812 35.0387V43.4358C67.2812 43.8583 67.7249 44.0696 68.1687 44.0696Z" fill="black"/>
<path d="M81.6662 71.2763H81.0424V58.9115C81.0424 58.2157 80.4851 57.6517 79.7972 57.6517C79.1094 57.6517 78.5521 58.2157 78.5521 58.9115V71.2763H70.0942V52.4356C70.0942 51.4601 69.3097 50.6664 68.3458 50.6664C67.4551 50.6664 48.7196 50.6664 47.8096 50.6664C46.8549 50.6664 46.0783 51.4522 46.0783 52.4181V71.2761H37.6204V48.4313H78.5522V53.0322C78.5522 53.728 79.1096 54.2921 79.7974 54.2921C80.4853 54.2921 81.0426 53.728 81.0426 53.0322C81.0426 52.3324 81.0426 32.3265 81.0426 31.9257C81.0426 30.6647 80.0287 29.6387 78.7823 29.6387H70.0945V26.2952C70.7613 26.271 71.2947 25.718 71.2947 25.0377C71.2947 24.3574 70.7613 23.8044 70.0945 23.7802V21.1388C70.7613 21.1146 71.2947 20.5616 71.2947 19.8813C71.2947 19.2009 70.7613 18.648 70.0945 18.6238V11.235C70.0945 10.4136 69.7004 9.63774 69.0403 9.1595C68.38 8.6811 67.527 8.55343 66.7584 8.81834L7.87493 29.0862C6.29353 29.6304 5.2308 31.1318 5.2308 32.8219V71.2763H3.33396C1.49556 71.2763 0 72.7896 0 74.6494V75.1139C0 76.9738 1.49556 78.4871 3.33396 78.4871H39.5945C40.2823 78.4871 40.8397 77.923 40.8397 77.2272C40.8397 76.5315 40.2823 75.9674 39.5945 75.9674H3.33396C2.87673 75.9674 2.49039 75.5765 2.49039 75.1139V74.6494C2.49039 74.1868 2.87673 73.7959 3.33396 73.7959H81.6662C82.1234 73.7959 82.5096 74.1868 82.5096 74.6494V75.1139C82.5096 75.5765 82.1234 75.9674 81.6662 75.9674H45.4054C44.7175 75.9674 44.1602 76.5315 44.1602 77.2272C44.1602 77.923 44.7175 78.4871 45.4054 78.4871H81.666C83.5043 78.4871 84.9998 76.9739 84.9998 75.1139V74.6494C85 72.7896 83.5044 71.2763 81.6662 71.2763ZM78.5521 32.1583V45.9118H37.6203V32.1583H78.5521ZM28.7703 71.2763H14.1157V67.4547H28.7703V71.2763ZM28.7703 64.9351H14.1157V61.1135H28.7703V64.9351ZM28.7703 58.594H14.1157V54.7725H28.7703V58.594ZM28.7703 52.2528H14.1082L14.1067 48.4313H28.7703V52.2528ZM35.1299 31.8907C35.1299 33.7748 35.1299 69.4807 35.1299 71.2763H31.2606C31.2606 70.1508 31.2606 49.1355 31.2606 48.4221C31.2606 47.0377 30.1476 45.9116 28.7794 45.9116H14.1067C12.7385 45.9116 11.6255 47.0377 11.6255 48.4221C11.6255 49.2292 11.6255 70.4658 11.6255 71.2763H7.72119V32.822C7.72119 32.2111 8.10521 31.6685 8.677 31.4716L67.5605 11.2036C67.5701 11.2003 67.5764 11.1981 67.5902 11.208C67.604 11.2179 67.604 11.2248 67.604 11.235V18.6214H58.0862C57.3984 18.6214 56.841 19.1855 56.841 19.8813C56.841 20.577 57.3984 21.1411 58.0862 21.1411H67.604V23.7779H58.0862C57.3984 23.7779 56.841 24.3419 56.841 25.0377C56.841 25.7335 57.3984 26.2976 58.0862 26.2976H67.604V29.6387H37.3558C36.1283 29.6387 35.1299 30.6489 35.1299 31.8907ZM56.8409 71.2763H48.5685V53.1863H56.8409V71.2763ZM67.6037 71.2763H59.3313V53.1863H67.6037V71.2763Z" fill="black"/>
</g>
<defs>
<clipPath id="clip0_718_7947">
<rect width="85" height="86" fill="white" transform="translate(0 0.584961)"/>
</clipPath>
</defs>
</svg>
