<svg width="74" height="74" viewBox="0 0 74 74" fill="none" xmlns="http://www.w3.org/2000/svg">
<path d="M4.5 32.0227H13.25V67.4602H4.5V32.0227Z" fill="#EFF3F3"/>
<path d="M60.75 32.0227H69.5V67.4602H60.75V32.0227Z" fill="#EFF3F3"/>
<path d="M2 67.4602H72V72.5227H2V67.4602Z" fill="#D8DCE5"/>
<path d="M13.25 6.71021H60.75V67.4602H13.25V6.71021Z" fill="#F5FAFA"/>
<path d="M22 1.64771H52V6.71021H22V1.64771Z" fill="#C3C8D1"/>
<path d="M40.75 54.804H48.25V67.4602H40.75V54.804Z" fill="#FFDD57"/>
<path d="M48.25 54.804H55.75V67.4602H48.25V54.804Z" fill="#FFDD57"/>
<path d="M18.25 54.804H25.75V67.4602H18.25V54.804Z" fill="#FFDD57"/>
<path d="M25.75 54.804H33.25V67.4602H25.75V54.804Z" fill="#FFDD57"/>
<path d="M18.25 11.7727H25.75V19.3665H18.25V11.7727Z" fill="#FFDD57"/>
<path d="M25.75 11.7727H33.25V19.3665H25.75V11.7727Z" fill="#FFDD57"/>
<path d="M33.25 11.7727H40.75V19.3665H33.25V11.7727Z" fill="#FFDD57"/>
<path d="M40.75 11.7727H48.25V19.3665H40.75V11.7727Z" fill="#FFDD57"/>
<path d="M48.25 11.7727H55.75V19.3665H48.25V11.7727Z" fill="#FFDD57"/>
<path d="M18.25 19.3665H25.75V26.9602H18.25V19.3665Z" fill="#FFDD57"/>
<path d="M25.75 19.3665H33.25V26.9602H25.75V19.3665Z" fill="#FFDD57"/>
<path d="M33.25 19.3665H40.75V26.9602H33.25V19.3665Z" fill="#FFDD57"/>
<path d="M40.75 19.3665H48.25V26.9602H40.75V19.3665Z" fill="#FFDD57"/>
<path d="M48.25 19.3665H55.75V26.9602H48.25V19.3665Z" fill="#FFDD57"/>
<path d="M18.25 26.9602H25.75V34.554H18.25V26.9602Z" fill="#FFDD57"/>
<path d="M25.75 26.9602H33.25V34.554H25.75V26.9602Z" fill="#FFDD57"/>
<path d="M33.25 26.9602H40.75V34.554H33.25V26.9602Z" fill="#FFDD57"/>
<path d="M40.75 26.9602H48.25V34.554H40.75V26.9602Z" fill="#FFDD57"/>
<path d="M48.25 26.9602H55.75V34.554H48.25V26.9602Z" fill="#FFDD57"/>
<path d="M18.25 34.554H25.75V42.1477H18.25V34.554Z" fill="#FFDD57"/>
<path d="M25.75 34.554H33.25V42.1477H25.75V34.554Z" fill="#FFDD57"/>
<path d="M33.25 34.554H40.75V42.1477H33.25V34.554Z" fill="#FFDD57"/>
<path d="M40.75 34.554H48.25V42.1477H40.75V34.554Z" fill="#FFDD57"/>
<path d="M48.25 34.554H55.75V42.1477H48.25V34.554Z" fill="#FFDD57"/>
<path d="M18.25 42.1477H25.75V49.7415H18.25V42.1477Z" fill="#FFDD57"/>
<path d="M25.75 42.1477H33.25V49.7415H25.75V42.1477Z" fill="#FFDD57"/>
<path d="M33.25 42.1477H40.75V49.7415H33.25V42.1477Z" fill="#FFDD57"/>
<path d="M40.75 42.1477H48.25V49.7415H40.75V42.1477Z" fill="#FFDD57"/>
<path d="M48.25 42.1477H55.75V49.7415H48.25V42.1477Z" fill="#FFDD57"/>
<path d="M33.25 57.3352L25.75 64.929V59.8665L30.75 54.804H33.25V57.3352Z" fill="#FFDD57"/>
<path d="M23.25 67.4602H18.25L25.75 59.8665V64.929L23.25 67.4602Z" fill="#FFDD57"/>
<path d="M55.75 59.8665L48.25 67.4602V59.8665L53.25 54.804H55.75V59.8665Z" fill="#FFDD57"/>
<path d="M48.25 67.4602H40.75L48.25 59.8665V67.4602Z" fill="#FFDD57"/>
<path d="M40.75 26.9602H48.25L40.75 34.554V26.9602Z" fill="#FFDD57"/>
<path d="M48.25 19.3665H55.75L48.25 26.9602V19.3665Z" fill="#FFDD57"/>
<path d="M25.75 42.1477H33.25L25.75 49.7415V42.1477Z" fill="#FFDD57"/>
<path d="M33.25 34.554H40.75L33.25 42.1477V34.554Z" fill="#FFDD57"/>
<path d="M33.25 34.554H25.75L33.25 26.9602V34.554Z" fill="#FFDD57"/>
<path d="M25.75 42.1477H18.25L25.75 34.554V42.1477Z" fill="#FFDD57"/>
<path d="M48.25 19.3665H40.75L48.25 11.7727V19.3665Z" fill="#FFDD57"/>
<path d="M40.75 26.9602H33.25L40.75 19.3665V26.9602Z" fill="#FFDD57"/>
<path d="M40.75 49.7415H35.75L40.75 44.679V49.7415Z" fill="#FFDD57"/>
<path d="M48.25 42.1477H43.25L48.25 37.0852V42.1477Z" fill="#FFDD57"/>
<path d="M55.75 34.554H50.75L55.75 29.4915V34.554Z" fill="#FFDD57"/>
<path d="M25.75 26.9602H18.25L25.75 19.3665V26.9602Z" fill="#FFDD57"/>
<path d="M33.25 19.3665H25.75L33.25 11.7727V19.3665Z" fill="#FFDD57"/>
<path d="M25.75 19.3665H33.25L25.75 26.9602V19.3665Z" fill="#FFDD57"/>
<path d="M33.25 11.7727H40.75L33.25 19.3665V11.7727Z" fill="#FFDD57"/>
<path d="M48.25 42.1477L40.75 49.7415V44.679L43.25 42.1477H48.25Z" fill="#FFDD57"/>
<path d="M55.75 34.554L48.25 42.1477V37.0852L50.75 34.554H55.75Z" fill="#FFDD57"/>
<path d="M18.25 26.9602H25.75L18.25 34.554V26.9602Z" fill="#FFDD57"/>
<path d="M72 66.1946H70.75V32.0227C70.75 31.687 70.6183 31.3651 70.3839 31.1278C70.1495 30.8904 69.8315 30.7571 69.5 30.7571H62V6.71021C62 6.37454 61.8683 6.05262 61.6339 5.81527C61.3995 5.57792 61.0815 5.44458 60.75 5.44458H53.25V1.64771C53.25 1.31204 53.1183 0.990124 52.8839 0.752773C52.6495 0.515422 52.3315 0.38208 52 0.38208H22C21.6685 0.38208 21.3505 0.515422 21.1161 0.752773C20.8817 0.990124 20.75 1.31204 20.75 1.64771V5.44458H13.25C12.9185 5.44458 12.6005 5.57792 12.3661 5.81527C12.1317 6.05262 12 6.37454 12 6.71021V30.7571H4.5C4.16848 30.7571 3.85054 30.8904 3.61612 31.1278C3.3817 31.3651 3.25 31.687 3.25 32.0227V66.1946H2C1.66848 66.1946 1.35054 66.3279 1.11612 66.5653C0.881696 66.8026 0.75 67.1245 0.75 67.4602V72.5227C0.75 72.8584 0.881696 73.1803 1.11612 73.4176C1.35054 73.655 1.66848 73.7883 2 73.7883H72C72.3315 73.7883 72.6495 73.655 72.8839 73.4176C73.1183 73.1803 73.25 72.8584 73.25 72.5227V67.4602C73.25 67.1245 73.1183 66.8026 72.8839 66.5653C72.6495 66.3279 72.3315 66.1946 72 66.1946ZM68.25 33.2883V66.1946H62V33.2883H68.25ZM23.25 2.91333H50.75V5.44458H23.25V2.91333ZM14.5 7.97583H59.5V66.1946H57V54.804C57 54.4683 56.8683 54.1464 56.6339 53.909C56.3995 53.6717 56.0815 53.5383 55.75 53.5383H40.75C40.4185 53.5383 40.1005 53.6717 39.8661 53.909C39.6317 54.1464 39.5 54.4683 39.5 54.804V66.1946H34.5V54.804C34.5 54.4683 34.3683 54.1464 34.1339 53.909C33.8995 53.6717 33.5815 53.5383 33.25 53.5383H18.25C17.9185 53.5383 17.6005 53.6717 17.3661 53.909C17.1317 54.1464 17 54.4683 17 54.804V66.1946H14.5V7.97583ZM47 66.1946H42V56.0696H47V66.1946ZM49.5 56.0696H54.5V66.1946H49.5V56.0696ZM24.5 66.1946H19.5V56.0696H24.5V66.1946ZM27 56.0696H32V66.1946H27V56.0696ZM5.75 33.2883H12V66.1946H5.75V33.2883ZM70.75 71.2571H3.25V68.7258H70.75V71.2571Z" fill="black"/>
<path d="M18.25 51.0071H55.75C56.0815 51.0071 56.3995 50.8737 56.6339 50.6364C56.8683 50.399 57 50.0771 57 49.7415V11.7727C57 11.437 56.8683 11.1151 56.6339 10.8778C56.3995 10.6404 56.0815 10.5071 55.75 10.5071H18.25C17.9185 10.5071 17.6005 10.6404 17.3661 10.8778C17.1317 11.1151 17 11.437 17 11.7727V49.7415C17 50.0771 17.1317 50.399 17.3661 50.6364C17.6005 50.8737 17.9185 51.0071 18.25 51.0071ZM19.5 35.8196H24.5V40.8821H19.5V35.8196ZM19.5 28.2258H24.5V33.2883H19.5V28.2258ZM54.5 33.2883H49.5V28.2258H54.5V33.2883ZM47 33.2883H42V28.2258H47V33.2883ZM39.5 33.2883H34.5V28.2258H39.5V33.2883ZM32 33.2883H27V28.2258H32V33.2883ZM27 35.8196H32V40.8821H27V35.8196ZM34.5 35.8196H39.5V40.8821H34.5V35.8196ZM42 35.8196H47V40.8821H42V35.8196ZM49.5 35.8196H54.5V40.8821H49.5V35.8196ZM54.5 25.6946H49.5V20.6321H54.5V25.6946ZM47 25.6946H42V20.6321H47V25.6946ZM39.5 25.6946H34.5V20.6321H39.5V25.6946ZM32 25.6946H27V20.6321H32V25.6946ZM24.5 25.6946H19.5V20.6321H24.5V25.6946ZM19.5 43.4133H24.5V48.4758H19.5V43.4133ZM27 43.4133H32V48.4758H27V43.4133ZM34.5 43.4133H39.5V48.4758H34.5V43.4133ZM42 43.4133H47V48.4758H42V43.4133ZM54.5 48.4758H49.5V43.4133H54.5V48.4758ZM54.5 18.1008H49.5V13.0383H54.5V18.1008ZM47 18.1008H42V13.0383H47V18.1008ZM39.5 18.1008H34.5V13.0383H39.5V18.1008ZM32 18.1008H27V13.0383H32V18.1008ZM19.5 13.0383H24.5V18.1008H19.5V13.0383Z" fill="black"/>
</svg>
