<svg width="140" height="114" viewBox="0 0 140 114" fill="none" xmlns="http://www.w3.org/2000/svg">
<rect x="68.0156" y="44.3817" width="8.35153" height="45.3903" fill="#FFDD57"/>
<g clip-path="url(#clip0_226_16695)">
<path d="M99.128 51.0282C98.1813 51.0282 97.4141 51.7959 97.4141 52.7422V56.7891C97.4141 57.7358 98.1813 58.5031 99.128 58.5031C100.074 58.5031 100.842 57.7358 100.842 56.7891V52.7422C100.842 51.7959 100.074 51.0282 99.128 51.0282Z" fill="white"/>
<path d="M95.0058 49.1013C94.1832 48.6331 93.1365 48.9201 92.6683 49.7427L90.6312 53.321C90.1625 54.1437 90.45 55.1903 91.2726 55.6585C91.5399 55.8107 91.8314 55.883 92.1188 55.883C92.7147 55.883 93.2941 55.5719 93.6101 55.0171L95.6472 51.4388C96.1154 50.6162 95.8284 49.5695 95.0058 49.1013Z" fill="white"/>
<path d="M105.594 49.7426C105.126 48.92 104.08 48.633 103.257 49.1012C102.434 49.5694 102.147 50.6161 102.616 51.4387L104.653 55.0166C104.968 55.5718 105.548 55.8829 106.143 55.8829C106.431 55.8829 106.722 55.8106 106.99 55.6584C107.812 55.1898 108.1 54.1435 107.631 53.3209L105.594 49.7426Z" fill="white"/>
<path d="M84.2296 46.7705H114.028C114.975 46.7705 115.742 46.0032 115.742 45.0565V20.3702C115.742 19.4239 114.975 18.6562 114.028 18.6562H100.843V1.7568C100.843 0.81011 100.075 0.0428467 99.1292 0.0428467C98.1825 0.0428467 97.4153 0.81011 97.4153 1.7568V18.6562H84.2296C83.2833 18.6562 82.5156 19.4239 82.5156 20.3702V45.0565C82.5156 46.0032 83.2833 46.7705 84.2296 46.7705ZM85.9435 22.0842H112.314V43.3426H85.9435V22.0842Z" fill="white"/>
</g>
<g clip-path="url(#clip1_226_16695)">
<path d="M39.8095 51.0282C40.7562 51.0282 41.5234 51.7959 41.5234 52.7422V56.7891C41.5234 57.7358 40.7562 58.5031 39.8095 58.5031C38.8632 58.5031 38.0955 57.7358 38.0955 56.7891V52.7422C38.0955 51.7959 38.8632 51.0282 39.8095 51.0282Z" fill="white"/>
<path d="M43.9317 49.1013C44.7543 48.6331 45.801 48.9201 46.2692 49.7427L48.3063 53.321C48.775 54.1437 48.4875 55.1903 47.6649 55.6585C47.3976 55.8107 47.1061 55.883 46.8187 55.883C46.2228 55.883 45.6434 55.5719 45.3274 55.0171L43.2903 51.4388C42.8221 50.6162 43.1091 49.5695 43.9317 49.1013Z" fill="white"/>
<path d="M33.3435 49.7426C33.8117 48.92 34.8579 48.633 35.6805 49.1012C36.5032 49.5694 36.7906 50.6161 36.3219 51.4387L34.2848 55.0166C33.9693 55.5718 33.3899 55.8829 32.794 55.8829C32.5066 55.8829 32.2151 55.8106 31.9473 55.6584C31.1252 55.1898 30.8377 54.1435 31.3064 53.3209L33.3435 49.7426Z" fill="white"/>
<path d="M44.622 46.7705H34.9966C34.0504 46.7705 33.2826 46.0032 33.2826 45.0565V20.3702C33.2826 19.4239 34.0504 18.6562 34.9966 18.6562H38.0951V1.7568C38.0951 0.81011 38.8628 0.0428467 39.8091 0.0428467C40.7558 0.0428467 41.523 0.81011 41.523 1.7568V18.6562H44.622C45.5682 18.6562 46.3359 19.4239 46.3359 20.3702V45.0565C46.3359 46.0032 45.5682 46.7705 44.622 46.7705ZM42.908 22.0842H36.7106V43.3426H42.908V22.0842Z" fill="white"/>
<path d="M53.965 32.2776C53.965 40.3623 47.411 46.9163 39.3263 46.9163C31.2415 46.9163 24.6875 40.3623 24.6875 32.2776C24.6875 24.1928 31.2415 17.6388 39.3263 17.6388C47.411 17.6388 53.965 24.1928 53.965 32.2776Z" fill="#FFDD57" stroke="white" stroke-width="3"/>
</g>
<path d="M69.8798 94.9495C70.8265 94.9495 71.5938 95.7172 71.5938 96.6634V100.71C71.5938 101.657 70.8265 102.424 69.8798 102.424C68.9335 102.424 68.1658 101.657 68.1658 100.71V96.6634C68.1658 95.7172 68.9335 94.9495 69.8798 94.9495Z" fill="white"/>
<path d="M74.0098 93.0227C74.8324 92.5545 75.8791 92.8415 76.3473 93.6641L78.3844 97.2424C78.8531 98.0651 78.5657 99.1117 77.743 99.5799C77.4757 99.7321 77.1842 99.8045 76.8968 99.8045C76.3009 99.8045 75.7216 99.4933 75.4055 98.9385L73.3684 95.3602C72.9002 94.5376 73.1872 93.4909 74.0098 93.0227Z" fill="white"/>
<path d="M63.4216 93.6641C63.8898 92.8415 64.9361 92.5545 65.7587 93.0227C66.5813 93.4909 66.8687 94.5376 66.4001 95.3602L64.363 98.9381C64.0474 99.4933 63.468 99.8045 62.8722 99.8045C62.5847 99.8045 62.2933 99.7321 62.0255 99.5799C61.2033 99.1113 60.9158 98.0651 61.3845 97.2424L63.4216 93.6641Z" fill="white"/>
<path d="M74.7001 91.1521H65.0747C64.1285 91.1521 63.3608 90.3848 63.3608 89.4381V45.587C63.3608 44.6408 64.1285 43.8731 65.0747 43.8731H68.1732V1.7568C68.1732 0.81011 68.9409 0.0428467 69.8872 0.0428467C70.8339 0.0428467 71.6011 0.81011 71.6011 1.7568V43.8731H74.7001C75.6464 43.8731 76.4141 44.6408 76.4141 45.587V89.4381C76.4141 90.3848 75.6464 91.1521 74.7001 91.1521ZM72.9861 47.301H66.7887V87.7242H72.9861V47.301Z" fill="white"/>
<defs>
<clipPath id="clip0_226_16695">
<rect width="60.5486" height="58.5031" fill="white" transform="translate(78.4531)"/>
</clipPath>
<clipPath id="clip1_226_16695">
<rect width="60.5486" height="58.5031" fill="white" transform="matrix(-1 0 0 1 61.5469 0)"/>
</clipPath>
</defs>
</svg>
