<svg width="48" height="47" viewBox="0 0 48 47" fill="none" xmlns="http://www.w3.org/2000/svg">
<g clip-path="url(#clip0_226_6877)">
<path d="M20.377 32.0865C19.2903 32.448 18.4148 29.8269 18.1129 28.4711C17.5091 29.0737 16.0299 30.9115 14.9431 33.4423C13.5846 36.6057 15.8487 37.5096 18.1129 41.125C20.377 44.7403 28.9808 41.125 31.245 39.7692C33.5091 38.4134 33.0563 30.7307 30.3393 28.4711C28.1657 26.6634 26.1129 21.0897 25.3582 18.5288C24.6035 18.9807 23.0035 20.3365 22.6412 22.1442C22.1884 24.4038 22.1884 26.2115 23.094 28.923C23.9997 31.6346 21.7355 31.6346 20.377 32.0865Z" fill="#FFDD57"/>
<path d="M13.91 43.0874C14.5094 43.0874 14.909 42.6961 14.909 42.1092C14.909 41.5223 14.5094 41.131 13.91 41.131C9.61447 41.131 5.91839 35.7512 5.91839 31.3495C5.91839 27.2413 7.31699 23.2308 10.114 19.9052C10.4137 21.1768 11.0131 22.2528 11.8122 23.0352C12.8112 23.9156 14.1099 24.5025 15.4085 24.5025C15.5084 24.5025 15.5084 24.5025 15.5084 24.5025C16.8071 24.5025 18.0058 23.8178 18.9049 22.7418C20.2036 21.1767 20.5032 18.8292 19.9039 16.3839C19.0048 12.9604 19.5043 7.09151 23.7998 3.08105C23.7998 8.65648 26.8966 11.4931 29.6936 13.9385C30.293 14.4275 30.7925 14.9167 31.292 15.4057C34.8882 18.927 35.088 24.1113 33.19 26.85C32.9903 27.1435 32.9903 27.4369 33.0901 27.7303C33.19 28.0238 33.3898 28.2194 33.6895 28.3172C35.3877 28.8063 37.1858 28.6107 38.5844 27.6325C39.3836 27.1435 39.9829 26.3609 40.3825 25.4805C41.881 29.2953 41.7811 33.4035 39.8831 36.6314C38.2847 39.3703 35.6875 41.1309 32.9903 41.1309C32.3909 41.1309 31.9913 41.5222 31.9913 42.1091C31.9913 42.696 32.3909 43.0873 32.9903 43.0873C36.3868 43.0873 39.6833 41.0332 41.4815 37.414C44.1786 32.8167 43.879 27.0456 40.6823 21.8615C40.4826 21.568 39.983 21.3724 39.5835 21.4702C39.1839 21.6658 38.8842 22.0571 38.8842 22.4483C38.8842 24.1112 38.2848 25.3828 37.2858 26.0675C36.6865 26.4588 36.0871 26.6544 35.3878 26.6544C36.986 23.0353 36.4865 17.7533 32.5906 13.9386C32.0911 13.4495 31.5916 12.9604 30.9922 12.4713C27.8954 9.83035 25.0984 7.28711 25.8975 1.12488C25.8975 0.733587 25.6978 0.342389 25.3981 0.146699C24.9985 -0.0488997 24.5988 -0.0488997 24.2993 0.146699C17.6062 4.54836 16.8071 12.5692 17.9059 16.873C18.4053 18.7315 18.2056 20.4921 17.3065 21.5681C16.8071 22.155 16.1078 22.5463 15.4085 22.5463C15.2087 22.6441 14.1098 22.5463 13.2107 21.666C12.3117 20.7856 11.912 19.4162 11.912 17.6556C11.912 17.2643 11.7123 16.9709 11.3127 16.7753C10.9131 16.5797 10.5134 16.6775 10.2138 16.9709C6.11815 20.9812 3.92041 26.0676 3.92041 31.3496C3.92041 36.7294 8.31589 43.0874 13.91 43.0874Z" fill="#828282"/>
<path d="M33.0901 31.9365C32.2909 28.8065 30.6926 26.5567 29.294 24.6004C27.396 21.9594 25.9975 20.1009 27.0963 16.873C27.2961 16.4817 27.0963 16.0904 26.7966 15.7971C26.397 15.6015 25.9975 15.6015 25.5979 15.7971C21.1026 18.7315 20.5032 24.0135 21.2025 26.6545C21.9018 29.589 21.5022 30.5671 21.2025 30.9583C21.0027 31.1539 20.8029 31.3496 20.1037 31.3496C19.5043 31.3496 19.1047 31.7409 19.1047 32.3278C19.1047 32.9147 19.5043 33.306 20.1037 33.306C21.5022 33.306 22.3014 32.6213 22.7009 32.1322C23.6 30.9584 23.6999 29.0022 23.0006 26.1655C22.601 24.4048 22.9007 21.5682 24.599 19.3184C24.599 21.9594 25.9975 23.8179 27.4959 25.872C28.7946 27.7305 30.293 29.6868 30.9922 32.5234C31.5916 34.7732 31.0922 37.3164 29.7935 38.9792C28.6947 40.3486 26.9964 41.1311 24.9985 41.1311H23.0006C19.1047 41.1311 16.7072 39.3705 16.0079 36.0447C15.9079 35.6534 15.2087 31.8387 18.6051 29.1977C19.1046 28.9042 19.1046 28.2195 18.8049 27.8283C18.5052 27.3393 17.8059 27.3393 17.4064 27.6327C14.1098 30.1759 13.5104 33.9906 14.0099 36.436C14.909 40.7398 18.1056 43.0874 23.0005 43.0874H24.9984C28.3949 43.0874 30.2928 41.5223 31.4916 40.0552C33.19 37.9032 33.7894 34.7732 33.0901 31.9365Z" fill="#828282"/>
<path d="M17.0069 45.0439H0.0246582V47.0002H17.0069V45.0439Z" fill="#828282"/>
<path d="M47.9747 45.0437H30.9924V47H47.9747V45.0437Z" fill="#828282"/>
<path d="M21.0028 45.0437H19.0049V47H21.0028V45.0437Z" fill="#828282"/>
<path d="M24.9985 45.0437H23.0006V47H24.9985V45.0437Z" fill="#828282"/>
<path d="M28.9945 45.0437H26.9966V47H28.9945V45.0437Z" fill="#828282"/>
</g>
<defs>
<clipPath id="clip0_226_6877">
<rect width="48" height="47" fill="white"/>
</clipPath>
</defs>
</svg>
