<svg width="73" height="51" viewBox="0 0 73 51" fill="none" xmlns="http://www.w3.org/2000/svg">
<path d="M70.5977 19.5303H0.816406L4.42578 25.5459L0.816406 31.5615H70.5977L66.9883 25.5459L70.5977 19.5303Z" fill="#FFDD57"/>
<path d="M46.4348 29.9505L46.4023 31.5615H52.4192L52.4312 30.9804L55.0191 27.2652C55.7386 26.2329 55.7386 24.8601 55.0191 23.8266L52.43 20.1114L52.4192 19.5303H46.4023L46.4336 21.1425C46.4457 21.7368 46.6333 22.3143 46.9726 22.8028L48.8844 25.5459L46.9738 28.2902C46.6333 28.7787 46.4457 29.3562 46.4348 29.9505Z" fill="#FFDD57"/>
<path d="M24.9794 29.9493C24.9673 29.355 24.7797 28.7775 24.4404 28.289L22.5298 25.5459L24.4404 22.8016C24.7809 22.3143 24.9673 21.7368 24.9794 21.1425L25.0119 19.5303H18.995L18.983 20.1114L16.3951 23.8266C15.6756 24.8589 15.6756 26.2317 16.3951 27.2652L18.983 30.9792L18.995 31.5615H25.0119L24.9794 29.9493Z" fill="#FFDD57"/>
<path d="M52.5508 25.5457L49.4419 30.0093L49.3336 35.4474L44.1927 37.228L40.913 41.5689L35.707 39.9832L30.5011 41.5689L27.2214 37.2268L22.0792 35.4474L21.9722 30.0093L18.8633 25.5457L21.9722 21.0821L22.0804 15.644L27.2214 13.8633L30.5011 9.52246L35.707 11.1082L40.913 9.52246L44.1927 13.8645L49.3348 15.644L49.4419 21.0821L52.5508 25.5457Z" fill="#FFD530"/>
<path d="M35.707 35.1709C41.0228 35.1709 45.332 30.8616 45.332 25.5459C45.332 20.2302 41.0228 15.9209 35.707 15.9209C30.3913 15.9209 26.082 20.2302 26.082 25.5459C26.082 30.8616 30.3913 35.1709 35.707 35.1709Z" fill="#FEFFDF"/>
<path d="M36.0938 36.0566C42.0637 36.0566 46.9219 31.1984 46.9219 25.2285C46.9219 19.2586 42.0637 14.4004 36.0938 14.4004C30.1238 14.4004 25.2656 19.2586 25.2656 25.2285C25.2656 31.1984 30.1226 36.0566 36.0938 36.0566ZM36.0938 16.8066C40.7378 16.8066 44.5156 20.5845 44.5156 25.2285C44.5156 29.8726 40.7378 33.6504 36.0938 33.6504C31.4497 33.6504 27.6719 29.8726 27.6719 25.2285C27.6719 20.5845 31.4497 16.8066 36.0938 16.8066Z" fill="#828282"/>
<path d="M0.155466 31.837C0.368419 32.2136 0.76906 32.447 1.20218 32.447H21.209L21.2619 35.154C21.2715 35.6581 21.5952 36.1033 22.0716 36.2669L26.8673 37.9272L29.9256 41.9769C30.23 42.38 30.7533 42.5496 31.2358 42.4028L36.0916 40.9242L40.9474 42.4028C41.0629 42.4377 41.1808 42.4546 41.2987 42.4546C41.6693 42.4546 42.0266 42.2825 42.2588 41.9769L45.3184 37.9272L50.114 36.2669C50.5905 36.1021 50.9141 35.6581 50.9237 35.154L50.9767 32.447H70.9835C71.4166 32.447 71.8172 32.2136 72.0302 31.837C72.2443 31.4604 72.2383 30.9972 72.0145 30.6254L68.7769 25.2294L72.0145 19.8334C72.2383 19.4616 72.2431 18.9984 72.0302 18.6219C71.8172 18.2453 71.4166 18.0119 70.9835 18.0119H50.9767L50.9237 15.3048C50.9141 14.8007 50.5905 14.3556 50.114 14.1919L45.3184 12.5316L42.26 8.48192C41.9557 8.07887 41.4311 7.90923 40.9498 8.05601L36.094 9.53225L31.2382 8.05361C30.7558 7.90803 30.2312 8.07646 29.928 8.47951L26.8685 12.5292L22.0728 14.1895C21.5964 14.3544 21.2727 14.7983 21.2631 15.3024L21.2102 18.0095H1.20339C0.770263 18.0095 0.369622 18.2429 0.156669 18.6195C-0.0574874 18.996 -0.0514717 19.4592 0.17231 19.831L3.40992 25.227L0.17231 30.623C-0.0514717 30.996 -0.0574876 31.4592 0.155466 31.837ZM68.8587 20.4157L66.343 24.6086C66.1144 24.99 66.1144 25.4652 66.343 25.8466L68.8587 30.0395H51.0513L53.9243 25.914C54.2119 25.5013 54.2119 24.9527 53.9243 24.5388L51.0513 20.4145H68.8587V20.4157ZM23.3457 21.4516C23.4817 21.2567 23.5563 21.0257 23.5611 20.7875L23.6513 16.1879L28.0006 14.6828C28.2268 14.6046 28.4229 14.4614 28.5673 14.2714L31.3405 10.6006L35.7427 11.9421C35.9713 12.0119 36.2155 12.0119 36.4441 11.9421L40.8464 10.6018L43.6196 14.2726C43.7639 14.4627 43.9601 14.6058 44.1862 14.684L48.5355 16.1891L48.6258 20.7887C48.6306 21.0269 48.7052 21.2579 48.8423 21.4528L51.4724 25.2282L48.8423 29.0048C48.7064 29.1997 48.6318 29.4307 48.627 29.669L48.5367 34.2685L44.1862 35.7724C43.9601 35.8506 43.7639 35.9938 43.6196 36.1839L40.8464 39.8546L36.4441 38.5131C36.3298 38.4782 36.2119 38.4614 36.0928 38.4614C35.9737 38.4614 35.857 38.4794 35.7415 38.5131L31.3393 39.8534L28.5661 36.1827C28.4217 35.9926 28.2256 35.8494 27.9994 35.7712L23.6501 34.2661L23.5599 29.6665C23.555 29.4283 23.4805 29.1973 23.3433 29.0024L20.7133 25.227L23.3457 21.4516ZM5.84384 25.8466C6.07244 25.4652 6.07244 24.99 5.84384 24.6086L3.32811 20.4157H21.1356L18.2625 24.5412C17.975 24.9539 17.975 25.5025 18.2625 25.9164L21.1356 30.0407H3.32811L5.84384 25.8466Z" fill="#828282"/>
<path d="M34.8936 30.0405C34.9116 30.0405 34.9297 30.0405 34.9477 30.0393C35.2858 30.0237 35.601 29.8673 35.8176 29.6074L41.8332 22.3886L39.9852 20.8486L34.813 27.0556L32.1348 24.3774L30.4336 26.0786L34.043 29.688C34.2692 29.9142 34.5748 30.0405 34.8936 30.0405Z" fill="#828282"/>
<path d="M34.3506 48.007C33.5939 47.9493 32.8299 47.853 32.0827 47.7207L31.6641 50.0909C32.4894 50.2364 33.3316 50.3423 34.1678 50.4061L34.3506 48.007Z" fill="#828282"/>
<path d="M38.9142 47.9023C38.1623 47.995 37.3947 48.0503 36.6367 48.0672L36.6909 50.4734C37.5294 50.4542 38.3764 50.3928 39.209 50.2905L38.9142 47.9023Z" fill="#828282"/>
<path d="M29.8549 47.211C29.1282 47.0053 28.3991 46.7598 27.6905 46.4795L26.8086 48.7185C27.5918 49.0277 28.3967 49.2996 29.2004 49.527L29.8549 47.211Z" fill="#828282"/>
<path d="M41.1641 47.5117L41.6946 49.8578C42.5128 49.6725 43.3309 49.444 44.1274 49.1757L43.361 46.8945C42.6427 47.1376 41.9028 47.3445 41.1641 47.5117Z" fill="#828282"/>
<path d="M25.6151 45.5357C24.9401 45.1868 24.276 44.7994 23.6407 44.3867L22.3281 46.4032C23.0295 46.8603 23.7635 47.2875 24.5106 47.6725L25.6151 45.5357Z" fill="#828282"/>
<path d="M47.5204 45.0176C46.8622 45.3978 46.1777 45.7491 45.4883 46.0607L46.4785 48.254C47.2412 47.9099 47.9968 47.5213 48.7235 47.1014L47.5204 45.0176Z" fill="#828282"/>
<path d="M21.7885 43.0467C21.1978 42.5714 20.6227 42.0601 20.0813 41.5283L18.3945 43.2452C18.9925 43.8335 19.6277 44.3978 20.281 44.9223L21.7885 43.0467Z" fill="#828282"/>
<path d="M51.2229 42.3516C50.6539 42.8545 50.0535 43.3333 49.4375 43.7773L50.844 45.7299C51.5237 45.2403 52.1878 44.7109 52.8171 44.155L51.2229 42.3516Z" fill="#828282"/>
<path d="M15.168 39.3712C15.6372 40.0654 16.1485 40.7439 16.6863 41.3888L18.5343 39.8476C18.0483 39.2641 17.5863 38.6505 17.1603 38.0225L15.168 39.3712Z" fill="#828282"/>
<path d="M52.8594 40.7554L54.6244 42.3917C55.1958 41.7745 55.7421 41.1248 56.2462 40.4583L54.3296 39.0049C53.8724 39.6076 53.3767 40.196 52.8594 40.7554Z" fill="#828282"/>
<path d="M12.7695 34.9342C13.0944 35.7114 13.4601 36.4766 13.8584 37.2129L15.9747 36.0688C15.6149 35.4034 15.2829 34.7104 14.9905 34.0078L12.7695 34.9342Z" fill="#828282"/>
<path d="M58.8765 36.1525L56.7084 35.1094C56.3788 35.7952 56.0118 36.4701 55.6172 37.1162L57.6697 38.371C58.1065 37.6576 58.5119 36.9105 58.8765 36.1525Z" fill="#828282"/>
<path d="M13.8984 14.6368L16.0821 15.6474C16.3985 14.9616 16.7571 14.2819 17.1445 13.6261L15.0727 12.4014C14.6456 13.1269 14.2497 13.8788 13.8984 14.6368Z" fill="#828282"/>
<path d="M60.0215 15.1964C59.6883 14.4289 59.3105 13.6673 58.9014 12.9346L56.8008 14.1076C57.1713 14.7717 57.513 15.4599 57.815 16.1553L60.0215 15.1964Z" fill="#828282"/>
<path d="M19.8456 9.95106L18.0602 8.33887C17.4971 8.96209 16.9605 9.6214 16.4648 10.2964L18.4031 11.7221C18.8506 11.1109 19.3367 10.5153 19.8456 9.95106Z" fill="#828282"/>
<path d="M57.5559 10.7936C57.0771 10.1078 56.5562 9.43648 56.0099 8.79883L54.1836 10.3653C54.6793 10.9428 55.1497 11.5504 55.584 12.1712L57.5559 10.7936Z" fill="#828282"/>
<path d="M21.462 8.33143C22.0238 7.82131 22.6182 7.33284 23.2281 6.88046L21.794 4.94824C21.1203 5.44754 20.4646 5.98654 19.8438 6.5508L21.462 8.33143Z" fill="#828282"/>
<path d="M50.8828 7.21351C51.4796 7.67791 52.0607 8.18082 52.6117 8.70659L54.2732 6.96687C53.6644 6.38576 53.022 5.83112 52.3627 5.31738L50.8828 7.21351Z" fill="#828282"/>
<path d="M27.1454 4.53898L26.1227 2.36133C25.366 2.71625 24.6152 3.11448 23.8945 3.54641L25.1289 5.61217C25.7822 5.22116 26.4608 4.86142 27.1454 4.53898Z" fill="#828282"/>
<path d="M47.0234 4.7798C47.6996 5.11667 48.3697 5.49325 49.0122 5.8987L50.2959 3.86422C49.5849 3.41545 48.845 2.99917 48.0954 2.625L47.0234 4.7798Z" fill="#828282"/>
<path d="M29.2598 3.67463C29.9721 3.42438 30.7096 3.20662 31.4483 3.02735L30.8828 0.688477C30.0647 0.885789 29.2502 1.12762 28.4609 1.40434L29.2598 3.67463Z" fill="#828282"/>
<path d="M45.7825 1.61443C44.9956 1.31726 44.1859 1.05618 43.3774 0.84082L42.7578 3.16646C43.4881 3.36016 44.2184 3.59598 44.9295 3.86548L45.7825 1.61443Z" fill="#828282"/>
<path d="M33.6917 2.60236C34.4413 2.49889 35.2065 2.43272 35.9668 2.40505L35.879 0C35.0392 0.0312812 34.1922 0.104672 33.3633 0.218969L33.6917 2.60236Z" fill="#828282"/>
<path d="M38.25 2.43366C39.0128 2.48179 39.778 2.56601 40.5227 2.68752L40.9065 0.312555C40.0848 0.179008 39.2402 0.0851641 38.3992 0.0322266L38.25 2.43366Z" fill="#828282"/>
</svg>
