<svg width="105" height="32" viewBox="0 0 105 32" fill="none" xmlns="http://www.w3.org/2000/svg">
<rect y="1" width="18" height="29" fill="#FFDD57"/>
<path d="M44.4653 21.3038C44.4653 22.2788 44.0994 22.6515 43.1989 22.6515H40.0187V19.3251H43.1989C44.0994 19.3251 44.4653 19.7839 44.4653 20.6729V21.3038ZM20.0939 0H0V32H20.0939V0ZM43.1989 17.1457H36.5573V19.1817L37.7393 19.3538V27.4979H40.0187V24.8309H43.1989C45.8161 24.8309 46.7167 23.4831 46.7167 21.3898V20.5869C46.7167 18.6082 45.8725 17.1457 43.1989 17.1457ZM92.2515 17.1457H93.0957V27.4979H90.8162V20.1565L86.1163 27.4979H83.4991V17.1457H85.7786V24.2303L89.212 18.8089C90.0845 17.4324 90.8442 17.1457 92.2515 17.1457ZM27.9175 4.49944H34.137V5.78978C34.137 6.82219 34.0525 7.68239 33.8273 8.45666H31.8856V6.67872H27.9175C26.7355 6.67872 26.454 6.99421 26.454 8.31335V11.0375C26.454 12.3566 26.7355 12.6721 27.9175 12.6721H34.137V14.8515H27.9175C25.0189 14.8515 24.1746 13.9912 24.1746 11.0375V8.31332C24.1746 5.3309 25.0188 4.49944 27.9175 4.49944ZM90.8161 4.49944H93.0956V14.8516H90.8161V10.6935H85.7786V14.8516H83.4991V4.49944H85.7786V8.51411H90.8161V4.49944ZM30.7317 25.3186H26.7916V23.3112H30.7317C31.4916 23.3112 31.773 23.684 31.773 24.2861C31.773 24.8883 31.4916 25.3186 30.7317 25.3186ZM31.3226 20.2428C31.3226 20.8737 31.0132 21.2178 30.2251 21.2178H26.7916V19.3538H30.2251C31.0132 19.3538 31.3226 19.6405 31.3226 20.2428ZM32.6241 22.0273C33.1583 21.6951 33.6023 20.9889 33.6023 19.8986C33.6023 18.4935 32.8143 17.1457 30.4784 17.1457H24.5123V27.498H30.7036C32.9549 27.498 34.0525 26.3223 34.0525 24.4009C34.0525 23.1089 33.3244 22.3475 32.6241 22.0273ZM75.2813 17.1457H81.5572V18.4362C81.5572 19.4686 81.4728 20.3288 81.2475 21.1031H79.3057V19.3251H75.2814C74.0995 19.3251 73.8181 19.6405 73.8181 20.9596V23.6839C73.8181 25.003 74.0995 25.3185 75.2814 25.3185H81.5572V27.4979H75.2814C72.3827 27.4979 71.5384 26.6375 71.5384 23.6839V20.9596C71.5384 17.9772 72.3827 17.1457 75.2813 17.1457ZM56.0599 23.684C56.0599 25.0031 55.7785 25.3186 54.5966 25.3186H51.8949C50.7129 25.3186 50.4315 25.0031 50.4315 23.684V20.9597C50.4315 19.6406 50.7129 19.3252 51.8949 19.3252H54.5966C55.7785 19.3252 56.0599 19.6406 56.0599 20.9597V23.684ZM54.5966 17.1457H51.8949C48.9962 17.1457 48.1519 17.9773 48.1519 20.9597V23.684C48.1519 26.6376 48.9962 27.498 51.8949 27.498H54.5966C57.5235 27.498 58.3396 26.6376 58.3396 23.684V20.9597C58.3396 17.9773 57.5235 17.1457 54.5966 17.1457ZM39.4611 6.67878H43.4804V12.3567H38.6044C38.916 11.802 39.0474 11.0286 39.1464 10.034L39.4611 6.67878ZM45.7598 4.49947H37.4577L36.9513 9.74722C36.698 12.2421 36.332 12.6435 35.6566 12.6435H35.5159V15.8266H37.6829L37.7673 14.5074H44.4653L44.5497 15.8266H46.7167V12.6148H45.7597L45.7598 4.49947ZM63.6866 17.1457H69.9343V18.4362C69.9343 19.4686 69.8499 20.3288 69.6247 21.1031H67.6829V19.3251H63.6866C62.5046 19.3251 62.2232 19.6405 62.2232 20.9596V23.6839C62.2232 25.003 62.5046 25.3185 63.6866 25.3185H69.9343V27.4979H63.6866C60.788 27.4979 59.9437 26.6375 59.9437 23.6839V20.9596C59.9437 17.9772 60.7879 17.1457 63.6866 17.1457ZM102.72 11.0376C102.72 12.3567 102.439 12.6722 101.257 12.6722H98.7523C97.5703 12.6722 97.2889 12.3567 97.2889 11.0376V8.31345C97.2889 6.99431 97.5703 6.67881 98.7523 6.67881H101.257C102.439 6.67881 102.72 6.99431 102.72 8.31345V11.0376ZM101.257 4.49947H98.7523C95.8535 4.49947 95.0093 5.33103 95.0093 8.31345V11.0376C95.0093 13.9914 96.1349 14.8516 99.0337 14.8516H100.976C103.902 14.8516 105 13.9914 105 11.0376V8.31345C105 5.33103 104.184 4.49947 101.257 4.49947ZM48.3208 11.0376V8.31345C48.3208 5.33103 49.1369 4.49947 52.0638 4.49947H58.03V6.67878H51.9512C50.7692 6.67878 50.6004 6.87951 50.6004 8.19862V8.54276H56.3696V10.6935H50.6004V11.1524C50.6004 12.4715 50.7692 12.6722 51.9512 12.6722H58.1145V14.8515H52.0638C49.1369 14.8515 48.3208 13.9914 48.3208 11.0376ZM75.5065 6.67878H79.0806V9.23103H74.0431V8.31341C74.0431 7.13772 74.1838 6.67878 75.5065 6.67878ZM74.0431 11.3818H79.0806V14.8516H81.3601V4.49947H75.5065C72.636 4.49947 71.7635 5.30239 71.7635 8.31345V14.8516H74.043L74.0431 11.3818ZM13.424 17.1457H15.7035V27.498H8.41462C5.48769 27.498 4.39023 26.3795 4.39023 23.3973V17.1457H6.66968V23.4545C6.66968 24.7737 7.17629 25.3186 8.3583 25.3186H13.4239L13.424 17.1457ZM2.19505 2.23395H17.8987V29.7634H2.19505V2.23395ZM59.4935 14.8516V12.6435C60.4221 12.6435 60.6472 12.07 60.8443 10.1486L61.4634 4.49947H69.6246V14.8516H67.3452V6.67881H63.4144L63.0113 10.6362C62.6735 14.0487 61.7729 14.9664 59.4935 14.8516ZM103.987 17.1457H104.831V27.498H102.552V20.1565L97.8517 27.498H95.2346V17.1457H97.514V24.2303L100.947 18.809C101.82 17.4325 102.58 17.1457 103.987 17.1457ZM12.2984 9.0303H6.66971V6.67878H12.2984C13.1425 6.67878 13.5365 7.13772 13.5365 7.82587C13.5365 8.51411 13.1988 9.0303 12.2984 9.0303ZM15.8162 7.56775C15.8162 5.84722 15.0001 4.49947 12.6078 4.49947H4.39026V14.8516H6.66971V11.2097H11.9324C13.1145 11.2097 13.424 11.5538 13.424 12.7583V14.8516H15.7035V12.3854C15.7035 11.1553 15.2752 10.4337 14.324 10.1882C15.3136 9.84736 15.8162 8.87236 15.8162 7.56775Z" fill="#828282"/>
</svg>
