<svg width="58" height="38" viewBox="0 0 58 38" fill="none" xmlns="http://www.w3.org/2000/svg">
<path d="M57.0049 25.3237C57.0049 27.019 56.6517 28.6084 55.9453 30.0918C55.3096 31.5752 54.4266 32.882 53.2964 34.0122C52.2368 35.0718 50.9653 35.9194 49.4819 36.5552C47.9985 37.1909 46.4092 37.5088 44.7139 37.5088C43.0186 37.5088 41.4292 37.1909 39.9458 36.5552C38.4624 35.9194 37.1556 35.0718 36.0254 34.0122C34.9658 32.882 34.1182 31.5752 33.4824 30.0918C32.8467 28.6084 32.5288 27.019 32.5288 25.3237C32.5288 22.4982 32.988 19.8846 33.9062 17.4829C34.8245 15.0106 36.0607 12.7148 37.6147 10.5957C39.2394 8.47656 41.076 6.53402 43.1245 4.76807C45.2437 3.00212 47.4334 1.41276 49.6938 0L53.6143 3.39062C52.2721 4.59147 51.036 6.11019 49.9058 7.94678C48.7756 9.78337 48.0339 11.62 47.6807 13.4565C50.3649 14.0923 52.59 15.5404 54.356 17.8008C56.1219 19.9906 57.0049 22.4982 57.0049 25.3237ZM24.4761 25.3237C24.4761 27.019 24.1229 28.6084 23.4165 30.0918C22.7808 31.5752 21.8978 32.882 20.7676 34.0122C19.708 35.0718 18.4012 35.9194 16.8472 36.5552C15.3638 37.1909 13.7744 37.5088 12.0791 37.5088C10.3838 37.5088 8.79443 37.1909 7.31104 36.5552C5.89827 35.9194 4.62679 35.0718 3.49658 34.0122C2.43701 32.882 1.58936 31.5752 0.953613 30.0918C0.317871 28.6084 0 27.019 0 25.3237C0 22.4982 0.459147 19.8846 1.37744 17.4829C2.29574 15.0106 3.5319 12.7148 5.08594 10.5957C6.71061 8.47656 8.5472 6.53402 10.5957 4.76807C12.7148 3.00212 14.9046 1.41276 17.165 0L20.9795 3.39062C19.708 4.59147 18.5072 6.11019 17.377 7.94678C16.2467 9.78337 15.505 11.62 15.1519 13.4565C17.8361 14.0923 20.0612 15.5404 21.8271 17.8008C23.5931 19.9906 24.4761 22.4982 24.4761 25.3237Z" fill="#FFDD57"/>
</svg>
