<svg width="0" height="0" class="hidden">
  <symbol xmlns="http://www.w3.org/2000/svg" viewBox="0 0 8 12" id="ic_arr">
    <rect width="2.18663" height="8.74653" rx="1" transform="matrix(0.73154 -0.681798 -0.73154 -0.681798 6.39844 12)" fill="currentColor"></rect>
    <rect width="2.18663" height="8.74653" rx="1" transform="matrix(-0.73154 -0.681798 -0.73154 0.681798 8 1.49072)" fill="currentColor"></rect>
  </symbol>
  <symbol xmlns="http://www.w3.org/2000/svg" viewBox="0 0 25 10" id="ic_arrow">
    <rect y="4" width="23" height="2" rx="1" fill="currentColor"></rect>
    <rect x="19.4141" width="7" height="2" rx="1" transform="rotate(45 19.4141 0)" fill="currentColor"></rect>
    <rect x="24.3594" y="4.94971" width="7" height="2" rx="1" transform="rotate(135 24.3594 4.94971)" fill="currentColor"></rect>
  </symbol>
  <symbol xmlns="http://www.w3.org/2000/svg" viewBox="0 0 22 22" id="ic_cart">
    <path fill-rule="evenodd" clip-rule="evenodd" d="M2.45866 2.61455H0V0.870117H2.46678C3.50966 0.876088 4.44309 1.52981 4.78216 2.51145L5.72698 5.12799H21.12C21.3938 5.12799 21.652 5.25433 21.8186 5.46978C21.9851 5.68523 22.0409 5.96523 21.9696 6.22728L19.8636 13.9689C19.76 14.3495 19.4117 14.614 19.0139 14.614H7.90271C7.53103 14.614 7.19942 14.3825 7.07418 14.0357L3.11769 3.07877C3.02555 2.80897 2.76423 2.61715 2.45866 2.61455ZM6.35689 6.87242L8.52242 12.8696H18.3398L19.9713 6.87242H6.35689Z" fill="currentColor"></path>
    <path d="M8.29599 21.8701C9.38713 21.8701 10.2717 21.0036 10.2717 19.9347C10.2717 18.8658 9.38713 17.9993 8.29599 17.9993C7.20485 17.9993 6.32031 18.8658 6.32031 19.9347C6.32031 21.0036 7.20485 21.8701 8.29599 21.8701Z" fill="currentColor"></path>
    <path d="M18.9679 21.8701C20.059 21.8701 20.9435 21.0036 20.9435 19.9347C20.9435 18.8658 20.059 17.9993 18.9679 17.9993C17.8767 17.9993 16.9922 18.8658 16.9922 19.9347C16.9922 21.0036 17.8767 21.8701 18.9679 21.8701Z" fill="currentColor"></path>
  </symbol>
  <symbol xmlns="http://www.w3.org/2000/svg" viewBox="0 0 14 14" id="ic_close">
    <path d="M13.295 2.115C13.6844 1.72564 13.6844 1.09436 13.295 0.705C12.9056 0.315639 12.2744 0.315639 11.885 0.705L7 5.59L2.115 0.705C1.72564 0.315639 1.09436 0.315639 0.705 0.705C0.315639 1.09436 0.315639 1.72564 0.705 2.115L5.59 7L0.705 11.885C0.315639 12.2744 0.315639 12.9056 0.705 13.295C1.09436 13.6844 1.72564 13.6844 2.115 13.295L7 8.41L11.885 13.295C12.2744 13.6844 12.9056 13.6844 13.295 13.295C13.6844 12.9056 13.6844 12.2744 13.295 11.885L8.41 7L13.295 2.115Z" fill="currentColor"></path>
  </symbol>
  <symbol xmlns="http://www.w3.org/2000/svg" viewBox="0 0 21 20" id="ic_delete">
    <rect x="19.3828" width="2" height="26" transform="rotate(45 19.3828 0)" fill="currentColor"></rect>
    <rect x="20.7969" y="18.3848" width="2" height="26" transform="rotate(135 20.7969 18.3848)" fill="currentColor"></rect>
  </symbol>
  <symbol xmlns="http://www.w3.org/2000/svg" viewBox="0 0 16 13" id="ic_email">
    <rect x="15" y="1" width="10.5714" height="14" rx="1" transform="rotate(90 15 1)" stroke="currentColor" stroke-width="2" fill="none"></rect>
    <line y1="-1" x2="10.9821" y2="-1" transform="matrix(0.72846 0.685088 -0.72846 0.685088 0 1.71436)" stroke="currentColor" stroke-width="2" fill="none"></line>
    <line y1="-1" x2="10.9821" y2="-1" transform="matrix(0.72846 -0.685088 0.72846 0.685088 8 9.23828)" stroke="currentColor" stroke-width="2" fill="none"></line>
  </symbol>
  <symbol xmlns="http://www.w3.org/2000/svg" viewBox="0 0 23 22" id="ic_file">
    <path d="M14.3386 9.61889C14.3386 9.61889 15.4555 8.60488 14.3991 7.5485C13.3427 6.49212 12.2677 7.54797 12.2677 7.54797L10.4258 9.39003C8.57018 11.2464 8.34114 14.0362 10.1966 15.8909C12.0529 17.7473 14.9077 17.583 16.7626 15.7269L19.8702 12.6207C22.7246 9.76629 22.7246 5.12125 19.8702 2.26685L19.7453 2.14191C16.8894 -0.71397 12.2444 -0.71397 9.38987 2.14191L2.14137 9.3895C-0.71379 12.2439 -0.71379 16.8889 2.14137 19.7449L2.26631 19.8698C4.48898 22.0919 7.8312 22.6218 10.6521 21.2409C11.4094 20.8702 12.2324 20.1682 11.6892 19.1836C11.1144 18.1418 10.1048 18.3687 9.57094 18.6121C7.97788 19.2685 5.62936 19.0905 4.33723 17.7991L4.21229 17.6727C2.49899 15.9608 2.49899 13.1735 4.21229 11.4603L11.4608 4.21264C13.1741 2.49934 15.9613 2.49934 17.6732 4.21264L17.7996 4.33758C19.5114 6.05088 19.5114 8.8367 17.7996 10.55L14.6918 13.6561C13.9782 14.3697 12.9811 14.534 12.2675 13.8202C11.5538 13.1064 11.7831 12.1746 12.4967 11.4608L14.3386 9.61889Z" fill="currentColor"></path>
  </symbol>
  <symbol xmlns="http://www.w3.org/2000/svg" viewBox="0 0 18 15" id="ic_filter">
    <path fill-rule="evenodd" clip-rule="evenodd" d="M10.9995 7.95332L16.8662 1.94885C17.4849 1.31561 17.0363 0.25 16.151 0.25H1.84868C0.96336 0.25 0.514704 1.31561 1.13341 1.94885L6.99953 7.95274V14.25L10.9995 11.75V7.95332Z" fill="currentColor"></path>
  </symbol>
  <symbol xmlns="http://www.w3.org/2000/svg" viewBox="0 0 21 21" id="ic_instagram">
    <path d="M20.9426 6.17406C20.8934 5.05825 20.7129 4.29114 20.4544 3.62643C20.1878 2.92085 19.7776 2.28915 19.2401 1.76402C18.7149 1.23071 18.0791 0.816306 17.3817 0.553819C16.7131 0.295338 15.95 0.114898 14.8342 0.0657019C13.7101 0.0123391 13.3532 0 10.502 0C7.65091 0 7.29403 0.0123391 6.17406 0.0615355C5.05824 0.110732 4.29114 0.291332 3.62658 0.549653C2.92085 0.816306 2.28915 1.22654 1.76402 1.76402C1.23071 2.28915 0.816466 2.92502 0.553819 3.62242C0.295338 4.29114 0.114898 5.05408 0.0657019 6.16989C0.0123391 7.29403 0 7.65091 0 10.5021C0 13.3532 0.0123391 13.7101 0.0615354 14.83C0.110732 15.9459 0.291332 16.713 0.549813 17.3777C0.816466 18.0833 1.23071 18.715 1.76402 19.2401C2.28915 19.7734 2.92502 20.1878 3.62242 20.4503C4.29114 20.7088 5.05408 20.8892 6.17005 20.9384C7.28987 20.9878 7.6469 20.9999 10.498 20.9999C13.3492 20.9999 13.7061 20.9878 14.826 20.9384C15.9418 20.8892 16.709 20.7088 17.3735 20.4503C18.7848 19.9046 19.9006 18.7888 20.4463 17.3777C20.7046 16.709 20.8852 15.9459 20.9344 14.83C20.9836 13.7101 20.9959 13.3532 20.9959 10.5021C20.9959 7.65091 20.9918 7.29403 20.9426 6.17406ZM19.0515 14.748C19.0063 15.7736 18.834 16.3274 18.6904 16.6966C18.3376 17.6115 17.6115 18.3376 16.6966 18.6904C16.3274 18.834 15.7696 19.0063 14.748 19.0513C13.6404 19.1007 13.3082 19.1128 10.5062 19.1128C7.70427 19.1128 7.36791 19.1007 6.26428 19.0513C5.23868 19.0063 4.68487 18.834 4.31565 18.6904C3.86039 18.5222 3.44598 18.2555 3.10962 17.9068C2.76092 17.5663 2.49427 17.1561 2.32601 16.7008C2.18242 16.3316 2.01016 15.7736 1.96513 14.7522C1.91577 13.6445 1.90359 13.3122 1.90359 10.5102C1.90359 7.70828 1.91577 7.37191 1.96513 6.26844C2.01016 5.24285 2.18242 4.68903 2.32601 4.31982C2.49427 3.86439 2.76092 3.45015 3.11379 3.11363C3.45416 2.76493 3.86439 2.49828 4.31982 2.33017C4.68903 2.18659 5.24702 2.01432 6.26844 1.96913C7.37608 1.91994 7.70844 1.9076 10.5102 1.9076C13.3163 1.9076 13.6485 1.91994 14.7522 1.96913C15.7778 2.01432 16.3316 2.18659 16.7008 2.33017C17.156 2.49828 17.5704 2.76493 17.9068 3.11363C18.2555 3.45416 18.5222 3.86439 18.6904 4.31982C18.834 4.68903 19.0063 5.24686 19.0515 6.26844C19.1007 7.37608 19.113 7.70828 19.113 10.5102C19.113 13.3122 19.1007 13.6404 19.0515 14.748Z" fill="currentColor"></path>
    <path d="M10.504 5.10742C7.52576 5.10742 5.10938 7.52365 5.10938 10.502C5.10938 13.4804 7.52576 15.8966 10.504 15.8966C13.4824 15.8966 15.8986 13.4804 15.8986 10.502C15.8986 7.52365 13.4824 5.10742 10.504 5.10742ZM10.504 14.0014C8.57187 14.0014 7.00463 12.4343 7.00463 10.502C7.00463 8.56975 8.57187 7.00268 10.504 7.00268C12.4363 7.00268 14.0033 8.56975 14.0033 10.502C14.0033 12.4343 12.4363 14.0014 10.504 14.0014Z" fill="currentColor"></path>
    <path d="M17.3705 4.89416C17.3705 5.58964 16.8066 6.15355 16.111 6.15355C15.4155 6.15355 14.8516 5.58964 14.8516 4.89416C14.8516 4.19852 15.4155 3.63477 16.111 3.63477C16.8066 3.63477 17.3705 4.19852 17.3705 4.89416Z" fill="currentColor"></path>
  </symbol>
  <symbol fill="none" xmlns="http://www.w3.org/2000/svg" viewBox="0 0 14 18" id="ic_location">
    <path d="M7 17.9375L5.73352 19.4854L7 20.5216L8.26648 19.4854L7 17.9375ZM12 7C12 7.82072 11.6318 9.21072 10.5897 10.9476C9.57003 12.647 7.97762 14.5535 5.73352 16.3896L8.26648 19.4854C10.8349 17.384 12.7425 15.1342 14.0197 13.0056C15.2744 10.9143 16 8.80428 16 7H12ZM8.26648 16.3896C6.02238 14.5535 4.42997 12.647 3.4103 10.9476C2.36819 9.21072 2 7.82072 2 7H-2C-2 8.80428 -1.27444 10.9143 -0.0196734 13.0056C1.25753 15.1342 3.16512 17.384 5.73352 19.4854L8.26648 16.3896ZM2 7C2 4.23858 4.23858 2 7 2V-2C2.02944 -2 -2 2.02944 -2 7H2ZM7 2C9.76142 2 12 4.23858 12 7H16C16 2.02944 11.9706 -2 7 -2V2Z" fill="currentColor"></path>
    <circle cx="7" cy="7" r="2.5" stroke="currentColor" stroke-width="2" fill="none"></circle>
  </symbol>
  <symbol xmlns="http://www.w3.org/2000/svg" viewBox="0 0 14 12" id="ic_menu">
    <line x1="1" y1="1" x2="13" y2="1" stroke="currentColor" stroke-width="2" stroke-linecap="round" fill="none"></line>
    <line x1="1" y1="6" x2="13" y2="6" stroke="currentColor" stroke-width="2" stroke-linecap="round" fill="none"></line>
    <line x1="1" y1="11" x2="13" y2="11" stroke="currentColor" stroke-width="2" stroke-linecap="round" fill="none"></line>
  </symbol>
  <symbol xmlns="http://www.w3.org/2000/svg" viewBox="0 0 14 2" id="ic_minus">
    <rect width="14" height="2" rx="1" fill="currentColor"></rect>
  </symbol>
  <symbol xmlns="http://www.w3.org/2000/svg" viewBox="0 0 4 15" id="ic_notice">
    <path d="M3.07182 10.2545C3.31492 10.2545 3.46961 10.11 3.46961 9.88308L3.69061 4.02338V0.371389C3.69061 0.123796 3.53591 0 3.29282 0H0.685083C0.441989 0 0.309392 0.123796 0.309392 0.371389V4.02338L0.530387 9.88308C0.530387 10.11 0.662984 10.2545 0.906077 10.2545H3.07182ZM4 13.1637C4 12.0908 3.16022 11.3274 1.98895 11.3274C0.81768 11.3274 0 12.0908 0 13.1637C0 14.1953 0.81768 15 1.98895 15C3.16022 15 4 14.1953 4 13.1637Z" fill="currentColor"></path>
  </symbol>
  <symbol xmlns="http://www.w3.org/2000/svg" viewBox="0 0 32 19" id="ic_opt">
    <rect x="1" y="13" width="30" height="4" rx="1" stroke="currentColor" stroke-width="2" fill="none"></rect>
    <rect x="2.75" y="16.75" width="4.5" height="1.5" rx="0.75" stroke="currentColor" stroke-width="1.5" fill="none"></rect>
    <rect x="24.75" y="16.75" width="4.5" height="1.5" rx="0.75" stroke="currentColor" stroke-width="1.5" fill="none"></rect>
    <rect x="5" y="7" width="11" height="6" rx="1" stroke="currentColor" stroke-width="2" fill="none"></rect>
    <rect x="16" y="7" width="11" height="6" rx="1" stroke="currentColor" stroke-width="2" fill="none"></rect>
    <rect x="11" y="1" width="10" height="6" rx="1" stroke="currentColor" stroke-width="2" fill="none"></rect>
  </symbol>
  <symbol xmlns="http://www.w3.org/2000/svg" viewBox="0 0 39 25" id="ic_opt2">
    <line x1="19.5" y1="0.5" x2="19.5" y2="3.5" stroke="currentColor" stroke-linecap="round" fill="none"></line>
    <line x1="25.183" y1="0.950591" x2="23.683" y2="3.54867" stroke="currentColor" stroke-linecap="round" fill="none"></line>
    <line x1="0.5" y1="-0.5" x2="3.5" y2="-0.5" transform="matrix(0.5 0.866025 0.866025 -0.5 14 0.267578)" stroke="currentColor" stroke-linecap="round" fill="none"></line>
    <line x1="3.05862" y1="8.50965" x2="5.34202" y2="10.4554" stroke="currentColor" stroke-linecap="round" fill="none"></line>
    <line x1="7.7494" y1="7.30322" x2="8.75398" y2="10.13" stroke="currentColor" stroke-linecap="round" fill="none"></line>
    <path d="M2.11182 13.1277L5.06219 13.6711" stroke="currentColor" stroke-linecap="round" fill="none"></path>
    <line x1="0.5" y1="-0.5" x2="3.5" y2="-0.5" transform="matrix(-0.761131 0.648598 0.648598 0.761131 36.3962 8.56592)" stroke="currentColor" stroke-linecap="round" fill="none"></line>
    <line x1="0.5" y1="-0.5" x2="3.5" y2="-0.5" transform="matrix(-0.33486 0.942268 0.942268 0.33486 31.6392 6.99951)" stroke="currentColor" stroke-linecap="round" fill="none"></line>
    <path d="M36.6382 13.1277L33.6878 13.6711" stroke="currentColor" stroke-linecap="round" fill="none"></path>
    <rect x="4" y="19" width="30" height="4" rx="1" stroke="currentColor" stroke-width="2" fill="none"></rect>
    <rect x="5.75" y="22.75" width="4.5" height="1.5" rx="0.75" stroke="currentColor" stroke-width="1.5" fill="none"></rect>
    <rect x="27.75" y="22.75" width="4.5" height="1.5" rx="0.75" stroke="currentColor" stroke-width="1.5" fill="none"></rect>
    <rect x="8" y="13" width="11" height="6" rx="1" stroke="currentColor" stroke-width="2" fill="none"></rect>
    <rect x="19" y="13" width="11" height="6" rx="1" stroke="currentColor" stroke-width="2" fill="none"></rect>
    <rect x="14" y="7" width="10" height="6" rx="1" stroke="currentColor" stroke-width="2" fill="none"></rect>
  </symbol>
  <symbol xmlns="http://www.w3.org/2000/svg" viewBox="0 0 35 35" id="ic_pdf">
    <path d="M6 9C6 5.13401 9.13401 2 13 2H28V31H6V9Z" fill="currentColor"></path>
    <rect x="13" y="11" width="20" height="11" fill="#FEFFDF"></rect>
    <path d="M6.5 33L11.2631 27H1.73686L6.5 33Z" fill="#FEFFDF"></path>
    <rect x="5" y="19" width="4" height="13" fill="#FEFFDF"></rect>
    <path d="M30.5604 14.2386C30.938 14.2386 31.244 13.9325 31.244 13.5551C31.244 13.1776 30.938 12.8715 30.5604 12.8715H28.344C27.9664 12.8715 27.6604 13.1776 27.6604 13.5551V19.0239C27.6604 19.4014 27.9664 19.7075 28.344 19.7075C28.7215 19.7075 29.0276 19.4014 29.0276 19.0239V16.9213H30.3843C30.7619 16.9213 31.0679 16.6152 31.0679 16.2377C31.0679 15.8602 30.7619 15.5541 30.3843 15.5541H29.0276V14.2387H30.5604V14.2386Z" fill="black"></path>
    <path d="M23.8008 12.8713H22.252C21.8741 12.8713 21.5677 13.1783 21.5684 13.5562V13.5605V13.5607V18.935C21.5684 19.4319 21.9026 19.7074 22.263 19.7074H22.2656C22.3125 19.7072 23.4168 19.703 23.8581 19.6952C25.5006 19.6665 26.6927 18.2342 26.6927 16.2894C26.6927 14.245 25.5305 12.8713 23.8008 12.8713ZM23.8341 18.3282C23.6297 18.3317 23.2689 18.3346 22.9442 18.3367C22.9374 16.1963 22.9414 16.9471 22.9367 14.2385H23.8007C24.9249 14.2385 25.3255 15.2979 25.3255 16.2893C25.3255 17.2912 24.8644 18.3102 23.8341 18.3282Z" fill="black"></path>
    <path d="M18.3035 12.8713H16.7808C16.4032 12.8713 16.0972 13.1781 16.0972 13.5549V19.0237C16.0972 19.4013 16.4032 19.7073 16.7808 19.7073C17.1583 19.7073 17.4644 19.4012 17.4644 19.0237V17.3282C17.7715 17.3266 18.1097 17.3252 18.3035 17.3252C19.548 17.3252 20.5605 16.3262 20.5605 15.0983C20.5605 13.8703 19.548 12.8713 18.3035 12.8713ZM18.3035 15.9579C18.1104 15.9579 17.7766 15.9593 17.4712 15.9609C17.4668 15.0646 17.4696 15.4135 17.4664 14.2386H18.3035C18.7858 14.2386 19.1934 14.6323 19.1934 15.0982C19.1934 15.5642 18.7859 15.9579 18.3035 15.9579Z" fill="black"></path>
    <path d="M32.8553 9.60511H29.0447V1.02539C29.0447 0.459102 28.5856 0 28.0194 0H11.9376C11.6574 0 11.3971 0.115938 11.2126 0.300303L4.68862 6.82384C4.49119 7.02133 4.38825 7.2867 4.38825 7.54893V17.6323H4.03408C3.46779 17.6323 3.00875 18.0914 3.00875 18.6577V25.7652H1.02654C0.165208 25.7652 -0.31235 26.7674 0.23015 27.4364L6.05587 34.6207C6.46637 35.1268 7.2389 35.1259 7.64864 34.6207L9.00387 32.9494H28.0193C28.5856 32.9494 29.0446 32.4903 29.0446 31.924V23.0066H32.8552C34.0378 23.0066 34.9999 22.0445 34.9999 20.8618V11.75C35 10.5673 34.0378 9.60511 32.8553 9.60511ZM10.9123 3.50075V6.52354H7.88934C8.20981 6.20307 10.5922 3.82088 10.9123 3.50075ZM3.17815 27.816H4.03414C4.60043 27.816 5.05947 27.3569 5.05947 26.7907V19.6831H8.64498V26.7907C8.64498 27.3569 9.10408 27.816 9.67031 27.816H10.5263L7.72411 31.2717C7.72405 31.2718 7.72391 31.2719 7.72384 31.272L6.85219 32.3469L3.17815 27.816ZM26.994 30.8986H10.6669L13.4744 27.4365C14.0168 26.7676 13.5395 25.7653 12.678 25.7653H10.6957V18.6577C10.6957 18.0914 10.2366 17.6323 9.67037 17.6323H6.43903V8.57438H11.9376C12.5039 8.57438 12.963 8.11528 12.963 7.54899V2.05078H26.9939V9.60511H14.478C13.2953 9.60511 12.3332 10.5673 12.3332 11.75V20.8618C12.3332 22.0445 13.2953 23.0066 14.478 23.0066H26.994V30.8986ZM32.9493 20.8618C32.9493 20.9137 32.9071 20.9558 32.8553 20.9558C32.3736 20.9558 15.0068 20.9558 14.478 20.9558C14.4261 20.9558 14.3839 20.9137 14.3839 20.8618V11.75C14.3839 11.6981 14.4261 11.6559 14.478 11.6559H32.8553C32.9071 11.6559 32.9493 11.6981 32.9493 11.75V20.8618Z" fill="black"></path>
  </symbol>
  <symbol xmlns="http://www.w3.org/2000/svg" viewBox="0 0 18 18" id="ic_phone">
    <path d="M14.4317 8.86812C14.0901 8.52646 13.5364 8.52646 13.1948 8.86789L11.826 10.2368L7.76348 6.17425L9.1323 4.80533C9.47393 4.4639 9.47393 3.90995 9.1323 3.56852L5.82049 0.256245C5.65651 0.0920204 5.43399 0 5.20213 0C4.97027 0 4.74776 0.0920204 4.58377 0.256245L0.940122 3.8997C-0.31345 5.15382 -0.31345 7.19444 0.940578 8.44879L9.5516 17.0607C10.1574 17.6665 10.9651 18 11.826 18C12.6869 18 13.4945 17.6665 14.1004 17.0607L17.7438 13.4172C17.9078 13.2532 18 13.0309 18 12.7988C18 12.5667 17.9078 12.3444 17.7438 12.1804L14.4317 8.86812ZM12.8636 15.8236C12.5883 16.099 12.2198 16.2507 11.826 16.2507C11.4322 16.2507 11.0637 16.099 10.7883 15.8239L2.17752 7.21198C1.6054 6.63981 1.60517 5.70868 2.17707 5.13651L5.20213 2.11146L7.27699 4.18693L5.9084 5.55584C5.74419 5.71984 5.65218 5.94237 5.65218 6.17425C5.65218 6.40635 5.74419 6.62865 5.9084 6.79265L11.2076 12.092C11.549 12.4337 12.1027 12.4337 12.4443 12.0922L13.8132 10.7233L15.8885 12.7988L12.8636 15.8236Z" fill="currentColor"></path>
  </symbol>
  <symbol xmlns="http://www.w3.org/2000/svg" viewBox="0 0 14 14" id="ic_plus">
    <rect y="6" width="14" height="2" rx="1" fill="currentColor"></rect>
    <rect x="8" width="14" height="2" rx="1" transform="rotate(90 8 0)" fill="currentColor"></rect>
  </symbol>
  <symbol xmlns="http://www.w3.org/2000/svg" viewBox="0 0 22 24" id="ic_search">
    <circle cx="10.5" cy="10.5" r="9.5" stroke="currentColor" stroke-width="2" fill="none"></circle>
    <line x1="17.4142" y1="18.3333" x2="21" y2="21.919" stroke="currentColor" stroke-width="2" stroke-linecap="round" fill="none"></line>
  </symbol>
  <symbol xmlns="http://www.w3.org/2000/svg" viewBox="0 0 19 18" id="ic_star">
    <path d="M9.05163 1.03827C9.23504 0.666646 9.76496 0.666646 9.94837 1.03827L11.9048 5.0025C12.1233 5.44522 12.5457 5.75207 13.0342 5.82306L17.409 6.45876C17.8191 6.51835 17.9829 7.02234 17.6861 7.31161L14.5205 10.3973C14.167 10.7419 14.0057 11.2384 14.0891 11.725L14.8364 16.0821C14.9065 16.4906 14.4778 16.8021 14.1109 16.6092L10.198 14.5521C9.76103 14.3223 9.23897 14.3223 8.80199 14.5521L4.88906 16.6092C4.52224 16.8021 4.09353 16.4906 4.16358 16.0821L4.91088 11.725C4.99434 11.2384 4.83302 10.7419 4.47949 10.3973L1.31386 7.3116C1.0171 7.02234 1.18086 6.51835 1.59097 6.45876L5.96576 5.82306C6.45432 5.75207 6.87667 5.44522 7.09517 5.0025L9.05163 1.03827Z" fill="currentColor" stroke="#828282"></path>
  </symbol>
  <symbol xmlns="http://www.w3.org/2000/svg" viewBox="0 0 24 21" id="ic_telegram">
    <path d="M0.414193 10.1973L6.28336 13.1219C6.51037 13.2339 6.77838 13.2259 6.99538 13.0989L12.2195 10.0624L9.05744 12.864C8.89644 13.007 8.80443 13.2109 8.80443 13.4259V20.25C8.80443 20.9699 9.72346 21.2728 10.1545 20.7009L12.6915 17.3284L18.9657 20.9009C19.4057 21.1538 19.9698 20.8999 20.0718 20.3969L23.9849 0.899606C24.1019 0.313686 23.5189 -0.164249 22.9768 0.0537217L0.476195 8.82753C-0.127822 9.06349 -0.166823 9.90838 0.414193 10.1973ZM22.2448 1.94946L18.8057 19.0841L12.8605 15.6986C12.5365 15.5136 12.1195 15.5956 11.8895 15.8996L10.3045 18.0063V13.7629L18.8557 6.18789C19.5327 5.58897 18.7547 4.52411 17.9817 4.97805L6.59137 11.5991L2.59926 9.61042L22.2448 1.94946Z" fill="currentColor"></path>
  </symbol>
  <symbol xmlns="http://www.w3.org/2000/svg" viewBox="0 0 25 15" id="ic_vk">
    <path d="M12.048 0.0013326C10.7562 -0.0103639 9.7813 0.0481217 8.9648 0.451679C8.62967 0.61544 8.39203 0.825991 8.20923 1.07163C8.11174 1.19445 8.02034 1.30558 7.97769 1.56292C7.95331 1.68574 7.93503 1.89044 8.06908 2.11269C8.20314 2.34079 8.48952 2.49285 8.68451 2.52209C8.83074 2.53964 9.1415 2.66246 9.19634 2.73265C9.3243 2.90811 9.37305 3.03677 9.39133 3.10696C9.40961 3.17714 9.40351 3.13035 9.40351 3.13035V3.20054C9.40351 3.20054 9.45226 3.93746 9.42179 4.69779C9.40351 5.0721 9.36695 5.46396 9.30602 5.72715C9.24509 5.99033 9.09275 6.05467 9.31211 5.93185C9.15978 6.01958 9.21462 6.05467 9.02573 5.96109C8.83074 5.87336 8.325 5.46396 7.66084 4.31763C6.99667 3.16545 6.5153 2.56888 6.40562 2.44021C6.36297 2.32324 6.25938 2.08345 5.90597 1.82026C5.44897 1.48104 4.97979 1.47519 4.97979 1.47519L4.93714 1.46934H1.531C1.531 1.46934 1.33601 1.47519 1.11056 1.52198C0.885109 1.56877 0.562164 1.62141 0.257501 1.98402H0.251408C-0.0593497 2.36418 -0.00451016 2.70925 0.0198629 2.9198C0.0503293 3.1362 0.117355 3.30581 0.117355 3.30581L0.129542 3.3409L0.147822 3.376C0.147822 3.376 2.74965 8.7041 5.85723 11.9501C8.7759 15.0031 12.1577 14.9446 12.1577 14.9446H14.0771L14.1197 14.9387C14.1197 14.9387 14.7351 14.968 15.2531 14.4124C15.5151 14.1258 15.576 13.8567 15.6065 13.6579C15.643 13.4532 15.643 13.2894 15.643 13.2894V13.3362C15.643 13.3362 15.6674 12.9502 15.7771 12.5467C15.8319 12.3478 15.9111 12.1489 15.9843 12.0378C16.0208 11.9735 16.0208 11.991 16.033 11.9735C16.1671 12.0671 16.3864 12.2835 16.618 12.5584C17.0932 13.1023 17.6294 13.8567 18.3789 14.3773C18.9212 14.7457 19.4331 14.9095 19.823 14.968C20.085 15.0089 20.2739 15.0031 20.4019 14.9914L23.0525 14.9446H23.0768C23.0768 14.9446 23.6252 14.9329 24.1736 14.5995C24.4417 14.4358 24.7525 14.1375 24.8561 13.7105C24.9657 13.2836 24.8439 12.8215 24.588 12.3946C24.6733 12.5408 24.5697 12.3478 24.4905 12.1957C24.4113 12.0437 24.2894 11.839 24.1066 11.5816C23.7532 11.0786 23.1682 10.371 22.1994 9.47027C21.7424 9.04917 21.4499 8.81523 21.2671 8.65146C21.322 8.57543 21.3281 8.56958 21.5352 8.33564C21.8643 7.96717 22.3456 7.42325 22.955 6.61029C23.6862 5.62772 24.2163 4.82646 24.5575 4.15971C24.8987 3.49882 25.1729 2.94904 24.8683 2.2706C24.7037 1.90214 24.4113 1.76177 24.198 1.67404C23.9786 1.58631 23.7837 1.55122 23.6009 1.52198C23.2413 1.46934 22.9245 1.46934 22.9245 1.46934L19.8352 1.49273C19.7438 1.47519 19.3904 1.41085 18.9334 1.69159C18.4825 1.96063 18.3789 2.24721 18.3545 2.33494C18.2814 2.43436 17.7696 3.13035 17.0567 4.34687C16.3377 5.57508 15.8502 5.90845 15.7893 5.9377C15.771 5.92015 15.8075 5.926 15.7222 5.87921C15.6857 5.84997 15.6491 5.82657 15.6187 5.51075C15.5943 5.19492 15.6248 4.69779 15.6248 4.11292C15.6248 2.85547 15.7405 2.20042 15.6735 1.57462C15.643 1.25879 15.509 0.87278 15.2165 0.61544C14.924 0.363949 14.6072 0.270371 14.2781 0.188489C13.7602 0.065668 13.0595 0.0130306 12.048 0.0013326ZM12.0358 1.49858C12.9803 1.51028 13.6444 1.58046 13.8882 1.63895C14.0953 1.69159 14.1258 1.71498 14.1197 1.70329C14.1197 1.71498 14.1197 1.70913 14.1197 1.72668C14.1441 1.97817 14.0649 2.78528 14.0649 4.11292C14.0649 4.63345 14.0222 5.13643 14.0649 5.63942C14.1075 6.1424 14.2964 6.75651 14.8509 7.11912H14.857C14.79 7.07818 15.5577 7.62795 16.2889 7.37646C17.0201 7.11912 17.599 6.47577 18.4216 5.07795C19.1406 3.83804 19.6707 3.14205 19.6707 3.14205L19.7194 3.07187L19.756 3.00168C19.756 3.00168 19.7438 2.99583 19.756 2.98999L22.9245 2.96659C22.9245 2.96659 23.1439 2.96659 23.3571 3.00168C23.3632 3.00168 23.3693 3.00168 23.3754 3.00168C23.3449 3.01338 23.3693 3.08941 23.156 3.50467C22.8818 4.03689 22.3883 4.79721 21.6876 5.73884C21.1087 6.50501 20.6761 7.00215 20.3531 7.36476C20.0302 7.72153 19.7865 7.89114 19.628 8.35903C19.5488 8.58713 19.5671 8.92635 19.6829 9.15445C19.7926 9.37669 19.9266 9.49952 20.0607 9.62234C20.3288 9.86798 20.6456 10.1078 21.1087 10.5464C22.0166 11.3886 22.5284 12.0086 22.8148 12.418C22.9611 12.6285 23.0464 12.7748 23.1012 12.88C23.156 12.9853 23.1195 12.9444 23.2413 13.1432C23.3449 13.3245 23.3267 13.3479 23.3267 13.3362C23.2231 13.3947 22.9611 13.4473 22.955 13.4473L20.3044 13.4941L20.2313 13.5117C20.2313 13.5117 20.2374 13.5175 20.0728 13.4941C19.9022 13.4649 19.6341 13.3947 19.2929 13.1608C18.8725 12.8742 18.3424 12.2074 17.8183 11.5992C17.5624 11.3009 17.3004 11.0085 16.9714 10.7745C16.6423 10.5406 16.1244 10.3242 15.5943 10.4938C15.1373 10.6342 14.8387 10.9558 14.6498 11.2541C14.4609 11.5582 14.3513 11.8741 14.266 12.1606C14.1075 12.7397 14.0832 13.2602 14.0832 13.2602V13.307C14.0832 13.307 14.0832 13.3421 14.071 13.3947C14.0405 13.4064 13.9978 13.4356 13.9735 13.4473H12.1089C12.1089 13.4473 9.53147 13.576 7.00276 10.9441C4.29735 8.10754 1.8905 3.3643 1.68942 2.96659H4.82746C4.85793 2.97829 4.96761 3.01923 4.95542 3.01338C4.8823 2.95489 4.99198 3.08356 4.99198 3.08356L5.04072 3.19469L5.12603 3.28827C5.12603 3.28827 5.6074 3.84974 6.29594 5.04286C7.03323 6.32371 7.65474 6.99045 8.34938 7.31213C9.04401 7.6338 9.7752 7.4057 10.086 7.23609C10.6648 6.91442 10.7318 6.46408 10.8293 6.04882C10.9268 5.63357 10.9573 5.18907 10.9756 4.75627C11.0121 3.92577 10.9634 3.21808 10.9634 3.16544C10.9573 3.1479 10.9573 2.9432 10.8964 2.72095C10.8293 2.49285 10.7075 2.19457 10.4759 1.87875C10.3784 1.75007 10.287 1.81441 10.1835 1.72083C10.6161 1.60386 11.0792 1.48689 12.0358 1.49858Z" fill="currentColor"></path>
  </symbol>
  <symbol xmlns="http://www.w3.org/2000/svg" viewBox="0 0 24 24" id="ic_whatsapp">
    <path d="M16.3681 11.8939C16.0934 11.6193 15.6483 11.6193 15.3736 11.8937L14.2731 12.9942L11.0071 9.72833L12.1076 8.62787C12.3822 8.35339 12.3822 7.90808 12.1076 7.63361L9.44502 4.97089C9.31319 4.83887 9.13429 4.76489 8.94789 4.76489C8.76149 4.76489 8.5826 4.83887 8.45076 4.97089L5.52144 7.89984C4.51363 8.90802 4.51363 10.5485 5.5218 11.5568L12.4447 18.4799C12.9317 18.9669 13.581 19.235 14.2731 19.235C14.9653 19.235 15.6146 18.9669 16.1016 18.4799L19.0308 15.5509C19.1626 15.4191 19.2368 15.2404 19.2368 15.0538C19.2368 14.8672 19.1626 14.6885 19.0308 14.5566L16.3681 11.8939ZM15.1074 17.4854C14.886 17.7068 14.5897 17.8287 14.2731 17.8287C13.9566 17.8287 13.6603 17.7068 13.4389 17.4856L6.51625 10.5626C6.05629 10.1026 6.05611 9.35406 6.51588 8.8941L8.94789 6.46228L10.616 8.13074L9.5157 9.2312C9.38368 9.36304 9.30971 9.54193 9.30971 9.72833C9.30971 9.91492 9.38368 10.0936 9.5157 10.2255L13.776 14.4856C14.0505 14.7603 14.4956 14.7603 14.7703 14.4858L15.8707 13.3853L17.5392 15.0538L15.1074 17.4854Z" fill="currentColor"></path>
    <path d="M20.4851 3.51471C18.2186 1.24841 15.2053 0.000183105 12 0C8.79474 0.000183105 5.78119 1.24841 3.51471 3.51471C1.24823 5.78137 -0.000183085 8.79474 2.01393e-08 11.9998C2.01393e-08 14.3377 0.668884 16.5914 1.93726 18.5387L0.961487 22.335C0.899597 22.5758 0.969543 22.8314 1.14532 23.0072C1.32111 23.183 1.5769 23.2529 1.8175 23.191L5.67627 22.1993C7.57379 23.3784 9.75311 24 11.9998 24C15.2051 24 18.2186 22.7518 20.4851 20.4853C22.7518 18.2186 24 15.2053 24 11.9998C23.9998 8.79456 22.7516 5.78119 20.4851 3.51471ZM11.9998 22.5938C9.92322 22.5938 7.91217 21.9924 6.18402 20.855C6.06812 20.7786 5.93353 20.7391 5.7973 20.7391C5.73889 20.7391 5.68011 20.7464 5.62244 20.7612L2.61969 21.533L3.37775 18.5837C3.42847 18.3865 3.39111 18.1769 3.27539 18.0093C2.05261 16.2378 1.40625 14.1597 1.40625 11.9998C1.40607 9.17029 2.50818 6.51013 4.50897 4.50916C6.50995 2.50836 9.17029 1.40625 12 1.40625C17.8412 1.40643 22.5936 6.15875 22.5938 11.9998C22.5938 17.8412 17.8412 22.5938 11.9998 22.5938Z" fill="currentColor"></path>
  </symbol>
  <symbol xmlns="http://www.w3.org/2000/svg" viewBox="0 0 36 38" id="ic_zoom">
    <circle cx="17" cy="17" r="16" stroke="currentColor" stroke-width="2" fill="none"></circle>
    <line x1="27.3205" y1="29.6824" x2="34.0015" y2="36.3634" stroke="currentColor" stroke-width="2" stroke-linecap="round" fill="none"></line>
    <line x1="17" y1="12.1109" x2="17" y2="22.1109" stroke="currentColor" stroke-width="2" stroke-linecap="round" fill="none"></line>
    <line x1="12" y1="17.1109" x2="22" y2="17.1109" stroke="currentColor" stroke-width="2" stroke-linecap="round" fill="none"></line>
  </symbol>
</svg>